<?xml version="1.0" encoding="UTF-8"?>
<svg version="1.1" xmlns="http://www.w3.org/2000/svg" width="403" height="338">
<path d="M0 0 C4.00483126 0.96668341 4.35961833 1.28271233 6.5625 4.5 C7.6118244 6.27513055 8.62892039 8.06945423 9.625 9.875 C10.29351525 11.04414772 10.9642044 12.21205429 11.63671875 13.37890625 C13.00619226 15.75854377 14.3556345 18.14607498 15.6953125 20.54296875 C16.95226744 22.7133788 18.27861893 24.84548743 19.6796875 26.92578125 C21.59402301 29.8280369 23.08787407 32.76050925 24.625 35.875 C25.89348892 38.01391646 27.18615253 40.138642 28.5 42.25 C28.85223633 42.81871826 29.20447266 43.38743652 29.56738281 43.97338867 C31.06993663 46.39627392 32.58423413 48.81107655 34.1171875 51.21484375 C35.31132531 53.08763752 36.47509057 54.97479505 37.625 56.875 C38.02976563 57.51695313 38.43453125 58.15890625 38.8515625 58.8203125 C41.37064628 63.19015172 42.22386841 66.5402088 41.34765625 71.55078125 C39.92042319 76.14107137 37.25707702 79.89246092 34.625 83.875 C33.81758683 85.16415277 33.01449274 86.45601685 32.21484375 87.75 C28.6249911 93.55892253 25.02216475 99.3484118 21.1875 105 C19.03626148 108.17216528 17.27204187 111.40754342 15.625 114.875 C15.295 115.205 14.965 115.535 14.625 115.875 C14.625 122.02353983 17.22411926 125.75447317 20.5859375 130.76953125 C22.80573965 134.15026441 24.82456181 137.60505548 26.8125 141.125 C27.44542969 142.24390625 28.07835937 143.3628125 28.73046875 144.515625 C29.35566406 145.62421875 29.98085937 146.7328125 30.625 147.875 C30.99705566 148.50470703 31.36911133 149.13441406 31.75244141 149.78320312 C34.625 154.66718407 34.625 154.66718407 34.625 156.875 C35.615 157.205 36.605 157.535 37.625 157.875 C38.57790802 159.71275118 39.51874366 161.55786477 40.39453125 163.43359375 C41.78335606 166.18919853 43.38389421 168.72358738 45.0625 171.3125 C47.6376649 175.29279734 50.03208307 179.30821381 52.30078125 183.46875 C53.93497829 186.43826438 55.6176926 189.37716347 57.3125 192.3125 C57.89386719 193.32183594 58.47523438 194.33117187 59.07421875 195.37109375 C60.52611157 197.92866506 60.52611157 197.92866506 62.625 199.875 C64.67455217 200.16283527 64.67455217 200.16283527 67.01953125 200.11328125 C67.89287109 200.12939453 68.76621094 200.14550781 69.66601562 200.16210938 C71.50188347 200.17892846 73.33789493 200.1842866 75.17382812 200.17773438 C79.52441046 200.2768292 81.89469348 200.33280273 85.4609375 202.98046875 C87.88849872 206.22744143 90.24700756 209.4635176 92.4375 212.875 C92.84419922 213.47828125 93.25089844 214.0815625 93.66992188 214.703125 C95.94187937 218.21606768 97.15931266 220.66429725 96.625 224.875 C93.64075868 226.60058171 91.61893623 227.08617575 88.1875 226.9375 C84.81641159 226.80265646 81.92417648 227.17699863 78.625 227.875 C78.98851562 228.47038574 79.35203125 229.06577148 79.7265625 229.67919922 C81.363946 232.36671233 82.99454413 235.05827894 84.625 237.75 C85.19734375 238.68714844 85.7696875 239.62429687 86.359375 240.58984375 C87.17148437 241.93369141 87.17148437 241.93369141 88 243.3046875 C88.50273437 244.13210449 89.00546875 244.95952148 89.5234375 245.81201172 C90.625 247.875 90.625 247.875 90.625 249.875 C91.29031738 249.82786865 91.95563477 249.7807373 92.64111328 249.73217773 C95.67661977 249.5442755 98.71090677 249.42783908 101.75 249.3125 C102.79671875 249.23708984 103.8434375 249.16167969 104.921875 249.08398438 C108.05512819 248.99474615 110.59923597 249.04021007 113.625 249.875 C116.39284688 252.53302509 117.95164531 255.45502897 119.625 258.875 C120.37592058 260.05458189 121.14421073 261.22348479 121.9375 262.375 C122.7728125 263.6125 122.7728125 263.6125 123.625 264.875 C123.955 265.205 124.285 265.535 124.625 265.875 C124.89814815 271.61111111 124.89814815 271.61111111 124.625 273.875 C121.77885976 276.72114024 118.82130858 276.33079076 115 276.5 C114.29359375 276.53867187 113.5871875 276.57734375 112.859375 276.6171875 C111.11501476 276.71147724 109.37004309 276.79432891 107.625 276.875 C110.8705211 282.32108275 114.15592679 287.73879513 117.5 293.125 C120.68191609 298.27667368 123.72340851 303.48899914 126.67944336 308.77319336 C128.80535333 312.54374481 131.12134097 316.11543669 133.5625 319.6875 C136.71892279 324.54076967 137.625 328.09853732 137.625 333.875 C135.05985165 336.44014835 128.4347451 335.35133078 125 335.4375 C123.91847656 335.50001953 122.83695312 335.56253906 121.72265625 335.62695312 C113.86036088 335.78535102 113.86036088 335.78535102 110.38671875 333.22558594 C108.57200566 331.19877587 107.06976976 329.17741433 105.625 326.875 C105.09390625 326.03195312 104.5628125 325.18890625 104.015625 324.3203125 C103.63921875 323.55460937 103.2628125 322.78890625 102.875 322 C100.24772005 316.9410886 97.36840468 312.09698119 94.375 307.25 C89.34523712 299.08828628 84.46088226 290.84907281 79.62182617 282.57324219 C77.85318462 279.56009729 76.04819524 276.56965661 74.23046875 273.5859375 C71.02794387 268.31015271 68.00718492 262.96906647 65.1171875 257.515625 C63.63833556 254.82265111 63.63833556 254.82265111 61.81640625 252.1640625 C58.95237814 247.86546773 56.32854113 243.4380042 53.6875 239 C49.35079662 231.72254874 49.35079662 231.72254874 44.8984375 224.515625 C43.24388744 221.88382221 41.66416991 219.23697792 40.1875 216.5 C37.90682673 212.32838876 35.45994645 208.27602172 32.95703125 204.234375 C31.625 201.875 31.625 201.875 30.63671875 199.203125 C29.73751689 196.5585454 29.73751689 196.5585454 26.625 194.875 C25.5546875 193.01953125 25.5546875 193.01953125 24.5 190.6875 C18.76566973 178.73522124 11.27529667 167.60077461 4.08203125 156.4921875 C3.62183594 155.77289063 3.16164062 155.05359375 2.6875 154.3125 C2.28660156 153.69246094 1.88570312 153.07242188 1.47265625 152.43359375 C0.625 150.875 0.625 150.875 0.625 148.875 C-0.035 148.875 -0.695 148.875 -1.375 148.875 C-1.72304688 149.85919922 -1.72304688 149.85919922 -2.078125 150.86328125 C-3.7744503 154.8026391 -5.92510053 158.38639493 -8.125 162.0625 C-8.57456055 162.81990479 -9.02412109 163.57730957 -9.48730469 164.35766602 C-10.77943724 166.5323837 -12.07630173 168.70419852 -13.375 170.875 C-13.9628125 171.85984375 -14.550625 172.8446875 -15.15625 173.859375 C-16.55802795 176.20064243 -17.96571894 178.53824337 -19.375 180.875 C-20.43788402 182.64560286 -21.50038192 184.41643757 -22.5625 186.1875 C-23.96875 188.53125 -23.96875 188.53125 -25.375 190.875 C-25.85066406 191.67164063 -26.32632813 192.46828125 -26.81640625 193.2890625 C-28.56277228 196.18654198 -30.34320238 199.06167864 -32.125 201.9375 C-35.37130029 207.19256069 -38.50350949 212.50521368 -41.59765625 217.8515625 C-43.45692687 221.01436571 -45.37688315 224.13339276 -47.3125 227.25 C-50.81968007 232.91700718 -54.1496899 238.66570816 -57.4375 244.4609375 C-62.03757308 252.56671144 -66.74137776 260.57104779 -71.796875 268.40234375 C-74.81706132 273.13446737 -77.6016194 277.99551834 -80.375 282.875 C-84.2833394 289.75132646 -88.36875219 296.50633493 -92.5 303.25 C-96.5012503 309.78499716 -100.47258183 316.33644908 -104.38134766 322.92724609 C-110.21211378 332.71211378 -110.21211378 332.71211378 -112.375 334.875 C-114.21659023 334.97459621 -116.06196967 335.00580411 -117.90625 335.0078125 C-119.02644531 335.00910156 -120.14664063 335.01039063 -121.30078125 335.01171875 C-122.48027344 335.00785156 -123.65976563 335.00398438 -124.875 335 C-126.64423828 335.00580078 -126.64423828 335.00580078 -128.44921875 335.01171875 C-130.12951172 335.00978516 -130.12951172 335.00978516 -131.84375 335.0078125 C-132.87951172 335.00668457 -133.91527344 335.00555664 -134.98242188 335.00439453 C-137.375 334.875 -137.375 334.875 -138.375 333.875 C-139.05321859 328.25426342 -137.16758531 324.95720068 -134.375 320.3125 C-133.96854248 319.61431152 -133.56208496 318.91612305 -133.14331055 318.19677734 C-131.90343936 316.07933655 -130.64391179 313.97514677 -129.375 311.875 C-128.82320068 310.96113525 -128.82320068 310.96113525 -128.26025391 310.02880859 C-126.59973536 307.29207079 -124.9188955 304.5687346 -123.2265625 301.8515625 C-120.5557414 297.55796402 -117.96633955 293.21683146 -115.375 288.875 C-114.6325 287.64716797 -114.6325 287.64716797 -113.875 286.39453125 C-112.43348422 283.97323521 -111.04967825 281.5291471 -109.6875 279.0625 C-109.25050781 278.27230469 -108.81351563 277.48210937 -108.36328125 276.66796875 C-108.03714844 276.07628906 -107.71101563 275.48460937 -107.375 274.875 C-109.07269531 275.01808594 -109.07269531 275.01808594 -110.8046875 275.1640625 C-112.28641612 275.27659885 -113.76818945 275.38854758 -115.25 275.5 C-115.99636719 275.56445312 -116.74273437 275.62890625 -117.51171875 275.6953125 C-119.4620047 275.83587365 -121.41969467 275.86259849 -123.375 275.875 C-125.375 273.875 -125.375 273.875 -125.703125 271.08984375 C-125.31910309 267.32734335 -124.26194046 265.53067642 -122.125 262.4375 C-119.58776461 258.88774396 -119.58776461 258.88774396 -117.67871094 255.0012207 C-116.79876536 252.81943401 -116.10276888 251.48808172 -114.375 249.875 C-110.30065572 248.84323086 -106.30987963 248.89623379 -102.125 248.9375 C-100.43503906 248.91333008 -100.43503906 248.91333008 -98.7109375 248.88867188 C-95.93106057 248.85333446 -93.15488176 248.84994173 -90.375 248.875 C-90.106875 247.9675 -89.83875 247.06 -89.5625 246.125 C-88.45650748 243.0980731 -87.36165415 241.34694371 -85.375 238.875 C-84.49529327 237.3687959 -83.64101421 235.84745893 -82.8125 234.3125 C-81.41621433 231.73306884 -80.00579834 229.32119751 -78.375 226.875 C-79.33921875 226.89820313 -80.3034375 226.92140625 -81.296875 226.9453125 C-82.56015625 226.96335938 -83.8234375 226.98140625 -85.125 227 C-86.37796875 227.02320313 -87.6309375 227.04640625 -88.921875 227.0703125 C-92.10320492 226.89037302 -93.74021896 226.56498582 -96.375 224.875 C-97.10423608 218.85169941 -94.74251275 215.45472729 -91.5625 210.625 C-91.11068359 209.90570313 -90.65886719 209.18640625 -90.19335938 208.4453125 C-88.06334451 205.12435502 -86.72124533 203.10583022 -83.375 200.875 C-81.2019043 200.71484375 -81.2019043 200.71484375 -78.69921875 200.8125 C-68.71403439 201.43691544 -68.71403439 201.43691544 -59.8671875 197.90625 C-58.38601957 195.28385432 -57.38609916 192.7084755 -56.375 189.875 C-55.33643013 188.24149627 -54.25360442 186.6351455 -53.125 185.0625 C-51.58355364 182.85392228 -50.38844753 180.9086454 -49.38671875 178.40234375 C-48.32455047 175.74897358 -47.02081486 173.62690788 -45.4375 171.25 C-42.0941034 166.09559691 -38.99547379 160.82818408 -35.9375 155.5 C-32.07481927 148.7761968 -28.13003857 142.12143906 -24.03125 135.5390625 C-22.90454852 133.7267738 -21.82236265 131.88621259 -20.78125 130.0234375 C-20.3171875 129.31445312 -19.853125 128.60546875 -19.375 127.875 C-18.715 127.875 -18.055 127.875 -17.375 127.875 C-17.1584375 126.6684375 -17.1584375 126.6684375 -16.9375 125.4375 C-16.375 122.875 -16.375 122.875 -15.375 121.875 C-14.94478218 117.14260401 -15.672854 114.73520857 -18.375 110.875 C-21.27963992 106.56507882 -23.95761115 102.21510815 -26.5 97.6875 C-28.95781952 93.33644789 -31.46527374 89.03671269 -34.1484375 84.8203125 C-42.61341958 71.39495875 -42.61341958 71.39495875 -42.125 66.4375 C-42.05796875 65.65503906 -41.9909375 64.87257812 -41.921875 64.06640625 C-41.26393268 61.42993738 -40.30301184 60.74333528 -38.375 58.875 C-37.33520794 56.89539588 -36.34137168 54.89146368 -35.375 52.875 C-31.02750206 44.75308339 -26.42650782 36.78946272 -21.3984375 29.0703125 C-18.02449895 23.74235549 -14.83593347 18.30096083 -11.63745117 12.86621094 C-4.72640479 1.2253642 -4.72640479 1.2253642 0 0 Z M-0.375 47.875 C-2.0826909 50.55218688 -3.7859323 53.23139508 -5.47265625 55.921875 C-6.61567658 57.69625564 -7.7996825 59.44649849 -9.05859375 61.140625 C-9.77208984 62.12289062 -9.77208984 62.12289062 -10.5 63.125 C-10.93570313 63.68703125 -11.37140625 64.2490625 -11.8203125 64.828125 C-12.98981827 69.143766 -9.51904396 73.70742029 -7.40234375 77.40234375 C-6.36787109 79.09037109 -6.36787109 79.09037109 -5.3125 80.8125 C-4.7855957 81.69518555 -4.7855957 81.69518555 -4.24804688 82.59570312 C-3.34863927 84.05957826 -2.36803256 85.47294765 -1.375 86.875 C-0.715 86.875 -0.055 86.875 0.625 86.875 C2.89233317 84.06244302 4.71706732 80.9388335 6.625 77.875 C7.14449219 77.08609375 7.66398437 76.2971875 8.19921875 75.484375 C8.66972656 74.72640625 9.14023438 73.9684375 9.625 73.1875 C10.058125 72.50300781 10.49125 71.81851563 10.9375 71.11328125 C11.95277886 67.80785633 10.98404996 66.00121114 9.625 62.875 C8.53901503 60.96471319 7.39141959 59.08824282 6.1875 57.25 C5.59066406 56.32960938 4.99382812 55.40921875 4.37890625 54.4609375 C2.85368763 52.21217418 1.2791344 50.02992738 -0.375 47.875 Z " fill="#C6BDB3" transform="translate(201.375,0.125)"/>
<path d="M0 0 C3.1002855 0.95848971 3.64738642 1.71853432 5.22509766 4.4934082 C5.68384277 5.27989746 6.14258789 6.06638672 6.61523438 6.87670898 C7.09492676 7.73635254 7.57461914 8.59599609 8.06884766 9.48168945 C8.5807666 10.36711426 9.09268555 11.25253906 9.62011719 12.16479492 C10.71361 14.05614352 11.80082252 15.95113445 12.88232422 17.84936523 C15.68204638 22.73793627 18.56909994 27.57450671 21.44384766 32.41918945 C22.48329285 34.18198468 23.52236778 35.94499831 24.56103516 37.70825195 C26.61837057 41.19128764 28.68007656 44.67163452 30.75244141 48.14575195 C31.21706787 48.92515137 31.68169434 49.70455078 32.16040039 50.50756836 C34.06755889 53.60384961 36.10386113 56.60230807 38.17431641 59.59106445 C39.56884766 61.79418945 39.56884766 61.79418945 40.90478516 64.48950195 C43.05940134 68.76838762 45.52425459 72.82389562 48.00634766 76.91918945 C49.08843797 78.71342467 50.17046753 80.50769652 51.25244141 82.30200195 C52.07977783 83.67146973 52.07977783 83.67146973 52.92382812 85.06860352 C55.48085043 89.30526084 58.0245982 93.54985387 60.56884766 97.79418945 C63.62483543 102.88950962 66.6823812 107.98387853 69.74462891 113.07543945 C74.43160304 120.87159445 79.10125867 128.67364374 83.66259766 136.54418945 C86.78374252 141.86548561 89.97452257 147.14499471 93.15551758 152.43066406 C95.93405881 157.05252167 98.68419404 161.68689978 101.38134766 166.35668945 C104.10570914 171.06300735 107.00623063 175.63546076 109.94775391 180.20825195 C111.86576442 183.26782534 113.60861236 186.39918726 115.33837891 189.56762695 C118.96675469 196.13325932 122.97948582 202.44755886 127.06884766 208.73168945 C130.35832513 213.78916718 133.33813459 218.92784256 136.16259766 224.26293945 C138.00454404 227.57844294 140.11557683 230.67056332 142.25634766 233.7980957 C143.93748581 236.35482664 145.25209398 239.035277 146.56884766 241.79418945 C147.12572266 242.59856445 147.68259766 243.40293945 148.25634766 244.23168945 C149.94845238 247.53532248 149.65888583 250.12834943 149.56884766 253.79418945 C145.69463065 253.99835539 141.82180173 254.12210482 137.94384766 254.23168945 C136.30222656 254.31966797 136.30222656 254.31966797 134.62744141 254.40942383 C126.66851669 254.5782495 126.66851669 254.5782495 123.54003906 252.34765625 C121.98984567 250.57339851 120.75624473 248.82581645 119.56884766 246.79418945 C119.10736328 246.08133789 118.64587891 245.36848633 118.17041016 244.6340332 C117.84814453 244.00625977 117.52587891 243.37848633 117.19384766 242.73168945 C112.95943967 234.76664549 108.66967055 226.74389265 103.56884766 219.29418945 C100.75971785 215.18969685 98.32207794 210.916656 95.88354492 206.58374023 C93.03231013 201.54444179 90.0397089 196.60066113 87.00634766 191.66918945 C83.35364047 185.72895964 79.76843566 179.76019285 76.27587891 173.72387695 C74.422326 170.54272209 72.53131949 167.38521496 70.63134766 164.23168945 C67.63856671 159.26379352 64.67011789 154.2820448 61.71728516 149.2902832 C61.37316086 148.70856857 61.02903656 148.12685394 60.67448425 147.5275116 C58.94966959 144.61136327 57.22623889 141.69441552 55.50463867 138.77636719 C51.53874533 132.06829416 47.50665835 125.40879898 43.39379883 118.7902832 C41.51189317 115.70068504 39.71763946 112.57191954 37.94384766 109.41918945 C34.41220618 103.16843996 30.69422263 97.04089848 26.94384766 90.91918945 C21.96422979 82.79020172 17.09675409 74.60580839 12.31884766 66.35668945 C8.41781171 59.62425645 4.47533531 52.93482619 0.31884766 46.35668945 C-1.26605908 43.83684187 -2.84915721 41.31586591 -4.43115234 38.79418945 C-4.89634277 38.05491211 -5.3615332 37.31563477 -5.84082031 36.55395508 C-7.28256976 34.24754133 -8.70264295 31.92897471 -10.11865234 29.60668945 C-10.56563477 28.89907471 -11.01261719 28.19145996 -11.47314453 27.46240234 C-14.42762073 22.56055022 -14.42762073 22.56055022 -14.44287109 19.2512207 C-13.06444204 15.90360729 -11.3859935 12.78451042 -9.55615234 9.66918945 C-9.20423828 9.04915039 -8.85232422 8.42911133 -8.48974609 7.7902832 C-3.79715204 -0.32145001 -3.79715204 -0.32145001 0 0 Z " fill="#FBFBFB" transform="translate(249.43115234375,80.205810546875)"/>
<path d="M0 0 C4.07964751 1.6152595 5.59265531 4.93180415 7.74609375 8.61328125 C8.19210938 9.32613281 8.638125 10.03898437 9.09765625 10.7734375 C11.52045459 14.77472566 13.35952985 18.20171656 13.49609375 22.98828125 C12.74609375 25.15625 12.74609375 25.15625 11.49609375 27.17578125 C11.02945313 27.94664063 10.5628125 28.7175 10.08203125 29.51171875 C9.55867187 30.32898438 9.0353125 31.14625 8.49609375 31.98828125 C7.95210937 32.84679687 7.408125 33.7053125 6.84765625 34.58984375 C5.67649231 36.42873012 4.500548 38.26457899 3.3203125 40.09765625 C0.83821077 44.03075106 -1.4868398 48.04723667 -3.8125 52.07421875 C-5.39029743 54.79254873 -7.00146552 57.48696613 -8.62890625 60.17578125 C-10.4444966 63.18583894 -12.19570241 66.21490755 -13.87890625 69.30078125 C-16.51146557 74.08953201 -19.39766475 78.70848457 -22.27734375 83.3515625 C-24.68427063 87.25772834 -27.00168056 91.2145028 -29.31640625 95.17578125 C-32.84991761 101.22061206 -36.45949806 107.21251664 -40.12890625 113.17578125 C-43.405611 118.5031352 -46.61536748 123.85496833 -49.69140625 129.30078125 C-54.2388342 137.33487809 -59.08940569 145.1697413 -64.01953125 152.97265625 C-68.23668599 159.65825434 -72.31760511 166.33567133 -76.03515625 173.31640625 C-78.2742393 177.38963179 -80.74665456 181.3105724 -83.19921875 185.2578125 C-85.84132699 189.51864469 -88.42513315 193.81389937 -91.00390625 198.11328125 C-91.75232788 199.36105347 -91.75232788 199.36105347 -92.51586914 200.6340332 C-96.5448799 207.36359704 -100.53990545 214.11311984 -104.53219604 220.86450195 C-109.62411542 229.47459219 -114.73018217 238.07468228 -119.94140625 246.61328125 C-120.39588135 247.35916504 -120.85035645 248.10504883 -121.31860352 248.87353516 C-124.37630613 253.86068113 -124.37630613 253.86068113 -125.50390625 254.98828125 C-127.35760236 255.0756577 -129.21458166 255.09526278 -131.0703125 255.0859375 C-132.19501953 255.08271484 -133.31972656 255.07949219 -134.47851562 255.07617188 C-135.66251953 255.06779297 -136.84652344 255.05941406 -138.06640625 255.05078125 C-139.25427734 255.04626953 -140.44214844 255.04175781 -141.66601562 255.03710938 C-144.61202851 255.025278 -147.55794306 255.00879412 -150.50390625 254.98828125 C-150.70835646 249.48939228 -149.36122184 246.18995809 -146.56640625 241.55078125 C-146.16252686 240.85774902 -145.75864746 240.1647168 -145.3425293 239.45068359 C-144.07684215 237.2880084 -142.79248405 235.1373819 -141.50390625 232.98828125 C-140.70679927 231.64597106 -139.90991746 230.30352713 -139.11328125 228.9609375 C-137.31335802 225.9392482 -135.49738639 222.92772447 -133.67236328 219.92114258 C-132.32006424 217.68416984 -130.98099446 215.43945257 -129.640625 213.1953125 C-127.02620366 208.83422818 -124.35229138 204.51319295 -121.65869141 200.20068359 C-117.1802844 193.0291537 -112.77124278 185.87816619 -108.828125 178.39453125 C-106.78378797 174.67974774 -104.45445417 171.15637716 -102.15234375 167.59765625 C-100.70329875 165.3039073 -99.36199612 162.99577537 -98.06640625 160.61328125 C-95.14805885 155.25825543 -91.91619734 150.10512361 -88.703125 144.92333984 C-79.91651796 130.77215604 -79.91651796 130.77215604 -71.7734375 116.24609375 C-70.57000186 114.10582975 -69.26785262 112.15385861 -67.81640625 110.17578125 C-65.49875168 107.16872942 -65.49875168 107.16872942 -64.1640625 104.27734375 C-62.21299273 100.41193023 -59.95509252 96.82304368 -57.62890625 93.17578125 C-54.55267359 88.30549278 -51.56514592 83.43397264 -48.828125 78.36328125 C-47.04786541 75.17036729 -45.14776667 72.05200827 -43.25390625 68.92578125 C-40.04683973 63.62595659 -36.95310872 58.27639099 -33.94140625 52.86328125 C-29.99087612 45.77503808 -25.80533597 38.87056881 -21.50390625 31.98828125 C-20.23130234 29.92687326 -18.96050169 27.86435107 -17.69140625 25.80078125 C-17.03914062 24.75148438 -16.386875 23.7021875 -15.71484375 22.62109375 C-13.99802427 19.83384288 -12.35876992 17.00777045 -10.73046875 14.16796875 C-10.24811768 13.34192139 -9.7657666 12.51587402 -9.26879883 11.66479492 C-8.31355967 10.02776967 -7.37279871 8.38219466 -6.44799805 6.7277832 C-3.23736348 1.27777373 -3.23736348 1.27777373 0 0 Z " fill="#FBFBFB" transform="translate(153.50390625,79.01171875)"/>
<path d="M0 0 C4.00483126 0.96668341 4.35961833 1.28271233 6.5625 4.5 C7.6118244 6.27513055 8.62892039 8.06945423 9.625 9.875 C10.29351525 11.04414772 10.9642044 12.21205429 11.63671875 13.37890625 C13.00619226 15.75854377 14.3556345 18.14607498 15.6953125 20.54296875 C16.95226744 22.7133788 18.27861893 24.84548743 19.6796875 26.92578125 C21.59402301 29.8280369 23.08787407 32.76050925 24.625 35.875 C25.89348892 38.01391646 27.18615253 40.138642 28.5 42.25 C28.85223633 42.81871826 29.20447266 43.38743652 29.56738281 43.97338867 C31.06993663 46.39627392 32.58423413 48.81107655 34.1171875 51.21484375 C35.31132531 53.08763752 36.47509057 54.97479505 37.625 56.875 C38.02976563 57.51695313 38.43453125 58.15890625 38.8515625 58.8203125 C41.37064628 63.19015172 42.22386841 66.5402088 41.34765625 71.55078125 C39.92042319 76.14107137 37.25707702 79.89246092 34.625 83.875 C33.81758683 85.16415277 33.01449274 86.45601685 32.21484375 87.75 C28.6249911 93.55892253 25.02216475 99.3484118 21.1875 105 C19.03626148 108.17216528 17.27204187 111.40754342 15.625 114.875 C15.295 115.205 14.965 115.535 14.625 115.875 C14.625 122.02353983 17.22411926 125.75447317 20.5859375 130.76953125 C22.80573965 134.15026441 24.82456181 137.60505548 26.8125 141.125 C27.44542969 142.24390625 28.07835937 143.3628125 28.73046875 144.515625 C29.35566406 145.62421875 29.98085937 146.7328125 30.625 147.875 C30.99705566 148.50470703 31.36911133 149.13441406 31.75244141 149.78320312 C34.625 154.66718407 34.625 154.66718407 34.625 156.875 C35.615 157.205 36.605 157.535 37.625 157.875 C38.57790802 159.71275118 39.51874366 161.55786477 40.39453125 163.43359375 C41.78335606 166.18919853 43.38389421 168.72358738 45.0625 171.3125 C47.6376649 175.29279734 50.03208307 179.30821381 52.30078125 183.46875 C53.93497829 186.43826438 55.6176926 189.37716347 57.3125 192.3125 C57.89386719 193.32183594 58.47523438 194.33117187 59.07421875 195.37109375 C60.52611157 197.92866506 60.52611157 197.92866506 62.625 199.875 C64.67455217 200.16283527 64.67455217 200.16283527 67.01953125 200.11328125 C67.89287109 200.12939453 68.76621094 200.14550781 69.66601562 200.16210938 C71.50188347 200.17892846 73.33789493 200.1842866 75.17382812 200.17773438 C79.52441046 200.2768292 81.89469348 200.33280273 85.4609375 202.98046875 C87.88849872 206.22744143 90.24700756 209.4635176 92.4375 212.875 C92.84419922 213.47828125 93.25089844 214.0815625 93.66992188 214.703125 C95.94187937 218.21606768 97.15931266 220.66429725 96.625 224.875 C93.64075868 226.60058171 91.61893623 227.08617575 88.1875 226.9375 C84.81641159 226.80265646 81.92417648 227.17699863 78.625 227.875 C78.98851562 228.47038574 79.35203125 229.06577148 79.7265625 229.67919922 C81.363946 232.36671233 82.99454413 235.05827894 84.625 237.75 C85.19734375 238.68714844 85.7696875 239.62429687 86.359375 240.58984375 C87.17148437 241.93369141 87.17148437 241.93369141 88 243.3046875 C88.50273437 244.13210449 89.00546875 244.95952148 89.5234375 245.81201172 C90.625 247.875 90.625 247.875 90.625 249.875 C91.29031738 249.82786865 91.95563477 249.7807373 92.64111328 249.73217773 C95.67661977 249.5442755 98.71090677 249.42783908 101.75 249.3125 C102.79671875 249.23708984 103.8434375 249.16167969 104.921875 249.08398438 C108.05512819 248.99474615 110.59923597 249.04021007 113.625 249.875 C116.39284688 252.53302509 117.95164531 255.45502897 119.625 258.875 C120.37592058 260.05458189 121.14421073 261.22348479 121.9375 262.375 C122.7728125 263.6125 122.7728125 263.6125 123.625 264.875 C123.955 265.205 124.285 265.535 124.625 265.875 C124.89814815 271.61111111 124.89814815 271.61111111 124.625 273.875 C121.77885976 276.72114024 118.82130858 276.33079076 115 276.5 C114.29359375 276.53867187 113.5871875 276.57734375 112.859375 276.6171875 C111.11501476 276.71147724 109.37004309 276.79432891 107.625 276.875 C110.8705211 282.32108275 114.15592679 287.73879513 117.5 293.125 C120.68191609 298.27667368 123.72340851 303.48899914 126.67944336 308.77319336 C128.80535333 312.54374481 131.12134097 316.11543669 133.5625 319.6875 C136.71892279 324.54076967 137.625 328.09853732 137.625 333.875 C135.05985165 336.44014835 128.4347451 335.35133078 125 335.4375 C123.91847656 335.50001953 122.83695312 335.56253906 121.72265625 335.62695312 C113.86036088 335.78535102 113.86036088 335.78535102 110.38671875 333.22558594 C108.57200566 331.19877587 107.06976976 329.17741433 105.625 326.875 C105.09390625 326.03195312 104.5628125 325.18890625 104.015625 324.3203125 C103.63921875 323.55460937 103.2628125 322.78890625 102.875 322 C100.24772005 316.9410886 97.36840468 312.09698119 94.375 307.25 C89.34523712 299.08828628 84.46088226 290.84907281 79.62182617 282.57324219 C77.85318462 279.56009729 76.04819524 276.56965661 74.23046875 273.5859375 C71.02794387 268.31015271 68.00718492 262.96906647 65.1171875 257.515625 C63.63833556 254.82265111 63.63833556 254.82265111 61.81640625 252.1640625 C58.95237814 247.86546773 56.32854113 243.4380042 53.6875 239 C49.35079662 231.72254874 49.35079662 231.72254874 44.8984375 224.515625 C43.24388744 221.88382221 41.66416991 219.23697792 40.1875 216.5 C37.90682673 212.32838876 35.45994645 208.27602172 32.95703125 204.234375 C31.625 201.875 31.625 201.875 30.63671875 199.203125 C29.73751689 196.5585454 29.73751689 196.5585454 26.625 194.875 C25.5546875 193.01953125 25.5546875 193.01953125 24.5 190.6875 C18.76566973 178.73522124 11.27529667 167.60077461 4.08203125 156.4921875 C3.62183594 155.77289063 3.16164062 155.05359375 2.6875 154.3125 C2.28660156 153.69246094 1.88570312 153.07242188 1.47265625 152.43359375 C0.625 150.875 0.625 150.875 0.625 148.875 C-0.035 148.875 -0.695 148.875 -1.375 148.875 C-1.72304688 149.85919922 -1.72304688 149.85919922 -2.078125 150.86328125 C-3.7744503 154.8026391 -5.92510053 158.38639493 -8.125 162.0625 C-8.57456055 162.81990479 -9.02412109 163.57730957 -9.48730469 164.35766602 C-10.77943724 166.5323837 -12.07630173 168.70419852 -13.375 170.875 C-13.9628125 171.85984375 -14.550625 172.8446875 -15.15625 173.859375 C-16.55802795 176.20064243 -17.96571894 178.53824337 -19.375 180.875 C-20.43788402 182.64560286 -21.50038192 184.41643757 -22.5625 186.1875 C-23.96875 188.53125 -23.96875 188.53125 -25.375 190.875 C-25.85066406 191.67164063 -26.32632813 192.46828125 -26.81640625 193.2890625 C-28.56277228 196.18654198 -30.34320238 199.06167864 -32.125 201.9375 C-35.37130029 207.19256069 -38.50350949 212.50521368 -41.59765625 217.8515625 C-43.45692687 221.01436571 -45.37688315 224.13339276 -47.3125 227.25 C-50.81968007 232.91700718 -54.1496899 238.66570816 -57.4375 244.4609375 C-62.03757308 252.56671144 -66.74137776 260.57104779 -71.796875 268.40234375 C-74.81706132 273.13446737 -77.6016194 277.99551834 -80.375 282.875 C-84.2833394 289.75132646 -88.36875219 296.50633493 -92.5 303.25 C-96.5012503 309.78499716 -100.47258183 316.33644908 -104.38134766 322.92724609 C-110.21211378 332.71211378 -110.21211378 332.71211378 -112.375 334.875 C-114.21659023 334.97459621 -116.06196967 335.00580411 -117.90625 335.0078125 C-119.02644531 335.00910156 -120.14664063 335.01039063 -121.30078125 335.01171875 C-122.48027344 335.00785156 -123.65976563 335.00398438 -124.875 335 C-126.64423828 335.00580078 -126.64423828 335.00580078 -128.44921875 335.01171875 C-130.12951172 335.00978516 -130.12951172 335.00978516 -131.84375 335.0078125 C-132.87951172 335.00668457 -133.91527344 335.00555664 -134.98242188 335.00439453 C-137.375 334.875 -137.375 334.875 -138.375 333.875 C-139.05321859 328.25426342 -137.16758531 324.95720068 -134.375 320.3125 C-133.96854248 319.61431152 -133.56208496 318.91612305 -133.14331055 318.19677734 C-131.90343936 316.07933655 -130.64391179 313.97514677 -129.375 311.875 C-128.82320068 310.96113525 -128.82320068 310.96113525 -128.26025391 310.02880859 C-126.59973536 307.29207079 -124.9188955 304.5687346 -123.2265625 301.8515625 C-120.5557414 297.55796402 -117.96633955 293.21683146 -115.375 288.875 C-114.6325 287.64716797 -114.6325 287.64716797 -113.875 286.39453125 C-112.43348422 283.97323521 -111.04967825 281.5291471 -109.6875 279.0625 C-109.25050781 278.27230469 -108.81351563 277.48210937 -108.36328125 276.66796875 C-108.03714844 276.07628906 -107.71101563 275.48460937 -107.375 274.875 C-109.07269531 275.01808594 -109.07269531 275.01808594 -110.8046875 275.1640625 C-112.28641612 275.27659885 -113.76818945 275.38854758 -115.25 275.5 C-115.99636719 275.56445312 -116.74273437 275.62890625 -117.51171875 275.6953125 C-119.4620047 275.83587365 -121.41969467 275.86259849 -123.375 275.875 C-125.375 273.875 -125.375 273.875 -125.703125 271.08984375 C-125.31910309 267.32734335 -124.26194046 265.53067642 -122.125 262.4375 C-119.58776461 258.88774396 -119.58776461 258.88774396 -117.67871094 255.0012207 C-116.79876536 252.81943401 -116.10276888 251.48808172 -114.375 249.875 C-110.30065572 248.84323086 -106.30987963 248.89623379 -102.125 248.9375 C-100.43503906 248.91333008 -100.43503906 248.91333008 -98.7109375 248.88867188 C-95.93106057 248.85333446 -93.15488176 248.84994173 -90.375 248.875 C-90.106875 247.9675 -89.83875 247.06 -89.5625 246.125 C-88.45650748 243.0980731 -87.36165415 241.34694371 -85.375 238.875 C-84.49529327 237.3687959 -83.64101421 235.84745893 -82.8125 234.3125 C-81.41621433 231.73306884 -80.00579834 229.32119751 -78.375 226.875 C-79.33921875 226.89820313 -80.3034375 226.92140625 -81.296875 226.9453125 C-82.56015625 226.96335938 -83.8234375 226.98140625 -85.125 227 C-86.37796875 227.02320313 -87.6309375 227.04640625 -88.921875 227.0703125 C-92.10320492 226.89037302 -93.74021896 226.56498582 -96.375 224.875 C-97.10423608 218.85169941 -94.74251275 215.45472729 -91.5625 210.625 C-91.11068359 209.90570313 -90.65886719 209.18640625 -90.19335938 208.4453125 C-88.06334451 205.12435502 -86.72124533 203.10583022 -83.375 200.875 C-81.2019043 200.71484375 -81.2019043 200.71484375 -78.69921875 200.8125 C-68.71403439 201.43691544 -68.71403439 201.43691544 -59.8671875 197.90625 C-58.38601957 195.28385432 -57.38609916 192.7084755 -56.375 189.875 C-55.33643013 188.24149627 -54.25360442 186.6351455 -53.125 185.0625 C-51.58355364 182.85392228 -50.38844753 180.9086454 -49.38671875 178.40234375 C-48.32455047 175.74897358 -47.02081486 173.62690788 -45.4375 171.25 C-42.0941034 166.09559691 -38.99547379 160.82818408 -35.9375 155.5 C-32.07481927 148.7761968 -28.13003857 142.12143906 -24.03125 135.5390625 C-22.90454852 133.7267738 -21.82236265 131.88621259 -20.78125 130.0234375 C-20.3171875 129.31445312 -19.853125 128.60546875 -19.375 127.875 C-18.715 127.875 -18.055 127.875 -17.375 127.875 C-17.1584375 126.6684375 -17.1584375 126.6684375 -16.9375 125.4375 C-16.375 122.875 -16.375 122.875 -15.375 121.875 C-14.94478218 117.14260401 -15.672854 114.73520857 -18.375 110.875 C-21.27963992 106.56507882 -23.95761115 102.21510815 -26.5 97.6875 C-28.95781952 93.33644789 -31.46527374 89.03671269 -34.1484375 84.8203125 C-42.61341958 71.39495875 -42.61341958 71.39495875 -42.125 66.4375 C-42.05796875 65.65503906 -41.9909375 64.87257812 -41.921875 64.06640625 C-41.26393268 61.42993738 -40.30301184 60.74333528 -38.375 58.875 C-37.33520794 56.89539588 -36.34137168 54.89146368 -35.375 52.875 C-31.02750206 44.75308339 -26.42650782 36.78946272 -21.3984375 29.0703125 C-18.02449895 23.74235549 -14.83593347 18.30096083 -11.63745117 12.86621094 C-4.72640479 1.2253642 -4.72640479 1.2253642 0 0 Z M-1.375 3.875 C-2.035 5.525 -2.695 7.175 -3.375 8.875 C-4.035 8.875 -4.695 8.875 -5.375 8.875 C-6.035 9.968125 -6.695 11.06125 -7.375 12.1875 C-7.74625 12.80238281 -8.1175 13.41726563 -8.5 14.05078125 C-9.59123999 15.98861926 -9.59123999 15.98861926 -9.375 18.875 C-10.035 18.875 -10.695 18.875 -11.375 18.875 C-11.65907715 19.4006958 -11.9431543 19.9263916 -12.23583984 20.46801758 C-16.13375819 27.59193332 -20.41473168 34.44877913 -24.734375 41.32226562 C-27.50602191 45.76012352 -30.09205094 50.16067485 -32.375 54.875 C-33.20889284 56.22110594 -34.06105169 57.5562063 -34.9375 58.875 C-37.99897146 63.55070739 -37.99897146 63.55070739 -39.375 68.875 C-37.79164967 72.81676726 -35.88308887 76.44318609 -33.375 79.875 C-31.89 80.37 -31.89 80.37 -30.375 80.875 C-29.66271856 82.85921259 -29.00984067 84.86467123 -28.375 86.875 C-26.78622971 90.24862299 -25.0895147 93.56376169 -23.375 96.875 C-22.715 96.875 -22.055 96.875 -21.375 96.875 C-21.11847656 97.75285156 -20.86195313 98.63070312 -20.59765625 99.53515625 C-19.36354242 102.90629786 -17.85453673 105.37520708 -15.8125 108.3125 C-11.08428973 115.64221509 -11.08428973 115.64221509 -11.375 120.875 C-12.92155616 125.6847087 -14.75562325 129.35213997 -18.375 132.875 C-20.62092041 136.66245238 -20.62092041 136.66245238 -21.375 140.875 C-22.035 140.875 -22.695 140.875 -23.375 140.875 C-24.035 141.968125 -24.695 143.06125 -25.375 144.1875 C-25.74625 144.80238281 -26.1175 145.41726562 -26.5 146.05078125 C-27.59123999 147.98861926 -27.59123999 147.98861926 -27.375 150.875 C-28.035 150.875 -28.695 150.875 -29.375 150.875 C-31.21515498 154.1628978 -33.04595047 157.45591326 -34.875 160.75 C-35.39964844 161.68714844 -35.92429687 162.62429687 -36.46484375 163.58984375 C-37.20927734 164.93369141 -37.20927734 164.93369141 -37.96875 166.3046875 C-38.42958984 167.13210449 -38.89042969 167.95952148 -39.36523438 168.81201172 C-40.52154317 170.79158375 -40.52154317 170.79158375 -40.375 172.875 C-41.035 172.875 -41.695 172.875 -42.375 172.875 C-43.365 175.845 -43.365 175.845 -44.375 178.875 C-45.035 178.875 -45.695 178.875 -46.375 178.875 C-46.6225 179.56464844 -46.87 180.25429687 -47.125 180.96484375 C-48.58050767 184.35344755 -50.40874871 187.31824474 -52.375 190.4375 C-55.106514 194.73239371 -55.106514 194.73239371 -57.5 199.21484375 C-58.375 200.875 -58.375 200.875 -60.375 201.875 C-60.375 202.535 -60.375 203.195 -60.375 203.875 C-60.99020508 203.85405273 -61.60541016 203.83310547 -62.23925781 203.81152344 C-65.03433809 203.72822983 -67.82915715 203.67629987 -70.625 203.625 C-72.07712891 203.57472656 -72.07712891 203.57472656 -73.55859375 203.5234375 C-79.06261919 203.33626226 -79.06261919 203.33626226 -83.875 205.63671875 C-84.37 206.37535156 -84.865 207.11398438 -85.375 207.875 C-85.86484375 208.54660156 -86.3546875 209.21820313 -86.859375 209.91015625 C-87.27703125 210.57917969 -87.6946875 211.24820313 -88.125 211.9375 C-88.55296875 212.60910156 -88.9809375 213.28070313 -89.421875 213.97265625 C-90.59897389 215.96740333 -90.59897389 215.96740333 -90.375 218.875 C-91.035 218.875 -91.695 218.875 -92.375 218.875 C-92.705 220.195 -93.035 221.515 -93.375 222.875 C-89.28496141 224.02482602 -85.34322949 223.98594256 -81.125 223.9375 C-80.00738281 223.93073242 -80.00738281 223.93073242 -78.8671875 223.92382812 C-77.0364236 223.91209246 -75.20570127 223.8941585 -73.375 223.875 C-73.65214844 224.39449219 -73.92929688 224.91398438 -74.21484375 225.44921875 C-76.18233267 229.23716005 -77.83837389 232.58199113 -78.375 236.875 C-79.365 237.205 -80.355 237.535 -81.375 237.875 C-82.44901615 239.83624688 -83.43557514 241.84584231 -84.375 243.875 C-87.93853591 250.65676796 -87.93853591 250.65676796 -90.375 251.875 C-92.04065749 252.02722973 -93.71156496 252.12417215 -95.3828125 252.19140625 C-96.36894531 252.23330078 -97.35507813 252.27519531 -98.37109375 252.31835938 C-99.40363281 252.35767578 -100.43617187 252.39699219 -101.5 252.4375 C-103.06041016 252.50227539 -103.06041016 252.50227539 -104.65234375 252.56835938 C-107.22642528 252.6746288 -109.80060508 252.77666583 -112.375 252.875 C-113.04654933 254.16413487 -113.71208859 255.45640204 -114.375 256.75 C-114.931875 257.82894531 -114.931875 257.82894531 -115.5 258.9296875 C-116.51173746 260.82348977 -116.51173746 260.82348977 -116.375 262.875 C-117.035 262.875 -117.695 262.875 -118.375 262.875 C-119.3959375 264.5146875 -119.3959375 264.5146875 -120.4375 266.1875 C-121.01177734 267.10982422 -121.01177734 267.10982422 -121.59765625 268.05078125 C-122.68612074 270.04633075 -122.68612074 270.04633075 -121.375 272.875 C-120.49457031 272.86339844 -119.61414063 272.85179687 -118.70703125 272.83984375 C-116.96486328 272.82630859 -116.96486328 272.82630859 -115.1875 272.8125 C-114.03894531 272.80089844 -112.89039062 272.78929687 -111.70703125 272.77734375 C-108.78199414 272.86307168 -106.21183709 273.19650977 -103.375 273.875 C-103.8803125 274.93460937 -104.385625 275.99421875 -104.90625 277.0859375 C-105.56270131 278.47386314 -106.21894033 279.86188919 -106.875 281.25 C-107.37580078 282.29800781 -107.37580078 282.29800781 -107.88671875 283.3671875 C-109.72709398 286.96327999 -109.72709398 286.96327999 -110.375 290.875 C-111.365 291.205 -112.355 291.535 -113.375 291.875 C-115.29291585 294.54379418 -115.29291585 294.54379418 -117.0625 297.75 C-117.68511719 298.81992187 -118.30773437 299.88984375 -118.94921875 300.9921875 C-120.59666135 303.7871602 -120.59666135 303.7871602 -120.375 306.875 C-121.035 306.875 -121.695 306.875 -122.375 306.875 C-124.5763866 310.67927492 -124.5763866 310.67927492 -125.375 314.875 C-126.035 314.875 -126.695 314.875 -127.375 314.875 C-128.71338733 317.33070175 -130.04586232 319.78929916 -131.375 322.25 C-131.7565625 322.94867188 -132.138125 323.64734375 -132.53125 324.3671875 C-134.63224744 327.9178946 -134.63224744 327.9178946 -135.375 331.875 C-130.05838713 332.28936431 -124.75527766 332.52920154 -119.421875 332.42578125 C-118.54885742 332.41200439 -117.67583984 332.39822754 -116.77636719 332.3840332 C-113.69260645 331.73034866 -112.51370793 330.50285199 -110.5 328.125 C-109.74703665 326.3937339 -109.04276858 324.6408769 -108.375 322.875 C-107.15353505 320.73347055 -105.90247234 318.60859892 -104.625 316.5 C-104.05265625 315.50226563 -103.4803125 314.50453125 -102.890625 313.4765625 C-101.78092447 311.57176726 -100.59781896 309.70922844 -99.375 307.875 C-99.375 306.885 -99.375 305.895 -99.375 304.875 C-98.715 304.875 -98.055 304.875 -97.375 304.875 C-95.68489615 302.40508717 -95.68489615 302.40508717 -94 299.3125 C-93.37480469 298.2090625 -92.74960938 297.105625 -92.10546875 295.96875 C-91.53441406 294.9478125 -90.96335938 293.926875 -90.375 292.875 C-89.68889458 291.6866937 -89.0017188 290.49900324 -88.3125 289.3125 C-86.57662985 286.23273037 -84.84222419 283.15270298 -83.125 280.0625 C-82.60421875 279.12792969 -82.0834375 278.19335938 -81.546875 277.23046875 C-80.22652301 275.01504107 -80.22652301 275.01504107 -80.375 272.875 C-79.385 272.545 -78.395 272.215 -77.375 271.875 C-75.71770145 269.46725582 -75.71770145 269.46725582 -74.25 266.5625 C-73.47269531 265.11423828 -73.47269531 265.11423828 -72.6796875 263.63671875 C-71.59335599 261.33720864 -70.85822889 259.35596786 -70.375 256.875 C-69.715 256.875 -69.055 256.875 -68.375 256.875 C-68.0346875 256.24335938 -67.694375 255.61171875 -67.34375 254.9609375 C-61.23862722 243.69243961 -54.88318439 232.62740036 -48.140625 221.73046875 C-43.98513819 215.71796465 -43.98513819 215.71796465 -42.375 208.875 C-41.715 208.875 -41.055 208.875 -40.375 208.875 C-39.03641476 206.58625827 -37.70398986 204.29430344 -36.375 202 C-35.9934375 201.34902344 -35.611875 200.69804687 -35.21875 200.02734375 C-33.09948844 196.67149799 -33.09948844 196.67149799 -32.375 192.875 C-31.385 192.545 -30.395 192.215 -29.375 191.875 C-28.41153676 190.05130172 -27.4632146 188.21824986 -26.5859375 186.3515625 C-24.4550105 181.99347308 -21.91920287 177.86621708 -19.44921875 173.69384766 C-18.25245013 171.66750079 -17.06334695 169.63676546 -15.875 167.60546875 C-15.00007818 166.11193337 -14.1250786 164.61844353 -13.25 163.125 C-12.63874268 162.08001343 -12.63874268 162.08001343 -12.01513672 161.01391602 C-9.53377638 156.78939754 -6.97179637 152.63578983 -4.29736328 148.53027344 C-3.21274722 146.89963945 -3.21274722 146.89963945 -3.375 144.875 C-1.395 144.875 0.585 144.875 2.625 144.875 C2.89054688 145.58011719 3.15609375 146.28523437 3.4296875 147.01171875 C4.68998967 150.03067786 6.16457994 152.82685076 7.75 155.6875 C8.28882813 156.66332031 8.82765625 157.63914063 9.3828125 158.64453125 C9.79273438 159.38058594 10.20265625 160.11664063 10.625 160.875 C11.285 160.875 11.945 160.875 12.625 160.875 C12.851875 161.7 13.07875 162.525 13.3125 163.375 C14.67206178 167.00049809 16.39760339 169.91554407 18.50390625 173.140625 C19.625 174.875 19.625 174.875 20.625 176.875 C21.285 176.875 21.945 176.875 22.625 176.875 C22.686875 177.535 22.74875 178.195 22.8125 178.875 C23.77686609 182.43573634 25.43100553 184.96304315 27.46875 188.0078125 C28.625 189.875 28.625 189.875 29.625 192.875 C30.23859375 193.46796875 30.8521875 194.0609375 31.484375 194.671875 C34.0147435 197.27612287 35.31170993 199.85630258 36.875 203.125 C37.39578125 204.20265625 37.9165625 205.2803125 38.453125 206.390625 C38.83984375 207.21046875 39.2265625 208.0303125 39.625 208.875 C40.285 208.875 40.945 208.875 41.625 208.875 C41.74447998 209.45000244 41.86395996 210.02500488 41.98706055 210.61743164 C42.66261405 213.00811028 43.59576251 214.84460376 44.83203125 216.99609375 C45.2801416 217.78226074 45.72825195 218.56842773 46.18994141 219.37841797 C46.66351074 220.20229004 47.13708008 221.02616211 47.625 221.875 C48.56681801 223.55315439 49.5082214 225.23154154 50.44921875 226.91015625 C51.40279773 228.58642025 52.35722817 230.26220015 53.3125 231.9375 C53.79783203 232.80310547 54.28316406 233.66871094 54.78320312 234.56054688 C55.48413086 235.78547852 55.48413086 235.78547852 56.19921875 237.03515625 C56.82703247 238.14322632 56.82703247 238.14322632 57.4675293 239.27368164 C57.84949463 239.8021167 58.23145996 240.33055176 58.625 240.875 C59.285 240.875 59.945 240.875 60.625 240.875 C60.7075 241.596875 60.79 242.31875 60.875 243.0625 C61.44601585 245.97005026 61.44601585 245.97005026 63.46875 248.15625 C65.75571051 251.03980891 67.27528081 253.87898985 68.875 257.1875 C69.65617187 258.79044922 69.65617187 258.79044922 70.453125 260.42578125 C71.03320312 261.63814453 71.03320312 261.63814453 71.625 262.875 C72.285 262.875 72.945 262.875 73.625 262.875 C73.8725 263.74125 74.12 264.6075 74.375 265.5 C75.45982959 268.4290399 76.7058825 270.50423785 78.44775391 273.05029297 C80.84724584 276.76945571 82.84632855 280.72722215 84.9375 284.625 C88.36806626 290.95242546 91.88096259 297.00234276 96.15234375 302.80859375 C98.64718584 306.30931382 100.58887138 310.09608332 102.625 313.875 C103.96469227 316.32075012 105.32291514 318.75556658 106.6875 321.1875 C107.01613037 321.7865918 107.34476074 322.38568359 107.68334961 323.00292969 C110.46129094 328.06605445 110.46129094 328.06605445 114.625 331.875 C118.05687002 332.35138289 121.41910039 332.25084508 124.875 332.125 C125.81085938 332.10695313 126.74671875 332.08890625 127.7109375 332.0703125 C130.01667015 332.02325673 132.32030945 331.95753713 134.625 331.875 C132.91348158 326.0459869 130.8890087 321.25174904 127.4375 316.1875 C124.22738353 311.38551394 121.20427372 306.5363928 118.375 301.5 C115.95903268 297.20918107 113.49145944 292.97379497 110.8515625 288.81640625 C109.33356443 286.41371504 107.85005254 283.9917927 106.375 281.5625 C105.87484375 280.74136719 105.3746875 279.92023438 104.859375 279.07421875 C103.625 276.875 103.625 276.875 102.625 273.875 C108.565 273.545 114.505 273.215 120.625 272.875 C120.955 271.225 121.285 269.575 121.625 267.875 C119.9953946 265.52132262 119.9953946 265.52132262 117.625 262.875 C117.25689209 262.07553955 116.88878418 261.2760791 116.50952148 260.45239258 C115.12873487 257.52032223 113.82435141 255.26564543 111.625 252.875 C107.48634189 251.50135703 103.57709201 251.60729261 99.25 251.75 C97.57357422 251.74613281 97.57357422 251.74613281 95.86328125 251.7421875 C93.11375933 251.7421875 90.37291012 251.78779507 87.625 251.875 C87.19695068 250.76088745 87.19695068 250.76088745 86.76025391 249.62426758 C85.78307964 247.25782469 84.72468255 245.10729934 83.4609375 242.88671875 C83.06132812 242.18095703 82.66171875 241.47519531 82.25 240.74804688 C81.8375 240.02681641 81.425 239.30558594 81 238.5625 C80.57976562 237.82193359 80.15953125 237.08136719 79.7265625 236.31835938 C78.69551505 234.50230989 77.66063954 232.68843467 76.625 230.875 C75.965 230.875 75.305 230.875 74.625 230.875 C73.635 227.41 73.635 227.41 72.625 223.875 C73.88957031 223.89820313 75.15414062 223.92140625 76.45703125 223.9453125 C78.1171816 223.96407126 79.77733833 223.98227135 81.4375 224 C82.68756836 224.02513672 82.68756836 224.02513672 83.96289062 224.05078125 C85.16655273 224.06044922 85.16655273 224.06044922 86.39453125 224.0703125 C87.50211792 224.08602295 87.50211792 224.08602295 88.63208008 224.10205078 C90.94390676 223.99241479 90.94390676 223.99241479 93.625 221.875 C92.50868586 220.03636495 91.38170373 218.20420277 90.25 216.375 C89.62351562 215.3540625 88.99703125 214.333125 88.3515625 213.28125 C87.78179687 212.4871875 87.21203125 211.693125 86.625 210.875 C85.965 210.875 85.305 210.875 84.625 210.875 C84.4703125 209.9778125 84.4703125 209.9778125 84.3125 209.0625 C83.49927092 206.47495291 82.75168991 205.54211985 80.625 203.875 C78.30728031 203.46266625 78.30728031 203.46266625 75.73828125 203.58203125 C74.3315918 203.5965332 74.3315918 203.5965332 72.89648438 203.61132812 C71.92001953 203.63646484 70.94355469 203.66160156 69.9375 203.6875 C68.94943359 203.70103516 67.96136719 203.71457031 66.94335938 203.72851562 C64.50335769 203.76387797 62.06445281 203.81322967 59.625 203.875 C59.625 203.215 59.625 202.555 59.625 201.875 C58.965 201.875 58.305 201.875 57.625 201.875 C57.398125 201.235625 57.17125 200.59625 56.9375 199.9375 C55.1378142 195.73823313 52.87594809 191.84613285 50.625 187.875 C49.68598382 186.18834322 48.74841932 184.50087719 47.8125 182.8125 C47.39355469 182.05839844 46.97460938 181.30429688 46.54296875 180.52734375 C46.24003906 179.98207031 45.93710938 179.43679687 45.625 178.875 C44.965 178.875 44.305 178.875 43.625 178.875 C43.5321875 178.34003906 43.439375 177.80507812 43.34375 177.25390625 C42.39586275 174.11660551 40.81928233 171.61431524 39.125 168.8125 C35.72576336 163.17729008 35.72576336 163.17729008 34.625 159.875 C33.63203173 158.86801737 32.63134901 157.86861042 31.625 156.875 C30.81030432 155.57486039 30.0444083 154.24331763 29.3203125 152.890625 C28.90136719 152.11976563 28.48242188 151.34890625 28.05078125 150.5546875 C27.62152344 149.75289062 27.19226563 148.95109375 26.75 148.125 C24.00893764 143.01170324 21.21075809 138.15628554 17.76757812 133.48339844 C13.38289394 127.31111224 9.57637515 120.56491554 10.625 112.875 C11.615 112.545 12.605 112.215 13.625 111.875 C14.7555353 110.1833856 14.7555353 110.1833856 15.625 108.125 C16.7851165 105.63521151 17.94149906 103.35503725 19.375 101 C20.79400671 98.99858616 20.79400671 98.99858616 20.625 96.875 C21.285 96.875 21.945 96.875 22.625 96.875 C23.96358524 94.58625827 25.29601014 92.29430344 26.625 90 C27.0065625 89.34902344 27.388125 88.69804688 27.78125 88.02734375 C29.90051156 84.67149799 29.90051156 84.67149799 30.625 80.875 C31.285 80.875 31.945 80.875 32.625 80.875 C37.07903173 74.03292511 37.07903173 74.03292511 38.49609375 66.25 C37.03702805 61.72766024 34.69275455 58.484123 31.625 54.875 C29.86450294 51.92588709 28.2568153 48.89668953 26.625 45.875 C25.3031002 43.53493789 23.96378065 41.20547003 22.625 38.875 C21.965 38.875 21.305 38.875 20.625 38.875 C20.274375 37.616875 19.92375 36.35875 19.5625 35.0625 C17.59872173 29.13340023 14.44871837 23.80437188 10.625 18.875 C9.965 18.875 9.305 18.875 8.625 18.875 C8.51929688 18.15957031 8.41359375 17.44414062 8.3046875 16.70703125 C7.55423616 13.58015065 6.39247765 11.32039157 4.75 8.5625 C4.23695313 7.67949219 3.72390625 6.79648438 3.1953125 5.88671875 C2.67710937 5.22285156 2.15890625 4.55898437 1.625 3.875 C0.635 3.875 -0.355 3.875 -1.375 3.875 Z " fill="#22402F" transform="translate(201.375,0.125)"/>
<path d="M0 0 C0.92811996 -0.00860046 1.85623993 -0.01720093 2.81248474 -0.02606201 C3.83896622 -0.03032196 4.86544769 -0.03458191 5.92303467 -0.03897095 C6.99779556 -0.04714844 8.07255646 -0.05532593 9.17988586 -0.06375122 C12.75409376 -0.08866369 16.32826178 -0.10513652 19.90252686 -0.11953735 C21.11998344 -0.12486103 22.33744003 -0.13018471 23.59178925 -0.13566971 C30.03601961 -0.16242719 36.48023042 -0.18179346 42.92449951 -0.19619751 C49.5908265 -0.21161938 56.25659183 -0.25762283 62.92274857 -0.30856895 C68.0390888 -0.34218154 73.15531098 -0.35376849 78.2717514 -0.35942459 C80.72939579 -0.366154 83.18703197 -0.38141952 85.6445694 -0.4053154 C89.08285556 -0.43683876 92.51979894 -0.43702225 95.95819092 -0.42959595 C96.97657547 -0.44600128 97.99496002 -0.46240662 99.04420471 -0.47930908 C105.97114356 -0.41797029 105.97114356 -0.41797029 109.7883606 2.57952881 C110.41900421 3.42907135 111.04964783 4.27861389 111.69940186 5.15390015 C112.13429932 5.73913452 112.56919678 6.3243689 113.01727295 6.92733765 C114.05182169 8.66127729 115.0738313 10.40009109 116.07440186 12.15390015 C116.44178467 12.7571814 116.80916748 13.36046265 117.18768311 13.98202515 C118.83897014 16.84841019 119.73347461 18.68950112 119.48846436 22.02890015 C118.69940186 24.15390015 118.69940186 24.15390015 117.69940186 25.15390015 C115.99577691 25.25447356 114.28796361 25.28466416 112.58137512 25.28761292 C110.9176461 25.29401039 110.9176461 25.29401039 109.2203064 25.30053711 C107.99274628 25.30008392 106.76518616 25.29963074 105.50042725 25.29916382 C103.57382011 25.30420174 103.57382011 25.30420174 101.60829163 25.30934143 C98.07526665 25.31820188 94.54226586 25.3205204 91.00923085 25.32115722 C88.06425259 25.32210465 85.11928003 25.32578103 82.17430395 25.32932931 C75.22864682 25.33748166 68.28300267 25.33991284 61.33734131 25.33920288 C54.16245058 25.33860189 46.98763498 25.34915611 39.81276327 25.36494654 C33.66159143 25.37800373 27.5104442 25.38338755 21.35925859 25.38274747 C17.68153174 25.38249194 14.00387162 25.38537313 10.32615852 25.39592552 C6.2266434 25.4073663 2.12729758 25.4028709 -1.972229 25.39682007 C-3.81053284 25.40524933 -3.81053284 25.40524933 -5.68597412 25.41384888 C-7.35393288 25.40755714 -7.35393288 25.40755714 -9.05558777 25.40113831 C-10.02585876 25.40168307 -10.99612974 25.40222784 -11.99580288 25.40278912 C-14.30059814 25.15390015 -14.30059814 25.15390015 -16.30059814 23.15390015 C-16.16356382 17.44128191 -13.32804687 13.46246424 -10.30059814 8.84140015 C-9.83653564 8.11372437 -9.37247314 7.38604858 -8.89434814 6.63632202 C-4.65971071 0.03201103 -4.65971071 0.03201103 0 0 Z " fill="#FDFDFE" transform="translate(149.30059814453125,249.84609985351563)"/>
<path d="M0 0 C3.1002855 0.95848971 3.64738642 1.71853432 5.22509766 4.4934082 C5.68384277 5.27989746 6.14258789 6.06638672 6.61523438 6.87670898 C7.09492676 7.73635254 7.57461914 8.59599609 8.06884766 9.48168945 C8.5807666 10.36711426 9.09268555 11.25253906 9.62011719 12.16479492 C10.71361 14.05614352 11.80082252 15.95113445 12.88232422 17.84936523 C15.68204638 22.73793627 18.56909994 27.57450671 21.44384766 32.41918945 C22.48329285 34.18198468 23.52236778 35.94499831 24.56103516 37.70825195 C26.61837057 41.19128764 28.68007656 44.67163452 30.75244141 48.14575195 C31.21706787 48.92515137 31.68169434 49.70455078 32.16040039 50.50756836 C34.06755889 53.60384961 36.10386113 56.60230807 38.17431641 59.59106445 C39.56884766 61.79418945 39.56884766 61.79418945 40.90478516 64.48950195 C43.05940134 68.76838762 45.52425459 72.82389562 48.00634766 76.91918945 C49.08843797 78.71342467 50.17046753 80.50769652 51.25244141 82.30200195 C52.07977783 83.67146973 52.07977783 83.67146973 52.92382812 85.06860352 C55.48085043 89.30526084 58.0245982 93.54985387 60.56884766 97.79418945 C63.62483543 102.88950962 66.6823812 107.98387853 69.74462891 113.07543945 C74.43160304 120.87159445 79.10125867 128.67364374 83.66259766 136.54418945 C86.78374252 141.86548561 89.97452257 147.14499471 93.15551758 152.43066406 C95.93405881 157.05252167 98.68419404 161.68689978 101.38134766 166.35668945 C104.10570914 171.06300735 107.00623063 175.63546076 109.94775391 180.20825195 C111.86576442 183.26782534 113.60861236 186.39918726 115.33837891 189.56762695 C118.96675469 196.13325932 122.97948582 202.44755886 127.06884766 208.73168945 C130.35832513 213.78916718 133.33813459 218.92784256 136.16259766 224.26293945 C138.00454404 227.57844294 140.11557683 230.67056332 142.25634766 233.7980957 C143.93748581 236.35482664 145.25209398 239.035277 146.56884766 241.79418945 C147.12572266 242.59856445 147.68259766 243.40293945 148.25634766 244.23168945 C149.94845238 247.53532248 149.65888583 250.12834943 149.56884766 253.79418945 C145.69463065 253.99835539 141.82180173 254.12210482 137.94384766 254.23168945 C136.30222656 254.31966797 136.30222656 254.31966797 134.62744141 254.40942383 C126.66851669 254.5782495 126.66851669 254.5782495 123.54003906 252.34765625 C121.98984567 250.57339851 120.75624473 248.82581645 119.56884766 246.79418945 C119.10736328 246.08133789 118.64587891 245.36848633 118.17041016 244.6340332 C117.84814453 244.00625977 117.52587891 243.37848633 117.19384766 242.73168945 C112.95943967 234.76664549 108.66967055 226.74389265 103.56884766 219.29418945 C100.75971785 215.18969685 98.32207794 210.916656 95.88354492 206.58374023 C93.03231013 201.54444179 90.0397089 196.60066113 87.00634766 191.66918945 C83.35364047 185.72895964 79.76843566 179.76019285 76.27587891 173.72387695 C74.422326 170.54272209 72.53131949 167.38521496 70.63134766 164.23168945 C67.63856671 159.26379352 64.67011789 154.2820448 61.71728516 149.2902832 C61.37316086 148.70856857 61.02903656 148.12685394 60.67448425 147.5275116 C58.94966959 144.61136327 57.22623889 141.69441552 55.50463867 138.77636719 C51.53874533 132.06829416 47.50665835 125.40879898 43.39379883 118.7902832 C41.51189317 115.70068504 39.71763946 112.57191954 37.94384766 109.41918945 C34.41220618 103.16843996 30.69422263 97.04089848 26.94384766 90.91918945 C21.96422979 82.79020172 17.09675409 74.60580839 12.31884766 66.35668945 C8.41781171 59.62425645 4.47533531 52.93482619 0.31884766 46.35668945 C-1.26605908 43.83684187 -2.84915721 41.31586591 -4.43115234 38.79418945 C-4.89634277 38.05491211 -5.3615332 37.31563477 -5.84082031 36.55395508 C-7.28256976 34.24754133 -8.70264295 31.92897471 -10.11865234 29.60668945 C-10.56563477 28.89907471 -11.01261719 28.19145996 -11.47314453 27.46240234 C-14.42762073 22.56055022 -14.42762073 22.56055022 -14.44287109 19.2512207 C-13.06444204 15.90360729 -11.3859935 12.78451042 -9.55615234 9.66918945 C-9.20423828 9.04915039 -8.85232422 8.42911133 -8.48974609 7.7902832 C-3.79715204 -0.32145001 -3.79715204 -0.32145001 0 0 Z M-1.43115234 1.79418945 C-3.16946037 4.50532436 -4.86603845 7.24029782 -6.55615234 9.98168945 C-7.04986328 10.75061523 -7.54357422 11.51954102 -8.05224609 12.31176758 C-8.73867187 13.43808594 -8.73867187 13.43808594 -9.43896484 14.5871582 C-10.08309326 15.61619263 -10.08309326 15.61619263 -10.74023438 16.66601562 C-11.94447549 20.37533359 -9.85382096 22.96153557 -8.17822266 26.26245117 C-4.34404875 33.25130843 -0.31034676 40.10110612 3.81884766 46.91918945 C5.15668771 49.13757744 6.49392671 51.35632801 7.83056641 53.57543945 C8.79615479 55.17838867 8.79615479 55.17838867 9.78125 56.8137207 C12.09198542 60.66641915 14.36647287 64.53941875 16.63134766 68.41918945 C21.11885808 76.09559208 25.7510539 83.68139597 30.38623047 91.26928711 C34.75357728 98.42853967 39.03237856 105.63466828 43.26806641 112.87231445 C48.15742675 121.22333364 53.1441396 129.51525315 58.25634766 137.73168945 C61.98942196 143.77395793 65.56400881 149.90286709 69.13134766 156.04418945 C76.48587755 168.7032026 84.01310437 181.25455347 91.56884766 193.79418945 C93.48707078 196.98075599 95.40342181 200.16844088 97.31884766 203.35668945 C97.77928467 204.12158691 98.23972168 204.88648438 98.71411133 205.67456055 C101.52977022 210.36186231 104.31996442 215.063473 107.0909729 219.77726746 C108.79964456 222.68337974 110.51212775 225.58724004 112.2244873 228.49118042 C113.07113576 229.92972089 113.91582048 231.36941912 114.75842285 232.81033325 C115.94947544 234.84692166 117.1472121 236.87944783 118.34619141 238.91137695 C118.69787888 239.51685867 119.04956635 240.12234039 119.41191101 240.74617004 C123.41593667 248.06084453 123.41593667 248.06084453 129.97241211 252.4753418 C130.78411865 252.4439209 131.5958252 252.4125 132.43212891 252.38012695 C133.31835938 252.36079102 134.20458984 252.34145508 135.11767578 252.3215332 C136.0296875 252.27125977 136.94169922 252.22098633 137.88134766 252.16918945 C138.81269531 252.14211914 139.74404297 252.11504883 140.70361328 252.0871582 C142.99441637 252.01667195 145.28042328 251.91823191 147.56884766 251.79418945 C146.73536763 248.12249061 145.34130883 245.38001533 143.44384766 242.10668945 C143.10256836 241.51710449 142.76128906 240.92751953 142.40966797 240.32006836 C136.85410437 230.77899175 131.12430747 221.33878765 125.42773438 211.8815918 C122.74033208 207.418118 120.06065573 202.95002496 117.38134766 198.48168945 C114.46197931 193.61429296 111.54140273 188.74763905 108.61572266 183.8840332 C102.77543041 174.17062448 96.98100818 164.43150396 91.22241211 154.66943359 C86.7090208 147.02138343 82.15088062 139.4012539 77.56884766 131.79418945 C72.86430457 123.98275348 68.18444343 116.15858804 63.56884766 108.29418945 C55.29197276 93.97098994 55.29197276 93.97098994 46.38134766 80.04418945 C43.71339053 76.12243827 41.48766172 72.03684172 39.25244141 67.85668945 C36.99726414 63.75446445 34.5810979 59.75550082 32.15844727 55.7512207 C29.75019464 51.76843691 27.37646345 47.76816124 25.03149414 43.74780273 C20.20317146 35.47151135 15.21226843 27.30651736 10.12255859 19.18823242 C7.11776041 14.37701149 4.27744339 9.53264007 1.64038086 4.5090332 C0.67279735 2.62885707 0.67279735 2.62885707 -1.43115234 1.79418945 Z " fill="#183928" transform="translate(249.43115234375,80.205810546875)"/>
<path d="M0 0 C4.07964751 1.6152595 5.59265531 4.93180415 7.74609375 8.61328125 C8.19210938 9.32613281 8.638125 10.03898437 9.09765625 10.7734375 C11.52045459 14.77472566 13.35952985 18.20171656 13.49609375 22.98828125 C12.74609375 25.15625 12.74609375 25.15625 11.49609375 27.17578125 C11.02945313 27.94664063 10.5628125 28.7175 10.08203125 29.51171875 C9.55867187 30.32898438 9.0353125 31.14625 8.49609375 31.98828125 C7.95210937 32.84679687 7.408125 33.7053125 6.84765625 34.58984375 C5.67649231 36.42873012 4.500548 38.26457899 3.3203125 40.09765625 C0.83821077 44.03075106 -1.4868398 48.04723667 -3.8125 52.07421875 C-5.39029743 54.79254873 -7.00146552 57.48696613 -8.62890625 60.17578125 C-10.4444966 63.18583894 -12.19570241 66.21490755 -13.87890625 69.30078125 C-16.51146557 74.08953201 -19.39766475 78.70848457 -22.27734375 83.3515625 C-24.68427063 87.25772834 -27.00168056 91.2145028 -29.31640625 95.17578125 C-32.84991761 101.22061206 -36.45949806 107.21251664 -40.12890625 113.17578125 C-43.405611 118.5031352 -46.61536748 123.85496833 -49.69140625 129.30078125 C-54.2388342 137.33487809 -59.08940569 145.1697413 -64.01953125 152.97265625 C-68.23668599 159.65825434 -72.31760511 166.33567133 -76.03515625 173.31640625 C-78.2742393 177.38963179 -80.74665456 181.3105724 -83.19921875 185.2578125 C-85.84132699 189.51864469 -88.42513315 193.81389937 -91.00390625 198.11328125 C-91.75232788 199.36105347 -91.75232788 199.36105347 -92.51586914 200.6340332 C-96.5448799 207.36359704 -100.53990545 214.11311984 -104.53219604 220.86450195 C-109.62411542 229.47459219 -114.73018217 238.07468228 -119.94140625 246.61328125 C-120.39588135 247.35916504 -120.85035645 248.10504883 -121.31860352 248.87353516 C-124.37630613 253.86068113 -124.37630613 253.86068113 -125.50390625 254.98828125 C-127.35760236 255.0756577 -129.21458166 255.09526278 -131.0703125 255.0859375 C-132.19501953 255.08271484 -133.31972656 255.07949219 -134.47851562 255.07617188 C-135.66251953 255.06779297 -136.84652344 255.05941406 -138.06640625 255.05078125 C-139.25427734 255.04626953 -140.44214844 255.04175781 -141.66601562 255.03710938 C-144.61202851 255.025278 -147.55794306 255.00879412 -150.50390625 254.98828125 C-150.70835646 249.48939228 -149.36122184 246.18995809 -146.56640625 241.55078125 C-146.16252686 240.85774902 -145.75864746 240.1647168 -145.3425293 239.45068359 C-144.07684215 237.2880084 -142.79248405 235.1373819 -141.50390625 232.98828125 C-140.70679927 231.64597106 -139.90991746 230.30352713 -139.11328125 228.9609375 C-137.31335802 225.9392482 -135.49738639 222.92772447 -133.67236328 219.92114258 C-132.32006424 217.68416984 -130.98099446 215.43945257 -129.640625 213.1953125 C-127.02620366 208.83422818 -124.35229138 204.51319295 -121.65869141 200.20068359 C-117.1802844 193.0291537 -112.77124278 185.87816619 -108.828125 178.39453125 C-106.78378797 174.67974774 -104.45445417 171.15637716 -102.15234375 167.59765625 C-100.70329875 165.3039073 -99.36199612 162.99577537 -98.06640625 160.61328125 C-95.14805885 155.25825543 -91.91619734 150.10512361 -88.703125 144.92333984 C-79.91651796 130.77215604 -79.91651796 130.77215604 -71.7734375 116.24609375 C-70.57000186 114.10582975 -69.26785262 112.15385861 -67.81640625 110.17578125 C-65.49875168 107.16872942 -65.49875168 107.16872942 -64.1640625 104.27734375 C-62.21299273 100.41193023 -59.95509252 96.82304368 -57.62890625 93.17578125 C-54.55267359 88.30549278 -51.56514592 83.43397264 -48.828125 78.36328125 C-47.04786541 75.17036729 -45.14776667 72.05200827 -43.25390625 68.92578125 C-40.04683973 63.62595659 -36.95310872 58.27639099 -33.94140625 52.86328125 C-29.99087612 45.77503808 -25.80533597 38.87056881 -21.50390625 31.98828125 C-20.23130234 29.92687326 -18.96050169 27.86435107 -17.69140625 25.80078125 C-17.03914062 24.75148438 -16.386875 23.7021875 -15.71484375 22.62109375 C-13.99802427 19.83384288 -12.35876992 17.00777045 -10.73046875 14.16796875 C-10.24811768 13.34192139 -9.7657666 12.51587402 -9.26879883 11.66479492 C-8.31355967 10.02776967 -7.37279871 8.38219466 -6.44799805 6.7277832 C-3.23736348 1.27777373 -3.23736348 1.27777373 0 0 Z M-0.50390625 2.98828125 C-1.37000182 4.29163825 -2.1854102 5.62869644 -2.98046875 6.9765625 C-3.48304199 7.8229126 -3.98561523 8.6692627 -4.50341797 9.54125977 C-5.30803467 10.9072229 -5.30803467 10.9072229 -6.12890625 12.30078125 C-9.47244821 17.93442721 -12.81178329 23.55548372 -16.37890625 29.05078125 C-19.11390479 33.2883814 -21.52224488 37.64324201 -23.8984375 42.08984375 C-25.71359242 45.36683876 -27.65306479 48.55688024 -29.62890625 51.73828125 C-30.30179687 52.82367188 -30.9746875 53.9090625 -31.66796875 55.02734375 C-32.27382812 56.00445312 -32.8796875 56.9815625 -33.50390625 57.98828125 C-36.54750906 62.63806949 -36.54750906 62.63806949 -37.50390625 67.98828125 C-38.16390625 67.98828125 -38.82390625 67.98828125 -39.50390625 67.98828125 C-41.11788471 70.48094741 -42.60745563 72.96877344 -44.06640625 75.55078125 C-44.96418229 77.1097561 -45.86263393 78.66834207 -46.76171875 80.2265625 C-47.21708008 81.0201416 -47.67244141 81.8137207 -48.14160156 82.63134766 C-50.19978667 86.19222919 -52.31741724 89.71638112 -54.44140625 93.23828125 C-55.15886496 94.43098309 -55.87631349 95.62369106 -56.59375 96.81640625 C-57.78898056 98.80112448 -59.00694316 100.77252588 -60.2578125 102.72265625 C-61.74486562 104.99544044 -61.74486562 104.99544044 -61.50390625 107.98828125 C-62.16390625 107.98828125 -62.82390625 107.98828125 -63.50390625 107.98828125 C-65.17283962 110.36449561 -65.17283962 110.36449561 -66.890625 113.453125 C-67.22434113 114.02886261 -67.55805725 114.60460022 -67.90188599 115.19778442 C-68.62528574 116.44755051 -69.34532004 117.69926918 -70.06240845 118.95266724 C-71.58515454 121.61392277 -73.12390012 124.26578932 -74.66209412 126.9181366 C-75.45159467 128.27966578 -76.24029273 129.6416606 -77.0282135 131.00410461 C-80.72575462 137.39262417 -84.50739242 143.72801771 -88.31640625 150.05078125 C-88.93193359 151.07381348 -89.54746094 152.0968457 -90.18164062 153.15087891 C-91.3839447 155.14841025 -92.58672941 157.14565238 -93.79003906 159.14257812 C-96.42954811 163.52521594 -99.06039903 167.91303622 -101.69140625 172.30078125 C-104.57563248 177.10957558 -107.460886 181.91773594 -110.3515625 186.72265625 C-116.7948209 197.43815808 -123.1877003 208.18289464 -129.5480957 218.94775391 C-132.72502238 224.31972482 -135.91477651 229.68230643 -139.15625 235.015625 C-139.71376953 235.93472656 -140.27128906 236.85382813 -140.84570312 237.80078125 C-141.88029344 239.50272664 -142.91910392 241.20211661 -143.96289062 242.8984375 C-144.41857422 243.64867187 -144.87425781 244.39890625 -145.34375 245.171875 C-145.73941162 245.81697021 -146.13507324 246.46206543 -146.54272461 247.12670898 C-147.54401385 249.0659598 -148.06236425 250.85736116 -148.50390625 252.98828125 C-145.13040305 253.25120416 -141.75953254 253.40992182 -138.37890625 253.55078125 C-136.95191406 253.66389648 -136.95191406 253.66389648 -135.49609375 253.77929688 C-132.5975875 253.8698752 -130.29335987 253.79554194 -127.50390625 252.98828125 C-124.73204634 250.38155813 -123.20184919 247.36189373 -121.50390625 243.98828125 C-120.61908958 242.48147912 -119.72726773 240.9787663 -118.828125 239.48046875 C-117.94657793 237.94291734 -117.06773965 236.40381017 -116.19140625 234.86328125 C-115.22616967 233.1817694 -114.26001337 231.50078519 -113.29296875 229.8203125 C-112.82020508 228.99869629 -112.34744141 228.17708008 -111.86035156 227.33056641 C-108.88095762 222.18580301 -105.79927632 217.10242441 -102.72558594 212.01367188 C-100.37331749 208.11390788 -98.03350395 204.20665874 -95.69140625 200.30078125 C-92.60407962 195.15343112 -89.51563499 190.00676784 -86.421875 184.86328125 C-81.33512333 176.4027218 -76.27776009 167.92705533 -71.28588867 159.41015625 C-67.62881864 153.17943135 -63.9095068 146.98695386 -60.18457031 140.79663086 C-56.34050386 134.40111135 -52.54124408 127.98002619 -48.75390625 121.55078125 C-44.6978966 114.66845244 -40.60633626 107.81631273 -36.3828125 101.03515625 C-34.24537231 97.56903703 -32.15082336 94.07865148 -30.05883789 90.58496094 C-28.62560358 88.19151139 -27.18862881 85.80036595 -25.75 83.41015625 C-19.84568581 73.59192224 -13.9860125 63.748614 -8.16772461 53.87915039 C-5.34802921 49.09885553 -2.51575989 44.32708847 0.3515625 39.57519531 C1.44340437 37.76322224 2.52716746 35.94664457 3.609375 34.12890625 C4.78910391 32.1651339 5.99141418 30.21455273 7.2265625 28.28515625 C7.70738281 27.5065625 8.18820313 26.72796875 8.68359375 25.92578125 C9.08964844 25.29542969 9.49570313 24.66507813 9.9140625 24.015625 C10.82426132 20.84520092 9.77973984 18.97734285 8.49609375 15.98828125 C7.1884316 13.64037252 5.86639809 11.37911137 4.43359375 9.11328125 C3.88735352 8.22382812 3.88735352 8.22382812 3.33007812 7.31640625 C2.41793085 5.85292412 1.46096007 4.41755575 0.49609375 2.98828125 C0.16609375 2.98828125 -0.16390625 2.98828125 -0.50390625 2.98828125 Z " fill="#183928" transform="translate(153.50390625,79.01171875)"/>
<path d="M0 0 C1.06167892 -0.025746 2.12335785 -0.051492 3.21720886 -0.07801819 C8.09195603 -0.1619957 12.96654348 -0.22807194 17.84179688 -0.27441406 C20.41333662 -0.30604532 22.98473073 -0.35378932 25.55566406 -0.41796875 C29.25812803 -0.5091906 32.95795898 -0.54802747 36.66137695 -0.57592773 C37.80845627 -0.61408096 38.95553558 -0.65223419 40.13737488 -0.69154358 C47.95815718 -0.67250086 47.95815718 -0.67250086 51.05522156 1.97874451 C52.58968722 4.00243456 53.82835335 6.00411096 55.0246582 8.24047852 C55.66274414 9.1621582 56.30083008 10.08383789 56.95825195 11.03344727 C57.70268555 12.21874023 57.70268555 12.21874023 58.4621582 13.42797852 C58.97649414 14.2259082 59.49083008 15.02383789 60.02075195 15.84594727 C61.24747296 18.77193938 60.97788076 20.25714953 60.0246582 23.24047852 C58.114249 25.15088772 54.67880788 24.37836309 52.14990234 24.38574219 C51.07185585 24.39078011 51.07185585 24.39078011 49.97203064 24.3959198 C47.5846079 24.4054569 45.19725508 24.40737429 42.80981445 24.40844727 C41.15693634 24.41165795 39.50405853 24.41502187 37.85118103 24.41853333 C34.38173768 24.42453152 30.91231927 24.42637252 27.44287109 24.42578125 C22.98928653 24.42567959 18.53586127 24.43933254 14.08231449 24.45655346 C10.66718303 24.46765248 7.25209033 24.46970111 3.83694267 24.46917152 C2.19463998 24.47035479 0.55233638 24.47479583 -1.08994865 24.48250389 C-3.38381087 24.49226164 -5.677324 24.48944265 -7.97119141 24.48339844 C-9.93190834 24.48553596 -9.93190834 24.48553596 -11.93223572 24.48771667 C-14.9753418 24.24047852 -14.9753418 24.24047852 -16.9753418 22.24047852 C-16.8240673 17.13496418 -13.65976005 13.13641338 -10.9753418 8.99047852 C-10.5112793 8.25829102 -10.0472168 7.52610352 -9.5690918 6.77172852 C-5.33454123 0.12446891 -5.33454123 0.12446891 0 0 Z " fill="#FAFAFA" transform="translate(178.975341796875,201.759521484375)"/>
<path d="M0 0 C0.92811996 -0.00860046 1.85623993 -0.01720093 2.81248474 -0.02606201 C3.83896622 -0.03032196 4.86544769 -0.03458191 5.92303467 -0.03897095 C6.99779556 -0.04714844 8.07255646 -0.05532593 9.17988586 -0.06375122 C12.75409376 -0.08866369 16.32826178 -0.10513652 19.90252686 -0.11953735 C21.11998344 -0.12486103 22.33744003 -0.13018471 23.59178925 -0.13566971 C30.03601961 -0.16242719 36.48023042 -0.18179346 42.92449951 -0.19619751 C49.5908265 -0.21161938 56.25659183 -0.25762283 62.92274857 -0.30856895 C68.0390888 -0.34218154 73.15531098 -0.35376849 78.2717514 -0.35942459 C80.72939579 -0.366154 83.18703197 -0.38141952 85.6445694 -0.4053154 C89.08285556 -0.43683876 92.51979894 -0.43702225 95.95819092 -0.42959595 C96.97657547 -0.44600128 97.99496002 -0.46240662 99.04420471 -0.47930908 C105.97114356 -0.41797029 105.97114356 -0.41797029 109.7883606 2.57952881 C110.41900421 3.42907135 111.04964783 4.27861389 111.69940186 5.15390015 C112.13429932 5.73913452 112.56919678 6.3243689 113.01727295 6.92733765 C114.05182169 8.66127729 115.0738313 10.40009109 116.07440186 12.15390015 C116.44178467 12.7571814 116.80916748 13.36046265 117.18768311 13.98202515 C118.83897014 16.84841019 119.73347461 18.68950112 119.48846436 22.02890015 C118.69940186 24.15390015 118.69940186 24.15390015 117.69940186 25.15390015 C115.99577691 25.25447356 114.28796361 25.28466416 112.58137512 25.28761292 C110.9176461 25.29401039 110.9176461 25.29401039 109.2203064 25.30053711 C107.99274628 25.30008392 106.76518616 25.29963074 105.50042725 25.29916382 C103.57382011 25.30420174 103.57382011 25.30420174 101.60829163 25.30934143 C98.07526665 25.31820188 94.54226586 25.3205204 91.00923085 25.32115722 C88.06425259 25.32210465 85.11928003 25.32578103 82.17430395 25.32932931 C75.22864682 25.33748166 68.28300267 25.33991284 61.33734131 25.33920288 C54.16245058 25.33860189 46.98763498 25.34915611 39.81276327 25.36494654 C33.66159143 25.37800373 27.5104442 25.38338755 21.35925859 25.38274747 C17.68153174 25.38249194 14.00387162 25.38537313 10.32615852 25.39592552 C6.2266434 25.4073663 2.12729758 25.4028709 -1.972229 25.39682007 C-3.81053284 25.40524933 -3.81053284 25.40524933 -5.68597412 25.41384888 C-7.35393288 25.40755714 -7.35393288 25.40755714 -9.05558777 25.40113831 C-10.02585876 25.40168307 -10.99612974 25.40222784 -11.99580288 25.40278912 C-14.30059814 25.15390015 -14.30059814 25.15390015 -16.30059814 23.15390015 C-16.16356382 17.44128191 -13.32804687 13.46246424 -10.30059814 8.84140015 C-9.83653564 8.11372437 -9.37247314 7.38604858 -8.89434814 6.63632202 C-4.65971071 0.03201103 -4.65971071 0.03201103 0 0 Z M-11.98225403 16.31674194 C-12.79164011 18.44488237 -13.30059814 19.87629705 -13.30059814 22.15390015 C29.59940186 22.15390015 72.49940186 22.15390015 116.69940186 22.15390015 C114.91790613 15.02791724 112.64814851 7.8718267 106.69940186 3.15390015 C99.01940974 0.22001182 90.19034153 0.99399687 82.10955811 1.09140015 C79.68012133 1.07620156 77.25070733 1.05684879 74.82133484 1.03353882 C69.73703357 1.00245253 64.65668251 1.0264139 59.57269287 1.08847046 C53.0715572 1.16273892 46.58132629 1.09281458 40.08106327 0.98048401 C35.06585213 0.91108416 30.05322336 0.92221963 25.03774834 0.95690918 C22.64281553 0.96319573 20.24766803 0.94389556 17.85316658 0.89801025 C2.75056955 0.65977693 -5.66925934 1.60237617 -11.98225403 16.31674194 Z " fill="#183827" transform="translate(149.30059814453125,249.84609985351563)"/>
<path d="M0 0 C1.06167892 -0.025746 2.12335785 -0.051492 3.21720886 -0.07801819 C8.09195603 -0.1619957 12.96654348 -0.22807194 17.84179688 -0.27441406 C20.41333662 -0.30604532 22.98473073 -0.35378932 25.55566406 -0.41796875 C29.25812803 -0.5091906 32.95795898 -0.54802747 36.66137695 -0.57592773 C37.80845627 -0.61408096 38.95553558 -0.65223419 40.13737488 -0.69154358 C47.95815718 -0.67250086 47.95815718 -0.67250086 51.05522156 1.97874451 C52.58968722 4.00243456 53.82835335 6.00411096 55.0246582 8.24047852 C55.66274414 9.1621582 56.30083008 10.08383789 56.95825195 11.03344727 C57.70268555 12.21874023 57.70268555 12.21874023 58.4621582 13.42797852 C58.97649414 14.2259082 59.49083008 15.02383789 60.02075195 15.84594727 C61.24747296 18.77193938 60.97788076 20.25714953 60.0246582 23.24047852 C58.114249 25.15088772 54.67880788 24.37836309 52.14990234 24.38574219 C51.07185585 24.39078011 51.07185585 24.39078011 49.97203064 24.3959198 C47.5846079 24.4054569 45.19725508 24.40737429 42.80981445 24.40844727 C41.15693634 24.41165795 39.50405853 24.41502187 37.85118103 24.41853333 C34.38173768 24.42453152 30.91231927 24.42637252 27.44287109 24.42578125 C22.98928653 24.42567959 18.53586127 24.43933254 14.08231449 24.45655346 C10.66718303 24.46765248 7.25209033 24.46970111 3.83694267 24.46917152 C2.19463998 24.47035479 0.55233638 24.47479583 -1.08994865 24.48250389 C-3.38381087 24.49226164 -5.677324 24.48944265 -7.97119141 24.48339844 C-9.93190834 24.48553596 -9.93190834 24.48553596 -11.93223572 24.48771667 C-14.9753418 24.24047852 -14.9753418 24.24047852 -16.9753418 22.24047852 C-16.8240673 17.13496418 -13.65976005 13.13641338 -10.9753418 8.99047852 C-10.5112793 8.25829102 -10.0472168 7.52610352 -9.5690918 6.77172852 C-5.33454123 0.12446891 -5.33454123 0.12446891 0 0 Z M-5.59057617 4.6328125 C-6.04754883 5.49334229 -6.50452148 6.35387207 -6.9753418 7.24047852 C-7.44198242 7.99329102 -7.90862305 8.74610352 -8.3894043 9.52172852 C-8.78901367 10.25391602 -9.18862305 10.98610352 -9.6003418 11.74047852 C-10.00510742 12.47266602 -10.40987305 13.20485352 -10.8269043 13.95922852 C-12.0159222 16.3210872 -12.99328624 18.78533964 -13.9753418 21.24047852 C9.7846582 21.24047852 33.5446582 21.24047852 58.0246582 21.24047852 C56.44731509 16.50844918 55.16200244 13.53589638 52.5246582 9.49047852 C51.9162207 8.54688477 51.3077832 7.60329102 50.6809082 6.63110352 C49.09894568 4.19573191 49.09894568 4.19573191 47.0246582 2.24047852 C44.83112302 1.91397016 44.83112302 1.91397016 42.27124023 1.93408203 C41.28326447 1.91809464 40.2952887 1.90210724 39.27737427 1.88563538 C37.671147 1.87759132 37.671147 1.87759132 36.0324707 1.86938477 C34.93498505 1.86035629 33.83749939 1.85132782 32.70675659 1.84202576 C30.38159931 1.82749753 28.05640091 1.81863016 25.73120117 1.81494141 C22.17076784 1.80304902 18.61206899 1.75388927 15.05200195 1.70336914 C12.79550002 1.69390504 10.53898741 1.68666994 8.2824707 1.68188477 C7.21570099 1.66235245 6.14893127 1.64282013 5.04983521 1.62269592 C-0.83786156 1.52396714 -0.83786156 1.52396714 -5.59057617 4.6328125 Z " fill="#1A3A2A" transform="translate(178.975341796875,201.759521484375)"/>
<path d="M0 0 C0.99 0.33 1.98 0.66 3 1 C3 1.99 3 2.98 3 4 C3.66 4 4.32 4 5 4 C5 4.99 5 5.98 5 7 C5.66 7 6.32 7 7 7 C7.556875 8.155 8.11375 9.31 8.6875 10.5 C10.18669227 13.54137213 11.84906894 16.31963735 13.75 19.125 C15.95152567 22.65704274 16.94835751 24.77549838 16 29 C14.65088117 31.35987345 13.16657485 33.55421687 11.5859375 35.765625 C10.21436771 37.6979844 9.02023314 39.61691849 7.875 41.6875 C6.04795656 44.91527674 4.08980928 47.93992212 2 51 C-2.34646866 49.5012177 -3.04403858 46.99016131 -5 43 C-5.75044146 41.76021268 -6.51688203 40.53000521 -7.296875 39.30859375 C-7.69777344 38.67373047 -8.09867188 38.03886719 -8.51171875 37.38476562 C-9.34352871 36.07669854 -10.1848572 34.77464017 -11.03515625 33.47851562 C-14.01792202 28.70317564 -14.01792202 28.70317564 -13.93359375 25.39453125 C-10.92193063 17.6700564 -6.93779551 10.5329038 -2.19921875 3.7421875 C-0.94633681 2.00830799 -0.94633681 2.00830799 0 0 Z M1 6 C-0.7076909 8.67718688 -2.4109323 11.35639508 -4.09765625 14.046875 C-5.24067658 15.82125564 -6.4246825 17.57149849 -7.68359375 19.265625 C-8.39708984 20.24789062 -8.39708984 20.24789062 -9.125 21.25 C-9.56070313 21.81203125 -9.99640625 22.3740625 -10.4453125 22.953125 C-11.61481827 27.268766 -8.14404396 31.83242029 -6.02734375 35.52734375 C-4.99287109 37.21537109 -4.99287109 37.21537109 -3.9375 38.9375 C-3.4105957 39.82018555 -3.4105957 39.82018555 -2.87304688 40.72070312 C-1.97363927 42.18457826 -0.99303256 43.59794765 0 45 C0.66 45 1.32 45 2 45 C4.26733317 42.18744302 6.09206732 39.0638335 8 36 C8.51949219 35.21109375 9.03898437 34.4221875 9.57421875 33.609375 C10.04472656 32.85140625 10.51523438 32.0934375 11 31.3125 C11.433125 30.62800781 11.86625 29.94351563 12.3125 29.23828125 C13.32777886 25.93285633 12.35904996 24.12621114 11 21 C9.91401503 19.08971319 8.76641959 17.21324282 7.5625 15.375 C6.96566406 14.45460938 6.36882812 13.53421875 5.75390625 12.5859375 C4.22868763 10.33717418 2.6541344 8.15492738 1 6 Z " fill="#223E2D" transform="translate(200,42)"/>
</svg>
