<svg version="1.1" id="Layer_1" xmlns="http://www.w3.org/2000/svg" xmlns:xlink="http://www.w3.org/1999/xlink" x="0px" y="0px"
	 width="100%" viewBox="0 0 729 794" enable-background="new 0 0 729 794" xml:space="preserve">
<path fill="#163726" opacity="1.000000" stroke="none" 
	d="
M476.000000,795.000000 
	C317.333344,795.000000 159.166672,795.000000 1.000000,795.000000 
	C1.000000,530.333313 1.000000,265.666656 1.000000,1.000000 
	C244.000000,1.000000 487.000000,1.000000 730.000000,1.000000 
	C730.000000,265.666656 730.000000,530.333313 730.000000,795.000000 
	C645.500000,795.000000 561.000000,795.000000 476.000000,795.000000 
M363.024353,168.451996 
	C362.408020,169.430130 361.774261,170.397751 361.177979,171.387924 
	C350.861115,188.519821 340.639374,205.710144 330.163940,222.744446 
	C327.902618,226.421600 329.117676,229.147644 330.974854,232.201340 
	C338.956360,245.325195 346.746979,258.567993 354.915924,271.573486 
	C357.814941,276.188873 358.604340,280.067413 354.709259,284.469177 
	C352.791199,286.636688 351.575775,289.430908 350.071594,291.958923 
	C336.988586,313.946808 323.886871,335.923615 310.860413,357.944977 
	C308.857788,361.330475 306.606018,363.519348 302.200653,363.082611 
	C297.910278,362.657318 293.543274,362.912201 289.214020,363.025055 
	C287.786407,363.062256 285.645844,363.103302 285.068512,363.968323 
	C281.292542,369.625793 277.856171,375.509918 273.469849,382.694122 
	C278.111938,382.694122 281.189178,382.624054 284.261749,382.713257 
	C287.514709,382.807678 290.763306,383.053558 295.211243,383.299500 
	C291.855469,389.257782 288.913147,394.325531 286.119141,399.473785 
	C279.360382,411.927429 279.381470,412.201294 265.106140,411.823883 
	C258.793945,411.656982 253.570541,411.963287 252.005249,419.449066 
	C251.822739,420.321838 250.715866,420.961182 250.231186,421.818207 
	C248.578888,424.739777 247.013229,427.710327 244.774597,431.843689 
	C252.562973,431.843689 258.868805,431.843689 266.492401,431.843689 
	C254.583832,451.981201 243.337631,470.998596 232.091431,490.015991 
	C232.513809,490.474518 232.936188,490.933014 233.358566,491.391541 
	C238.666748,491.391541 243.975861,491.451263 249.282806,491.370239 
	C252.744934,491.317413 255.442474,490.422516 257.216949,486.714081 
	C259.848724,481.214050 263.276947,476.090118 266.436066,470.848267 
	C276.327759,454.434998 286.333588,438.089966 296.141785,421.627106 
	C306.554474,404.149628 316.726013,386.528534 327.124786,369.042633 
	C336.595428,353.117462 346.216187,337.281403 355.798004,321.422516 
	C359.705292,314.955597 363.684265,308.532043 367.584259,302.164459 
	C368.825806,303.262817 369.753662,303.767822 370.226440,304.548462 
	C380.906036,322.181122 391.581268,339.816803 402.158112,357.511230 
	C408.671112,368.407074 414.962769,379.435120 421.455597,390.343201 
	C430.746002,405.951324 440.163483,421.483795 449.463898,437.085999 
	C459.387634,453.733917 469.200867,470.447845 479.182251,487.060944 
	C480.118805,488.619690 481.852051,490.677826 483.322876,490.768921 
	C489.847137,491.173035 496.410583,490.944031 504.595581,490.944031 
	C492.737396,470.769684 481.587860,451.800995 470.003021,432.091705 
	C476.418304,432.091705 481.556335,432.199249 486.684113,432.017792 
	C488.004639,431.971039 489.986176,431.323914 490.402130,430.390350 
	C490.822083,429.447723 489.868042,427.695801 489.176392,426.493835 
	C487.447968,423.490021 485.226379,420.738647 483.758881,417.623932 
	C481.891296,413.660187 479.568085,411.283966 474.761993,411.855804 
	C471.482178,412.246063 468.072815,411.523529 464.786316,411.886536 
	C458.877563,412.539185 455.606140,409.519989 453.143188,404.715363 
	C451.793488,402.082428 449.985596,399.688629 448.525726,397.107025 
	C446.049530,392.728333 443.685242,388.286346 440.958282,383.292938 
	C445.244476,383.043671 448.519073,382.777802 451.798645,382.683594 
	C455.120087,382.588165 458.446381,382.662537 462.793976,382.662537 
	C460.834412,379.557526 459.330078,377.883789 458.614471,375.922272 
	C454.606903,364.937408 446.914032,360.740601 435.563538,362.999176 
	C429.822510,364.141510 426.956665,361.052399 424.366669,356.398193 
	C417.454254,343.976929 410.235931,331.721802 402.947784,319.514862 
	C395.338379,306.769745 387.348511,294.248566 379.936493,281.392242 
	C378.795258,279.412750 378.900696,275.606537 380.063965,273.586151 
	C387.643616,260.421539 395.207031,247.197540 403.762085,234.666351 
	C407.814819,228.730042 406.914307,224.283493 403.724152,218.998459 
	C393.546967,202.138245 383.395233,185.261841 373.371613,168.310135 
	C368.698822,160.407623 368.181793,160.291245 363.024353,168.451996 
M234.827591,421.334961 
	C242.435059,408.527100 250.020782,395.706268 257.654846,382.914276 
	C270.698242,361.058136 283.772430,339.220428 296.832825,317.374451 
	C307.504059,299.524872 318.110016,281.635651 328.901123,263.858826 
	C330.946045,260.490234 331.224915,257.760620 328.893097,254.405090 
	C325.832825,250.001358 323.256531,245.261307 320.449341,240.628372 
	C270.779938,323.851196 221.168747,406.976532 171.127502,490.822418 
	C177.934418,490.822418 183.575043,490.668671 189.201569,490.883575 
	C192.275925,491.001007 193.828888,489.817505 195.392090,487.171021 
	C208.277802,465.355652 221.370193,443.662354 234.827591,421.334961 
M518.936829,413.498810 
	C484.605316,355.995148 450.273834,298.491486 415.715607,240.608063 
	C412.308136,246.310669 409.136230,251.181625 406.487976,256.322388 
	C405.711823,257.829132 405.726532,260.501160 406.562347,261.961823 
	C413.938690,274.853149 421.531586,287.621887 429.155762,300.369904 
	C453.759247,341.508118 478.429932,382.606171 503.020508,423.752136 
	C515.417175,444.494751 527.671570,465.322357 540.074402,486.061279 
	C541.131287,487.828522 542.732056,490.453644 544.237366,490.565491 
	C550.884216,491.059479 557.588623,490.779053 565.027466,490.779053 
	C560.611572,483.364929 556.752258,476.850586 552.859558,470.356232 
	C541.636292,451.631836 530.399597,432.915527 518.936829,413.498810 
M149.147400,612.928528 
	C154.411469,612.928528 159.675537,612.928528 165.299210,612.928528 
	C164.928848,611.512939 164.810715,610.523315 164.422028,609.654663 
	C154.786545,588.120911 144.393326,566.885986 135.786102,544.950012 
	C131.775299,534.728333 126.272118,531.319519 116.082886,532.844299 
	C113.332535,533.255859 111.736359,533.715393 110.546112,536.454773 
	C104.504799,550.358826 98.195854,564.146484 92.026466,577.995239 
	C86.946663,589.398193 81.930779,600.829590 76.690506,612.692261 
	C83.008064,612.692261 88.754463,612.692261 94.789162,612.692261 
	C96.675026,608.248779 98.859917,603.795593 100.438553,599.137024 
	C101.491493,596.029785 103.234146,595.162781 106.273666,595.203918 
	C115.591667,595.330017 124.922142,595.494263 134.227936,595.132874 
	C138.484436,594.967590 140.515091,596.660645 142.057495,600.296570 
	C143.879517,604.591736 146.189270,608.679871 149.147400,612.928528 
M317.151184,543.491150 
	C317.151184,538.407898 317.151184,533.324585 317.151184,528.401367 
	C310.949066,528.401367 305.549988,528.401367 300.293152,528.401367 
	C300.293152,556.730347 300.293152,584.649170 300.293152,612.667480 
	C306.004883,612.667480 311.405579,612.667480 317.148468,612.667480 
	C317.148468,608.214661 317.088104,604.075073 317.161865,599.937866 
	C317.289337,592.788330 317.008942,585.585449 317.798828,578.505310 
	C318.808746,569.452454 324.994568,564.666748 333.396057,565.408203 
	C341.425629,566.116821 345.007904,570.654419 345.038208,580.286560 
	C345.072144,591.060913 345.045990,601.835388 345.045990,612.770264 
	C351.004181,612.770264 356.436218,612.770264 362.254364,612.770264 
	C362.254364,600.451599 362.664337,588.311768 362.063568,576.222168 
	C361.803467,570.988098 360.382660,565.351685 357.879120,560.779541 
	C351.595062,549.303345 331.551605,547.558105 320.615417,555.774109 
	C319.785217,556.397827 318.741577,556.737366 317.149200,557.532593 
	C317.149200,552.704102 317.149200,548.593750 317.151184,543.491150 
M489.453369,595.014709 
	C487.965363,592.635681 486.477356,590.256592 484.232361,586.667236 
	C501.216766,586.667236 516.431580,586.667236 531.673035,586.667236 
	C532.820984,578.434082 531.562805,571.217896 527.377686,564.711182 
	C520.486023,553.996338 510.297089,550.141479 497.921387,550.920959 
	C485.481537,551.704407 476.107391,557.217407 470.833771,568.677429 
	C465.448944,580.379028 466.514893,591.806396 474.755920,601.691833 
	C484.826691,613.772217 498.485077,615.161438 512.896851,612.287598 
	C518.557495,611.158813 523.793152,608.745117 527.399902,603.714355 
	C525.740967,601.840576 524.198547,600.314514 522.919861,598.592590 
	C521.666260,596.904419 520.681030,595.017029 519.783142,593.551819 
	C508.353973,601.462830 499.079468,601.728943 489.453369,595.014709 
M407.493378,412.044556 
	C377.508942,412.041412 347.524536,412.031738 317.540131,412.055267 
	C316.097931,412.056396 313.845734,411.821503 313.342957,412.591949 
	C309.540924,418.418427 306.082153,424.468903 302.315521,430.786102 
	C346.660400,430.786102 390.011139,430.786102 433.766052,430.786102 
	C432.268158,428.097809 430.962860,425.848694 429.744812,423.553284 
	C423.640167,412.048889 423.648193,412.044647 410.488678,412.044556 
	C409.822357,412.044556 409.156036,412.044556 407.493378,412.044556 
M592.117249,610.762146 
	C597.703247,608.168396 602.078430,604.307434 604.976685,598.415344 
	C600.639709,596.079224 596.358093,593.772949 592.163513,591.513550 
	C583.884705,600.634399 574.220032,602.072693 566.668701,595.567932 
	C559.941956,589.773499 558.946167,576.864990 565.312439,570.383118 
	C567.802002,567.848267 571.535706,565.856201 575.020508,565.119080 
	C582.350037,563.568726 588.176819,566.850830 591.937683,572.981506 
	C596.662354,570.350586 600.831970,568.028748 605.436890,565.464478 
	C603.405762,563.007568 601.765320,560.727905 599.830200,558.734314 
	C592.098328,550.768982 582.199951,550.267639 572.060059,551.078613 
	C551.257568,552.742371 538.027893,574.849976 546.000488,594.112305 
	C552.839172,610.635071 573.878174,617.908752 592.117249,610.762146 
M277.420258,555.992371 
	C270.141846,550.517456 261.687469,550.224121 253.242142,551.116882 
	C242.030533,552.301941 233.098389,557.640808 227.948654,567.958435 
	C222.477280,578.920532 223.271042,589.742981 230.151672,599.920349 
	C238.958908,612.947510 257.657532,616.498901 271.072266,611.420227 
	C277.368561,609.036499 282.709961,605.283508 285.645599,598.353699 
	C281.346130,596.027893 277.174591,593.771301 273.114532,591.575073 
	C263.663635,600.743896 253.890823,601.926575 246.729889,595.025940 
	C240.291626,588.821716 240.390793,575.979858 246.928482,569.310181 
	C253.812500,562.287170 263.235229,563.539368 273.128387,572.845703 
	C277.243744,570.513062 281.379059,568.169128 286.407379,565.319031 
	C283.321655,562.051392 280.666534,559.239746 277.420258,555.992371 
M427.646454,537.990417 
	C426.209808,538.084778 424.773163,538.179199 422.821625,538.307373 
	C422.821625,543.374817 422.821625,548.106506 422.821625,553.199585 
	C419.519775,553.199585 416.762695,553.199585 413.819397,553.199585 
	C413.819397,557.527527 413.819397,561.475159 413.819397,565.714539 
	C416.898865,565.906616 419.789520,566.086975 423.170776,566.297974 
	C423.170776,575.604004 422.972565,584.577759 423.276825,593.534546 
	C423.385315,596.728088 424.140259,600.171814 425.582947,603.000000 
	C431.258148,614.125305 448.682220,617.284119 459.810211,609.392578 
	C458.389648,605.653259 456.960144,601.890259 455.529785,598.125122 
	C454.316620,598.586548 453.564819,598.922546 452.783417,599.161865 
	C445.292603,601.456238 441.485016,599.368896 440.657928,591.761536 
	C440.049225,586.163086 440.318481,580.462891 440.312103,574.807922 
	C440.308838,571.914307 440.559326,569.020447 440.714752,565.708252 
	C446.247925,565.708252 450.985596,565.708252 455.693451,565.708252 
	C455.693451,561.299866 455.693451,557.364502 455.693451,552.898804 
	C450.579254,552.898804 445.684967,552.898804 440.202087,552.898804 
	C440.202087,547.644897 440.202087,542.914856 440.202087,537.988281 
	C435.923462,537.988281 432.265289,537.988281 427.646454,537.990417 
M640.006531,581.475403 
	C640.006531,576.388794 640.006531,571.302246 640.006531,565.768921 
	C645.509888,565.768921 650.258362,565.768921 655.035461,565.768921 
	C655.035461,561.348633 655.035461,557.409546 655.035461,552.870300 
	C649.946045,552.870300 645.070374,552.870300 639.867310,552.870300 
	C639.867310,547.664124 639.867310,543.056641 639.867310,538.263062 
	C634.130615,538.263062 628.745605,538.263062 622.736572,538.263062 
	C622.736572,543.246704 622.736572,547.962280 622.736572,553.087646 
	C619.196106,553.087646 616.275146,553.087646 613.370789,553.087646 
	C613.370789,557.588501 613.370789,561.646912 613.370789,566.120850 
	C616.624512,566.120850 619.548767,566.120850 622.965332,566.120850 
	C622.965332,575.145447 622.879150,583.756714 622.983643,592.365601 
	C623.187195,609.136780 641.848450,619.772156 656.629578,611.486694 
	C657.722412,610.874084 658.933105,608.835754 658.690002,607.783386 
	C657.964661,604.643799 656.542603,601.665161 655.307373,598.398010 
	C653.676270,598.892151 652.465271,599.349304 651.214172,599.622986 
	C644.355408,601.123474 640.665405,598.479797 640.070190,591.444824 
	C639.818481,588.469543 640.014099,585.456360 640.006531,581.475403 
M177.016052,585.500000 
	C177.016052,594.583618 177.016052,603.667236 177.016052,612.647461 
	C183.057480,612.647461 188.466705,612.647461 194.182907,612.647461 
	C194.182907,604.531616 194.126312,596.733704 194.195145,588.936890 
	C194.323654,574.380615 195.959625,566.728699 214.713531,565.674500 
	C214.713531,560.935852 214.713531,556.185486 214.713531,551.328857 
	C206.540558,549.760559 200.456787,554.054688 194.137848,558.613525 
	C193.834946,555.838928 193.625534,553.920593 193.400833,551.862427 
	C187.847977,551.862427 182.581390,551.862427 177.016052,551.862427 
	C177.016052,562.898865 177.016052,573.699402 177.016052,585.500000 
M397.299744,382.115723 
	C399.579742,382.115723 401.859741,382.115723 404.814270,382.115723 
	C401.392670,376.316498 398.477661,370.988342 395.125977,365.950775 
	C394.217712,364.585632 391.999542,363.348267 390.365295,363.326111 
	C375.564850,363.125244 360.760132,363.158691 345.958008,363.283478 
	C344.506622,363.295715 342.437317,363.962402 341.723755,365.035889 
	C338.205139,370.329315 335.046783,375.862305 331.275879,382.115875 
	C353.595673,382.115875 374.974731,382.115875 397.299744,382.115723 
M400.033173,560.524536 
	C400.033173,557.611877 400.033173,554.699280 400.033173,552.055908 
	C393.917389,552.055908 388.536530,552.055908 383.297119,552.055908 
	C383.297119,572.533569 383.297119,592.565918 383.297119,612.647217 
	C389.004547,612.647217 394.390381,612.647217 400.033203,612.647217 
	C400.033203,595.393066 400.033203,578.457153 400.033173,560.524536 
M149.452225,655.962463 
	C147.762421,651.977722 145.905197,648.053162 144.443176,643.986511 
	C143.508865,641.387634 142.468002,639.875732 139.254044,641.473450 
	C141.403793,647.953003 143.435181,654.401001 145.739807,660.749695 
	C146.204391,662.029541 147.704773,662.933472 148.727600,664.010681 
	C149.886581,662.896912 151.517731,661.990417 152.114670,660.630066 
	C153.800797,656.787720 155.062668,652.759216 156.491714,648.804077 
	C156.919800,648.811829 157.347885,648.819519 157.775955,648.827271 
	C159.294586,653.095947 160.674835,657.422791 162.427841,661.592957 
	C162.873840,662.653992 164.438232,663.674622 165.613647,663.843201 
	C166.357880,663.950012 167.788040,662.607239 168.131668,661.638367 
	C170.501251,654.956665 172.665680,648.202332 174.896088,641.471313 
	C174.387985,641.205078 173.879883,640.938782 173.371796,640.672546 
	C167.341064,643.916992 169.328140,651.990967 164.804855,657.156433 
	C163.121475,652.267578 161.710831,647.752258 159.956253,643.374817 
	C159.527328,642.304688 158.052872,641.243408 156.902527,641.032715 
	C156.253662,640.913757 154.928314,642.394226 154.524109,643.401550 
	C152.922241,647.393555 151.563583,651.483154 149.452225,655.962463 
M401.805878,529.256775 
	C398.267700,523.607788 393.081177,521.696655 387.021149,523.808899 
	C381.078094,525.880371 378.885590,532.914490 382.626160,537.908936 
	C385.509308,541.758545 390.455841,543.092651 395.520355,541.386597 
	C400.600220,539.675354 402.174744,536.896240 401.805878,529.256775 
M571.075134,663.545654 
	C571.392822,660.099487 571.284546,656.531067 572.221863,653.262634 
	C572.641541,651.799438 575.074646,650.283875 576.756897,650.069336 
	C577.643250,649.956238 579.417175,652.450073 579.829163,654.019287 
	C580.404419,656.209961 579.753479,658.712219 580.266418,660.933594 
	C580.566406,662.232544 582.110474,663.244141 583.094910,664.385010 
	C584.403015,660.017639 584.209534,656.594971 585.073669,653.464294 
	C585.470093,652.028137 587.885132,650.429688 589.496338,650.300903 
	C590.573181,650.214783 592.496460,652.419067 592.882996,653.900574 
	C593.494141,656.242737 592.838623,658.896606 593.312988,661.301392 
	C593.541077,662.457275 595.126404,663.345337 596.097107,664.354675 
	C597.254333,660.203369 597.397583,657.042358 597.224670,653.898804 
	C596.858826,647.247742 592.570435,644.650024 586.205017,646.837097 
	C584.684692,647.359436 582.857788,647.143066 581.185913,647.039429 
	C577.565002,646.814819 573.786560,645.620728 570.374268,646.312317 
	C564.283203,647.546753 568.531738,652.874268 567.461243,656.206970 
	C566.932556,657.853088 567.132690,659.919861 567.607483,661.628235 
	C567.871277,662.577576 569.378479,663.181335 571.075134,663.545654 
M235.902664,663.898315 
	C244.224243,661.475464 245.195755,658.742493 240.277283,651.592224 
	C243.251724,645.685486 242.062805,641.856934 236.533203,641.158813 
	C232.185989,640.609924 227.714066,641.048584 223.280121,641.048584 
	C223.280121,648.850830 223.280121,656.211670 223.280121,663.999695 
	C227.447586,663.999695 231.234787,663.999695 235.902664,663.898315 
M327.349274,656.340759 
	C327.349701,651.871216 327.501495,647.393311 327.254486,642.937439 
	C327.184143,641.668457 325.954712,640.463745 325.256836,639.229553 
	C324.604584,640.538086 323.732666,641.787842 323.362396,643.171814 
	C322.998138,644.533325 323.142761,646.031006 323.057373,647.591736 
	C321.317261,647.071228 319.933167,646.464478 318.492188,646.261475 
	C313.703613,645.586670 309.666748,648.785278 309.078094,653.575256 
	C308.384552,659.218750 311.403412,663.525879 316.597198,663.752686 
	C320.056763,663.903748 323.543152,663.441772 327.425385,663.232178 
	C327.425385,661.216553 327.425385,659.247437 327.349274,656.340759 
M485.627991,660.083923 
	C491.982849,653.694031 488.173676,642.193604 478.792542,641.074341 
	C474.716156,640.587952 470.533508,640.992615 466.251587,640.992615 
	C466.251587,648.614502 466.251587,656.031433 466.251587,663.732727 
	C472.979980,664.127441 479.450623,665.089111 485.627991,660.083923 
M394.696899,653.034729 
	C394.144775,651.837158 393.776703,650.502991 393.007751,649.466248 
	C390.095825,645.540161 383.078156,644.973694 379.153381,648.241211 
	C375.314453,651.437256 374.828552,657.453613 378.400665,661.097473 
	C381.280762,664.035400 384.916260,664.922485 388.892090,663.476257 
	C393.391327,661.839600 395.225952,658.482178 394.696899,653.034729 
M524.482971,660.705078 
	C522.938416,659.753357 521.393860,658.801575 519.849304,657.849854 
	C520.070862,657.281738 520.292419,656.713623 520.513916,656.145508 
	C524.733398,656.145508 528.952881,656.145508 533.141052,656.145508 
	C533.034058,650.150024 530.799133,647.089722 526.149353,646.278320 
	C521.697815,645.501526 518.239197,647.246155 516.202209,651.215088 
	C514.236267,655.045654 515.672974,659.901855 519.124695,662.275635 
	C523.132385,665.031616 527.910950,664.603882 531.468445,659.777771 
	C529.421753,660.090088 527.375000,660.402466 524.482971,660.705078 
M192.810867,660.152100 
	C187.917084,660.905640 187.047714,660.467224 185.977615,656.081238 
	C190.325989,656.081238 194.518494,656.081238 198.745789,656.081238 
	C198.146179,649.522522 195.887100,646.619507 190.985184,646.153076 
	C186.611496,645.737000 183.120422,647.389709 181.563065,651.784424 
	C180.085495,655.953979 180.835831,659.659485 184.607956,662.332825 
	C188.517334,665.103455 193.434204,664.596680 197.858124,660.413452 
	C195.976913,660.182495 194.789383,660.036743 192.810867,660.152100 
M408.052490,655.969666 
	C408.040588,653.470154 408.187286,650.953918 407.925049,648.480896 
	C407.840881,647.686951 406.677307,647.007385 406.007568,646.275513 
	C405.332672,647.001038 404.121552,647.694946 404.076599,648.457581 
	C403.890930,651.607605 403.670532,654.844360 404.194427,657.924866 
	C404.851105,661.786316 407.525818,664.042725 411.587189,663.984619 
	C414.654633,663.940857 417.717041,663.548340 421.268616,663.273315 
	C421.268616,658.513855 421.332581,653.396057 421.193054,648.283875 
	C421.174164,647.591980 420.133911,646.927917 419.566559,646.250977 
	C418.799347,646.918579 417.485321,647.503662 417.369598,648.269714 
	C417.049286,650.390137 417.724792,652.750732 417.075165,654.707092 
	C416.387726,656.777222 414.973236,659.178711 413.191833,660.074890 
	C412.279327,660.533997 409.872314,658.022522 408.052490,655.969666 
M545.742554,653.990906 
	C542.713928,654.787170 539.987488,656.551392 541.321777,659.785767 
	C542.099304,661.670410 545.046814,663.348145 547.276001,663.776672 
	C550.263733,664.351135 553.501160,663.626526 557.033630,663.438171 
	C557.033630,660.219543 556.968628,657.088684 557.050720,653.961670 
	C557.144714,650.382629 555.694885,647.826477 552.263611,646.692139 
	C548.507812,645.450562 545.075012,646.044739 542.201233,649.189148 
	C544.237671,649.767883 546.272156,649.303833 548.129578,649.690491 
	C549.888977,650.056763 551.462646,651.315125 553.118042,652.181213 
	C552.894897,652.638367 552.671814,653.095581 552.448669,653.552795 
	C550.483887,653.686340 548.519165,653.819946 545.742554,653.990906 
M254.131760,661.050537 
	C258.409943,667.063538 264.610809,661.210205 270.019775,664.493530 
	C270.019775,658.613586 270.108551,653.671082 269.934174,648.737915 
	C269.904419,647.896545 268.748444,647.094910 268.112762,646.274963 
	C267.406647,647.181396 266.225525,648.022583 266.090088,649.007446 
	C265.776276,651.289246 266.613647,653.918335 265.767944,655.883057 
	C264.971832,657.732544 262.813782,659.732666 260.901794,660.190063 
	C258.118927,660.855774 256.921112,658.610046 257.013062,655.826355 
	C257.089722,653.505798 257.221405,651.154541 256.923248,648.869812 
	C256.800385,647.928467 255.616455,647.125671 254.915161,646.259827 
	C254.251816,647.007874 253.007370,647.767578 253.022110,648.502014 
	C253.101105,652.436340 253.494003,656.364258 254.131760,661.050537 
M363.728394,647.194153 
	C362.853943,648.506104 361.979492,649.818054 361.124939,651.100159 
	C356.538116,648.435547 357.420105,640.508850 349.658508,640.895325 
	C350.669769,642.640259 351.350708,643.730713 351.950439,644.864197 
	C354.833832,650.313599 359.888977,654.869629 358.877930,661.963318 
	C358.798889,662.517761 360.276031,663.294067 361.029907,663.967224 
	C361.658417,662.997559 362.510620,662.104858 362.875214,661.044434 
	C364.178040,657.255310 365.071808,653.308716 366.594116,649.617126 
	C367.765411,646.776672 369.648621,644.229797 371.421875,641.199219 
	C366.011505,639.798767 366.262177,644.712585 363.728394,647.194153 
M299.305603,652.484985 
	C299.299652,649.000305 299.436890,645.505798 299.196747,642.037292 
	C299.128479,641.051636 297.961426,640.142151 297.298279,639.197693 
	C296.620514,640.112122 295.380829,641.011108 295.355316,641.943298 
	C295.178589,648.409790 295.141693,654.887085 295.367706,661.350098 
	C295.402557,662.345825 297.018768,663.286316 297.903625,664.252380 
	C298.370697,663.948486 298.837799,663.644653 299.304871,663.340820 
	C299.304871,660.046997 299.304871,656.753235 299.305603,652.484985 
M504.197327,646.861389 
	C502.231537,647.790466 498.761200,643.802490 498.138306,648.122925 
	C497.482819,652.669312 497.924835,657.386597 498.079071,662.022766 
	C498.101135,662.686096 499.399628,663.945862 499.762878,663.831909 
	C500.639191,663.556763 501.756866,662.748291 501.967529,661.942993 
	C502.333466,660.544128 502.096344,658.985291 502.097412,657.493530 
	C502.099854,654.081604 502.054565,650.727539 506.595215,649.866882 
	C507.194244,649.753296 507.508850,648.139160 507.955139,647.219971 
	C506.958557,647.042908 505.962006,646.865906 504.197327,646.861389 
M431.965027,649.054443 
	C431.964813,652.540039 431.786743,656.038940 432.046448,659.505066 
	C432.160187,661.023071 433.168213,662.473999 433.770111,663.955383 
	C434.522278,662.464233 435.773834,661.023193 435.929352,659.472290 
	C436.333313,655.443909 435.130310,650.835205 441.012817,649.598083 
	C441.459259,649.504150 441.810394,648.019592 441.794800,647.189209 
	C441.789551,646.909241 440.523743,646.477905 439.809479,646.420349 
	C437.963379,646.271545 436.075409,646.087585 434.261902,646.337097 
	C433.428986,646.451782 432.731415,647.549927 431.965027,649.054443 
M281.521729,663.817566 
	C282.682465,662.943970 284.750000,662.158386 284.844879,661.181213 
	C285.228333,657.231995 285.153107,653.214355 284.901733,649.243835 
	C284.836975,648.220459 283.513000,647.276855 282.767456,646.296570 
	C282.147278,647.232300 281.023468,648.151611 280.992310,649.106567 
	C280.840820,653.748230 280.981995,658.399414 281.521729,663.817566 
z"/>
<path fill="#C4BBB2" opacity="1.000000" stroke="none" 
	d="
M363.238281,168.155746 
	C368.181793,160.291245 368.698822,160.407623 373.371613,168.310135 
	C383.395233,185.261841 393.546967,202.138245 403.724152,218.998459 
	C406.914307,224.283493 407.814819,228.730042 403.762085,234.666351 
	C395.207031,247.197540 387.643616,260.421539 380.063965,273.586151 
	C378.900696,275.606537 378.795258,279.412750 379.936493,281.392242 
	C387.348511,294.248566 395.338379,306.769745 402.947784,319.514862 
	C410.235931,331.721802 417.454254,343.976929 424.366669,356.398193 
	C426.956665,361.052399 429.822510,364.141510 435.563538,362.999176 
	C446.914032,360.740601 454.606903,364.937408 458.614471,375.922272 
	C459.330078,377.883789 460.834412,379.557526 462.793976,382.662537 
	C458.446381,382.662537 455.120087,382.588165 451.798645,382.683594 
	C448.519073,382.777802 445.244476,383.043671 440.958282,383.292938 
	C443.685242,388.286346 446.049530,392.728333 448.525726,397.107025 
	C449.985596,399.688629 451.793488,402.082428 453.143188,404.715363 
	C455.606140,409.519989 458.877563,412.539185 464.786316,411.886536 
	C468.072815,411.523529 471.482178,412.246063 474.761993,411.855804 
	C479.568085,411.283966 481.891296,413.660187 483.758881,417.623932 
	C485.226379,420.738647 487.447968,423.490021 489.176392,426.493835 
	C489.868042,427.695801 490.822083,429.447723 490.402130,430.390350 
	C489.986176,431.323914 488.004639,431.971039 486.684113,432.017792 
	C481.556335,432.199249 476.418304,432.091705 470.003021,432.091705 
	C481.587860,451.800995 492.737396,470.769684 504.595581,490.944031 
	C496.410583,490.944031 489.847137,491.173035 483.322876,490.768921 
	C481.852051,490.677826 480.118805,488.619690 479.182251,487.060944 
	C469.200867,470.447845 459.387634,453.733917 449.463898,437.085999 
	C440.163483,421.483795 430.746002,405.951324 421.455597,390.343201 
	C414.962769,379.435120 408.671112,368.407074 402.158112,357.511230 
	C391.581268,339.816803 380.906036,322.181122 370.226440,304.548462 
	C369.753662,303.767822 368.825806,303.262817 367.584259,302.164459 
	C363.684265,308.532043 359.705292,314.955597 355.798004,321.422516 
	C346.216187,337.281403 336.595428,353.117462 327.124786,369.042633 
	C316.726013,386.528534 306.554474,404.149628 296.141785,421.627106 
	C286.333588,438.089966 276.327759,454.434998 266.436066,470.848267 
	C263.276947,476.090118 259.848724,481.214050 257.216949,486.714081 
	C255.442474,490.422516 252.744934,491.317413 249.282806,491.370239 
	C243.975861,491.451263 238.666748,491.391541 233.358566,491.391541 
	C232.936188,490.933014 232.513809,490.474518 232.091431,490.015991 
	C243.337631,470.998596 254.583832,451.981201 266.492401,431.843689 
	C258.868805,431.843689 252.562973,431.843689 244.774597,431.843689 
	C247.013229,427.710327 248.578888,424.739777 250.231186,421.818207 
	C250.715866,420.961182 251.822739,420.321838 252.005249,419.449066 
	C253.570541,411.963287 258.793945,411.656982 265.106140,411.823883 
	C279.381470,412.201294 279.360382,411.927429 286.119141,399.473785 
	C288.913147,394.325531 291.855469,389.257782 295.211243,383.299500 
	C290.763306,383.053558 287.514709,382.807678 284.261749,382.713257 
	C281.189178,382.624054 278.111938,382.694122 273.469849,382.694122 
	C277.856171,375.509918 281.292542,369.625793 285.068512,363.968323 
	C285.645844,363.103302 287.786407,363.062256 289.214020,363.025055 
	C293.543274,362.912201 297.910278,362.657318 302.200653,363.082611 
	C306.606018,363.519348 308.857788,361.330475 310.860413,357.944977 
	C323.886871,335.923615 336.988586,313.946808 350.071594,291.958923 
	C351.575775,289.430908 352.791199,286.636688 354.709259,284.469177 
	C358.604340,280.067413 357.814941,276.188873 354.915924,271.573486 
	C346.746979,258.567993 338.956360,245.325195 330.974854,232.201340 
	C329.117676,229.147644 327.902618,226.421600 330.163940,222.744446 
	C340.639374,205.710144 350.861115,188.519821 361.177979,171.387924 
	C361.774261,170.397751 362.408020,169.430130 363.238281,168.155746 
M355.399109,220.886261 
	C354.377136,223.220825 351.836517,226.369446 352.580505,227.757385 
	C357.286896,236.537262 362.720734,244.927170 368.243530,253.985397 
	C373.538727,245.025101 378.375458,236.952179 383.043488,228.782867 
	C383.555634,227.886581 383.536316,226.190445 383.024109,225.282349 
	C378.296295,216.900665 373.405701,208.610794 368.293457,199.832275 
	C363.846252,207.020126 359.765930,213.614960 355.399109,220.886261 
z"/>
<path fill="#F8FAFA" opacity="1.000000" stroke="none" 
	d="
M234.613770,421.633514 
	C221.370193,443.662354 208.277802,465.355652 195.392090,487.171021 
	C193.828888,489.817505 192.275925,491.001007 189.201569,490.883575 
	C183.575043,490.668671 177.934418,490.822418 171.127502,490.822418 
	C221.168747,406.976532 270.779938,323.851196 320.449341,240.628372 
	C323.256531,245.261307 325.832825,250.001358 328.893097,254.405090 
	C331.224915,257.760620 330.946045,260.490234 328.901123,263.858826 
	C318.110016,281.635651 307.504059,299.524872 296.832825,317.374451 
	C283.772430,339.220428 270.698242,361.058136 257.654846,382.914276 
	C250.020782,395.706268 242.435059,408.527100 234.613770,421.633514 
z"/>
<path fill="#F8FBFA" opacity="1.000000" stroke="none" 
	d="
M519.052490,413.847412 
	C530.399597,432.915527 541.636292,451.631836 552.859558,470.356232 
	C556.752258,476.850586 560.611572,483.364929 565.027466,490.779053 
	C557.588623,490.779053 550.884216,491.059479 544.237366,490.565491 
	C542.732056,490.453644 541.131287,487.828522 540.074402,486.061279 
	C527.671570,465.322357 515.417175,444.494751 503.020508,423.752136 
	C478.429932,382.606171 453.759247,341.508118 429.155762,300.369904 
	C421.531586,287.621887 413.938690,274.853149 406.562347,261.961823 
	C405.726532,260.501160 405.711823,257.829132 406.487976,256.322388 
	C409.136230,251.181625 412.308136,246.310669 415.715607,240.608063 
	C450.273834,298.491486 484.605316,355.995148 519.052490,413.847412 
z"/>
<path fill="#F9FBFA" opacity="1.000000" stroke="none" 
	d="
M148.717484,612.893188 
	C146.189270,608.679871 143.879517,604.591736 142.057495,600.296570 
	C140.515091,596.660645 138.484436,594.967590 134.227936,595.132874 
	C124.922142,595.494263 115.591667,595.330017 106.273666,595.203918 
	C103.234146,595.162781 101.491493,596.029785 100.438553,599.137024 
	C98.859917,603.795593 96.675026,608.248779 94.789162,612.692261 
	C88.754463,612.692261 83.008064,612.692261 76.690506,612.692261 
	C81.930779,600.829590 86.946663,589.398193 92.026466,577.995239 
	C98.195854,564.146484 104.504799,550.358826 110.546112,536.454773 
	C111.736359,533.715393 113.332535,533.255859 116.082886,532.844299 
	C126.272118,531.319519 131.775299,534.728333 135.786102,544.950012 
	C144.393326,566.885986 154.786545,588.120911 164.422028,609.654663 
	C164.810715,610.523315 164.928848,611.512939 165.299210,612.928528 
	C159.675537,612.928528 154.411469,612.928528 148.717484,612.893188 
M116.628754,581.963745 
	C122.226723,581.963745 127.824699,581.963745 134.109863,581.963745 
	C129.727310,571.452148 125.611572,561.580566 120.944252,550.385925 
	C116.282799,561.706970 112.223892,571.564636 107.941925,581.963989 
	C111.062248,581.963989 113.371750,581.963989 116.628754,581.963745 
z"/>
<path fill="#FAFCFB" opacity="1.000000" stroke="none" 
	d="
M317.150208,543.987305 
	C317.149200,548.593750 317.149200,552.704102 317.149200,557.532593 
	C318.741577,556.737366 319.785217,556.397827 320.615417,555.774109 
	C331.551605,547.558105 351.595062,549.303345 357.879120,560.779541 
	C360.382660,565.351685 361.803467,570.988098 362.063568,576.222168 
	C362.664337,588.311768 362.254364,600.451599 362.254364,612.770264 
	C356.436218,612.770264 351.004181,612.770264 345.045990,612.770264 
	C345.045990,601.835388 345.072144,591.060913 345.038208,580.286560 
	C345.007904,570.654419 341.425629,566.116821 333.396057,565.408203 
	C324.994568,564.666748 318.808746,569.452454 317.798828,578.505310 
	C317.008942,585.585449 317.289337,592.788330 317.161865,599.937866 
	C317.088104,604.075073 317.148468,608.214661 317.148468,612.667480 
	C311.405579,612.667480 306.004883,612.667480 300.293152,612.667480 
	C300.293152,584.649170 300.293152,556.730347 300.293152,528.401367 
	C305.549988,528.401367 310.949066,528.401367 317.151184,528.401367 
	C317.151184,533.324585 317.151184,538.407898 317.150208,543.987305 
z"/>
<path fill="#F8FAF9" opacity="1.000000" stroke="none" 
	d="
M489.733521,595.270264 
	C499.079468,601.728943 508.353973,601.462830 519.783142,593.551819 
	C520.681030,595.017029 521.666260,596.904419 522.919861,598.592590 
	C524.198547,600.314514 525.740967,601.840576 527.399902,603.714355 
	C523.793152,608.745117 518.557495,611.158813 512.896851,612.287598 
	C498.485077,615.161438 484.826691,613.772217 474.755920,601.691833 
	C466.514893,591.806396 465.448944,580.379028 470.833771,568.677429 
	C476.107391,557.217407 485.481537,551.704407 497.921387,550.920959 
	C510.297089,550.141479 520.486023,553.996338 527.377686,564.711182 
	C531.562805,571.217896 532.820984,578.434082 531.673035,586.667236 
	C516.431580,586.667236 501.216766,586.667236 484.232361,586.667236 
	C486.477356,590.256592 487.965363,592.635681 489.733521,595.270264 
M509.166992,566.024902 
	C498.761444,559.916077 484.815308,566.794617 485.713318,576.700562 
	C495.616699,576.700562 505.521210,576.700562 517.269531,576.700562 
	C514.296143,572.561707 512.073059,569.467224 509.166992,566.024902 
z"/>
<path fill="#FBFDFC" opacity="1.000000" stroke="none" 
	d="
M407.991547,412.044556 
	C409.156036,412.044556 409.822357,412.044556 410.488678,412.044556 
	C423.648193,412.044647 423.640167,412.048889 429.744812,423.553284 
	C430.962860,425.848694 432.268158,428.097809 433.766052,430.786102 
	C390.011139,430.786102 346.660400,430.786102 302.315521,430.786102 
	C306.082153,424.468903 309.540924,418.418427 313.342957,412.591949 
	C313.845734,411.821503 316.097931,412.056396 317.540131,412.055267 
	C347.524536,412.031738 377.508942,412.041412 407.991547,412.044556 
z"/>
<path fill="#F8FAF9" opacity="1.000000" stroke="none" 
	d="
M591.744019,610.870239 
	C573.878174,617.908752 552.839172,610.635071 546.000488,594.112305 
	C538.027893,574.849976 551.257568,552.742371 572.060059,551.078613 
	C582.199951,550.267639 592.098328,550.768982 599.830200,558.734314 
	C601.765320,560.727905 603.405762,563.007568 605.436890,565.464478 
	C600.831970,568.028748 596.662354,570.350586 591.937683,572.981506 
	C588.176819,566.850830 582.350037,563.568726 575.020508,565.119080 
	C571.535706,565.856201 567.802002,567.848267 565.312439,570.383118 
	C558.946167,576.864990 559.941956,589.773499 566.668701,595.567932 
	C574.220032,602.072693 583.884705,600.634399 592.163513,591.513550 
	C596.358093,593.772949 600.639709,596.079224 604.976685,598.415344 
	C602.078430,604.307434 597.703247,608.168396 591.744019,610.870239 
z"/>
<path fill="#F8FAF9" opacity="1.000000" stroke="none" 
	d="
M277.715820,556.210205 
	C280.666534,559.239746 283.321655,562.051392 286.407379,565.319031 
	C281.379059,568.169128 277.243744,570.513062 273.128387,572.845703 
	C263.235229,563.539368 253.812500,562.287170 246.928482,569.310181 
	C240.390793,575.979858 240.291626,588.821716 246.729889,595.025940 
	C253.890823,601.926575 263.663635,600.743896 273.114532,591.575073 
	C277.174591,593.771301 281.346130,596.027893 285.645599,598.353699 
	C282.709961,605.283508 277.368561,609.036499 271.072266,611.420227 
	C257.657532,616.498901 238.958908,612.947510 230.151672,599.920349 
	C223.271042,589.742981 222.477280,578.920532 227.948654,567.958435 
	C233.098389,557.640808 242.030533,552.301941 253.242142,551.116882 
	C261.687469,550.224121 270.141846,550.517456 277.715820,556.210205 
z"/>
<path fill="#FAFCFB" opacity="1.000000" stroke="none" 
	d="
M428.126801,537.989380 
	C432.265289,537.988281 435.923462,537.988281 440.202087,537.988281 
	C440.202087,542.914856 440.202087,547.644897 440.202087,552.898804 
	C445.684967,552.898804 450.579254,552.898804 455.693451,552.898804 
	C455.693451,557.364502 455.693451,561.299866 455.693451,565.708252 
	C450.985596,565.708252 446.247925,565.708252 440.714752,565.708252 
	C440.559326,569.020447 440.308838,571.914307 440.312103,574.807922 
	C440.318481,580.462891 440.049225,586.163086 440.657928,591.761536 
	C441.485016,599.368896 445.292603,601.456238 452.783417,599.161865 
	C453.564819,598.922546 454.316620,598.586548 455.529785,598.125122 
	C456.960144,601.890259 458.389648,605.653259 459.810211,609.392578 
	C448.682220,617.284119 431.258148,614.125305 425.582947,603.000000 
	C424.140259,600.171814 423.385315,596.728088 423.276825,593.534546 
	C422.972565,584.577759 423.170776,575.604004 423.170776,566.297974 
	C419.789520,566.086975 416.898865,565.906616 413.819397,565.714539 
	C413.819397,561.475159 413.819397,557.527527 413.819397,553.199585 
	C416.762695,553.199585 419.519775,553.199585 422.821625,553.199585 
	C422.821625,548.106506 422.821625,543.374817 422.821625,538.307373 
	C424.773163,538.179199 426.209808,538.084778 428.126801,537.989380 
z"/>
<path fill="#FBFDFC" opacity="1.000000" stroke="none" 
	d="
M640.006470,581.967896 
	C640.014099,585.456360 639.818481,588.469543 640.070190,591.444824 
	C640.665405,598.479797 644.355408,601.123474 651.214172,599.622986 
	C652.465271,599.349304 653.676270,598.892151 655.307373,598.398010 
	C656.542603,601.665161 657.964661,604.643799 658.690002,607.783386 
	C658.933105,608.835754 657.722412,610.874084 656.629578,611.486694 
	C641.848450,619.772156 623.187195,609.136780 622.983643,592.365601 
	C622.879150,583.756714 622.965332,575.145447 622.965332,566.120850 
	C619.548767,566.120850 616.624512,566.120850 613.370789,566.120850 
	C613.370789,561.646912 613.370789,557.588501 613.370789,553.087646 
	C616.275146,553.087646 619.196106,553.087646 622.736572,553.087646 
	C622.736572,547.962280 622.736572,543.246704 622.736572,538.263062 
	C628.745605,538.263062 634.130615,538.263062 639.867310,538.263062 
	C639.867310,543.056641 639.867310,547.664124 639.867310,552.870300 
	C645.070374,552.870300 649.946045,552.870300 655.035461,552.870300 
	C655.035461,557.409546 655.035461,561.348633 655.035461,565.768921 
	C650.258362,565.768921 645.509888,565.768921 640.006531,565.768921 
	C640.006531,571.302246 640.006531,576.388794 640.006470,581.967896 
z"/>
<path fill="#FBFCFC" opacity="1.000000" stroke="none" 
	d="
M177.016052,585.000000 
	C177.016052,573.699402 177.016052,562.898865 177.016052,551.862427 
	C182.581390,551.862427 187.847977,551.862427 193.400833,551.862427 
	C193.625534,553.920593 193.834946,555.838928 194.137848,558.613525 
	C200.456787,554.054688 206.540558,549.760559 214.713531,551.328857 
	C214.713531,556.185486 214.713531,560.935852 214.713531,565.674500 
	C195.959625,566.728699 194.323654,574.380615 194.195145,588.936890 
	C194.126312,596.733704 194.182907,604.531616 194.182907,612.647461 
	C188.466705,612.647461 183.057480,612.647461 177.016052,612.647461 
	C177.016052,603.667236 177.016052,594.583618 177.016052,585.000000 
z"/>
<path fill="#F8FAFA" opacity="1.000000" stroke="none" 
	d="
M396.826782,382.115784 
	C374.974731,382.115875 353.595673,382.115875 331.275879,382.115875 
	C335.046783,375.862305 338.205139,370.329315 341.723755,365.035889 
	C342.437317,363.962402 344.506622,363.295715 345.958008,363.283478 
	C360.760132,363.158691 375.564850,363.125244 390.365295,363.326111 
	C391.999542,363.348267 394.217712,364.585632 395.125977,365.950775 
	C398.477661,370.988342 401.392670,376.316498 404.814270,382.115723 
	C401.859741,382.115723 399.579742,382.115723 396.826782,382.115784 
z"/>
<path fill="#FDFEFE" opacity="1.000000" stroke="none" 
	d="
M400.033203,561.022888 
	C400.033203,578.457153 400.033203,595.393066 400.033203,612.647217 
	C394.390381,612.647217 389.004547,612.647217 383.297119,612.647217 
	C383.297119,592.565918 383.297119,572.533569 383.297119,552.055908 
	C388.536530,552.055908 393.917389,552.055908 400.033173,552.055908 
	C400.033173,554.699280 400.033173,557.611877 400.033203,561.022888 
z"/>
<path fill="#BDB7AD" opacity="1.000000" stroke="none" 
	d="
M149.783493,655.749512 
	C151.563583,651.483154 152.922241,647.393555 154.524109,643.401550 
	C154.928314,642.394226 156.253662,640.913757 156.902527,641.032715 
	C158.052872,641.243408 159.527328,642.304688 159.956253,643.374817 
	C161.710831,647.752258 163.121475,652.267578 164.804855,657.156433 
	C169.328140,651.990967 167.341064,643.916992 173.371796,640.672546 
	C173.879883,640.938782 174.387985,641.205078 174.896088,641.471313 
	C172.665680,648.202332 170.501251,654.956665 168.131668,661.638367 
	C167.788040,662.607239 166.357880,663.950012 165.613647,663.843201 
	C164.438232,663.674622 162.873840,662.653992 162.427841,661.592957 
	C160.674835,657.422791 159.294586,653.095947 157.775955,648.827271 
	C157.347885,648.819519 156.919800,648.811829 156.491714,648.804077 
	C155.062668,652.759216 153.800797,656.787720 152.114670,660.630066 
	C151.517731,661.990417 149.886581,662.896912 148.727600,664.010681 
	C147.704773,662.933472 146.204391,662.029541 145.739807,660.749695 
	C143.435181,654.401001 141.403793,647.953003 139.254044,641.473450 
	C142.468002,639.875732 143.508865,641.387634 144.443176,643.986511 
	C145.905197,648.053162 147.762421,651.977722 149.783493,655.749512 
z"/>
<path fill="#F6F8F8" opacity="1.000000" stroke="none" 
	d="
M401.871460,529.658936 
	C402.174744,536.896240 400.600220,539.675354 395.520355,541.386597 
	C390.455841,543.092651 385.509308,541.758545 382.626160,537.908936 
	C378.885590,532.914490 381.078094,525.880371 387.021149,523.808899 
	C393.081177,521.696655 398.267700,523.607788 401.871460,529.658936 
z"/>
<path fill="#B9B4AA" opacity="1.000000" stroke="none" 
	d="
M570.700195,663.743286 
	C569.378479,663.181335 567.871277,662.577576 567.607483,661.628235 
	C567.132690,659.919861 566.932556,657.853088 567.461243,656.206970 
	C568.531738,652.874268 564.283203,647.546753 570.374268,646.312317 
	C573.786560,645.620728 577.565002,646.814819 581.185913,647.039429 
	C582.857788,647.143066 584.684692,647.359436 586.205017,646.837097 
	C592.570435,644.650024 596.858826,647.247742 597.224670,653.898804 
	C597.397583,657.042358 597.254333,660.203369 596.097107,664.354675 
	C595.126404,663.345337 593.541077,662.457275 593.312988,661.301392 
	C592.838623,658.896606 593.494141,656.242737 592.882996,653.900574 
	C592.496460,652.419067 590.573181,650.214783 589.496338,650.300903 
	C587.885132,650.429688 585.470093,652.028137 585.073669,653.464294 
	C584.209534,656.594971 584.403015,660.017639 583.094910,664.385010 
	C582.110474,663.244141 580.566406,662.232544 580.266418,660.933594 
	C579.753479,658.712219 580.404419,656.209961 579.829163,654.019287 
	C579.417175,652.450073 577.643250,649.956238 576.756897,650.069336 
	C575.074646,650.283875 572.641541,651.799438 572.221863,653.262634 
	C571.284546,656.531067 571.392822,660.099487 570.700195,663.743286 
z"/>
<path fill="#BFB9AF" opacity="1.000000" stroke="none" 
	d="
M235.462326,663.948975 
	C231.234787,663.999695 227.447586,663.999695 223.280121,663.999695 
	C223.280121,656.211670 223.280121,648.850830 223.280121,641.048584 
	C227.714066,641.048584 232.185989,640.609924 236.533203,641.158813 
	C242.062805,641.856934 243.251724,645.685486 240.277283,651.592224 
	C245.195755,658.742493 244.224243,661.475464 235.462326,663.948975 
M233.293076,660.314026 
	C235.666962,660.052979 239.027679,660.529663 238.445511,656.900696 
	C238.252289,655.696289 235.057816,654.661499 233.079971,654.147949 
	C231.308060,653.687927 229.322403,654.051147 227.696075,654.051147 
	C226.034012,659.447632 228.122070,660.870728 233.293076,660.314026 
M229.683884,650.172668 
	C231.182877,650.151367 232.810211,650.487244 234.144516,650.007690 
	C235.461670,649.534363 236.482437,648.236267 237.633194,647.299927 
	C236.543091,646.228760 235.602570,644.530579 234.329422,644.226868 
	C232.182083,643.714722 229.823883,644.086426 226.316086,644.086426 
	C227.373489,646.650513 228.088821,648.385193 229.683884,650.172668 
z"/>
<path fill="#B9B4AA" opacity="1.000000" stroke="none" 
	d="
M327.387329,656.809509 
	C327.425385,659.247437 327.425385,661.216553 327.425385,663.232178 
	C323.543152,663.441772 320.056763,663.903748 316.597198,663.752686 
	C311.403412,663.525879 308.384552,659.218750 309.078094,653.575256 
	C309.666748,648.785278 313.703613,645.586670 318.492188,646.261475 
	C319.933167,646.464478 321.317261,647.071228 323.057373,647.591736 
	C323.142761,646.031006 322.998138,644.533325 323.362396,643.171814 
	C323.732666,641.787842 324.604584,640.538086 325.256836,639.229553 
	C325.954712,640.463745 327.184143,641.668457 327.254486,642.937439 
	C327.501495,647.393311 327.349701,651.871216 327.387329,656.809509 
M319.871552,650.487244 
	C316.096832,649.467285 313.784607,651.327209 313.797546,654.788025 
	C313.803925,656.496094 315.729492,659.002991 317.399628,659.719360 
	C320.265289,660.948608 322.305481,658.640503 322.579224,656.006470 
	C322.749542,654.367920 321.292358,652.560181 319.871552,650.487244 
z"/>
<path fill="#BFB9AF" opacity="1.000000" stroke="none" 
	d="
M485.360107,660.350281 
	C479.450623,665.089111 472.979980,664.127441 466.251587,663.732727 
	C466.251587,656.031433 466.251587,648.614502 466.251587,640.992615 
	C470.533508,640.992615 474.716156,640.587952 478.792542,641.074341 
	C488.173676,642.193604 491.982849,653.694031 485.360107,660.350281 
M478.638397,659.698608 
	C483.421844,657.284241 485.103851,654.103516 483.814972,649.909607 
	C482.426788,645.392578 478.101257,643.648926 470.625977,644.802185 
	C470.625977,649.738953 470.625977,654.734924 470.625977,659.920044 
	C473.246246,659.920044 475.532867,659.920044 478.638397,659.698608 
z"/>
<path fill="#BDB7AE" opacity="1.000000" stroke="none" 
	d="
M394.791229,653.422363 
	C395.225952,658.482178 393.391327,661.839600 388.892090,663.476257 
	C384.916260,664.922485 381.280762,664.035400 378.400665,661.097473 
	C374.828552,657.453613 375.314453,651.437256 379.153381,648.241211 
	C383.078156,644.973694 390.095825,645.540161 393.007751,649.466248 
	C393.776703,650.502991 394.144775,651.837158 394.791229,653.422363 
M388.928894,658.249817 
	C390.895081,655.579529 390.885803,652.661194 388.087250,651.094788 
	C386.644653,650.287354 383.458160,650.840271 382.192902,652.007202 
	C381.113007,653.003174 380.862366,656.183899 381.650177,657.635376 
	C383.026489,660.171021 385.665131,660.912109 388.928894,658.249817 
z"/>
<path fill="#BBB6AC" opacity="1.000000" stroke="none" 
	d="
M524.905640,660.709961 
	C527.375000,660.402466 529.421753,660.090088 531.468445,659.777771 
	C527.910950,664.603882 523.132385,665.031616 519.124695,662.275635 
	C515.672974,659.901855 514.236267,655.045654 516.202209,651.215088 
	C518.239197,647.246155 521.697815,645.501526 526.149353,646.278320 
	C530.799133,647.089722 533.034058,650.150024 533.141052,656.145508 
	C528.952881,656.145508 524.733398,656.145508 520.513916,656.145508 
	C520.292419,656.713623 520.070862,657.281738 519.849304,657.849854 
	C521.393860,658.801575 522.938416,659.753357 524.905640,660.709961 
M528.819885,652.005432 
	C524.446350,648.396362 522.716064,648.567139 519.406921,654.040100 
	C523.094666,653.543396 525.971069,653.155945 528.819885,652.005432 
z"/>
<path fill="#BBB6AC" opacity="1.000000" stroke="none" 
	d="
M193.206360,660.021545 
	C194.789383,660.036743 195.976913,660.182495 197.858124,660.413452 
	C193.434204,664.596680 188.517334,665.103455 184.607956,662.332825 
	C180.835831,659.659485 180.085495,655.953979 181.563065,651.784424 
	C183.120422,647.389709 186.611496,645.737000 190.985184,646.153076 
	C195.887100,646.619507 198.146179,649.522522 198.745789,656.081238 
	C194.518494,656.081238 190.325989,656.081238 185.977615,656.081238 
	C187.047714,660.467224 187.917084,660.905640 193.206360,660.021545 
M188.899658,649.584961 
	C187.637497,650.523682 186.375336,651.462341 185.113174,652.401001 
	C185.302826,652.687134 185.492493,652.973206 185.682159,653.259277 
	C188.592239,653.259277 191.502304,653.259277 194.412369,653.259277 
	C194.555801,652.733093 194.699219,652.206848 194.842636,651.680664 
	C193.098572,650.942993 191.354507,650.205383 188.899658,649.584961 
z"/>
<path fill="#BBB6AC" opacity="1.000000" stroke="none" 
	d="
M408.096619,656.411621 
	C409.872314,658.022522 412.279327,660.533997 413.191833,660.074890 
	C414.973236,659.178711 416.387726,656.777222 417.075165,654.707092 
	C417.724792,652.750732 417.049286,650.390137 417.369598,648.269714 
	C417.485321,647.503662 418.799347,646.918579 419.566589,646.250977 
	C420.133911,646.927917 421.174164,647.591980 421.193054,648.283875 
	C421.332581,653.396057 421.268616,658.513855 421.268616,663.273315 
	C417.717041,663.548340 414.654633,663.940857 411.587189,663.984619 
	C407.525818,664.042725 404.851105,661.786316 404.194427,657.924866 
	C403.670532,654.844360 403.890930,651.607605 404.076599,648.457581 
	C404.121552,647.694946 405.332672,647.001038 406.007568,646.275513 
	C406.677307,647.007385 407.840881,647.686951 407.925049,648.480896 
	C408.187286,650.953918 408.040588,653.470154 408.096619,656.411621 
z"/>
<path fill="#BDB7AD" opacity="1.000000" stroke="none" 
	d="
M546.148438,653.972168 
	C548.519165,653.819946 550.483887,653.686340 552.448669,653.552795 
	C552.671814,653.095581 552.894897,652.638367 553.118042,652.181213 
	C551.462646,651.315125 549.888977,650.056763 548.129578,649.690491 
	C546.272156,649.303833 544.237671,649.767883 542.201233,649.189148 
	C545.075012,646.044739 548.507812,645.450562 552.263611,646.692139 
	C555.694885,647.826477 557.144714,650.382629 557.050720,653.961670 
	C556.968628,657.088684 557.033630,660.219543 557.033630,663.438171 
	C553.501160,663.626526 550.263733,664.351135 547.276001,663.776672 
	C545.046814,663.348145 542.099304,661.670410 541.321777,659.785767 
	C539.987488,656.551392 542.713928,654.787170 546.148438,653.972168 
M552.869995,657.548950 
	C550.843445,657.403503 548.809265,657.132324 546.799072,657.254944 
	C546.514099,657.272278 545.802795,659.596252 546.223083,660.180664 
	C547.615662,662.117004 551.774780,660.929382 552.869995,657.548950 
z"/>
<path fill="#BDB7AE" opacity="1.000000" stroke="none" 
	d="
M253.955109,660.672485 
	C253.494003,656.364258 253.101105,652.436340 253.022110,648.502014 
	C253.007370,647.767578 254.251816,647.007874 254.915161,646.259827 
	C255.616455,647.125671 256.800385,647.928467 256.923248,648.869812 
	C257.221405,651.154541 257.089722,653.505798 257.013062,655.826355 
	C256.921112,658.610046 258.118927,660.855774 260.901794,660.190063 
	C262.813782,659.732666 264.971832,657.732544 265.767944,655.883057 
	C266.613647,653.918335 265.776276,651.289246 266.090088,649.007446 
	C266.225525,648.022583 267.406647,647.181396 268.112762,646.274963 
	C268.748444,647.094910 269.904419,647.896545 269.934174,648.737915 
	C270.108551,653.671082 270.019775,658.613586 270.019775,664.493530 
	C264.610809,661.210205 258.409943,667.063538 253.955109,660.672485 
z"/>
<path fill="#BDB7AD" opacity="1.000000" stroke="none" 
	d="
M363.930847,646.896606 
	C366.262177,644.712585 366.011505,639.798767 371.421875,641.199219 
	C369.648621,644.229797 367.765411,646.776672 366.594116,649.617126 
	C365.071808,653.308716 364.178040,657.255310 362.875214,661.044434 
	C362.510620,662.104858 361.658417,662.997559 361.029907,663.967224 
	C360.276031,663.294067 358.798889,662.517761 358.877930,661.963318 
	C359.888977,654.869629 354.833832,650.313599 351.950439,644.864197 
	C351.350708,643.730713 350.669769,642.640259 349.658508,640.895325 
	C357.420105,640.508850 356.538116,648.435547 361.124939,651.100159 
	C361.979492,649.818054 362.853943,648.506104 363.930847,646.896606 
z"/>
<path fill="#B0ADA4" opacity="1.000000" stroke="none" 
	d="
M299.305237,652.972168 
	C299.304871,656.753235 299.304871,660.046997 299.304871,663.340820 
	C298.837799,663.644653 298.370697,663.948486 297.903625,664.252380 
	C297.018768,663.286316 295.402557,662.345825 295.367706,661.350098 
	C295.141693,654.887085 295.178589,648.409790 295.355316,641.943298 
	C295.380829,641.011108 296.620514,640.112122 297.298279,639.197693 
	C297.961426,640.142151 299.128479,641.051636 299.196747,642.037292 
	C299.436890,645.505798 299.299652,649.000305 299.305237,652.972168 
z"/>
<path fill="#BFB9AF" opacity="1.000000" stroke="none" 
	d="
M504.581360,646.775146 
	C505.962006,646.865906 506.958557,647.042908 507.955170,647.219971 
	C507.508850,648.139160 507.194244,649.753296 506.595215,649.866882 
	C502.054565,650.727539 502.099854,654.081604 502.097412,657.493530 
	C502.096344,658.985291 502.333466,660.544128 501.967529,661.942993 
	C501.756866,662.748291 500.639191,663.556763 499.762878,663.831909 
	C499.399628,663.945862 498.101135,662.686096 498.079071,662.022766 
	C497.924835,657.386597 497.482819,652.669312 498.138306,648.122925 
	C498.761200,643.802490 502.231537,647.790466 504.581360,646.775146 
z"/>
<path fill="#BDB7AE" opacity="1.000000" stroke="none" 
	d="
M431.968750,648.628296 
	C432.731415,647.549927 433.428986,646.451782 434.261902,646.337097 
	C436.075409,646.087585 437.963379,646.271545 439.809479,646.420349 
	C440.523743,646.477905 441.789551,646.909241 441.794800,647.189209 
	C441.810394,648.019592 441.459259,649.504150 441.012817,649.598083 
	C435.130310,650.835205 436.333313,655.443909 435.929352,659.472290 
	C435.773834,661.023193 434.522278,662.464233 433.770142,663.955383 
	C433.168213,662.473999 432.160187,661.023071 432.046448,659.505066 
	C431.786743,656.038940 431.964813,652.540039 431.968750,648.628296 
z"/>
<path fill="#C4BBB2" opacity="1.000000" stroke="none" 
	d="
M281.270630,663.432373 
	C280.981995,658.399414 280.840820,653.748230 280.992310,649.106567 
	C281.023468,648.151611 282.147278,647.232300 282.767456,646.296570 
	C283.513000,647.276855 284.836975,648.220459 284.901733,649.243835 
	C285.153107,653.214355 285.228333,657.231995 284.844879,661.181213 
	C284.750000,662.158386 282.682465,662.943970 281.270630,663.432373 
z"/>
<path fill="#1C3928" opacity="1.000000" stroke="none" 
	d="
M355.542358,220.548035 
	C359.765930,213.614960 363.846252,207.020126 368.293457,199.832275 
	C373.405701,208.610794 378.296295,216.900665 383.024109,225.282349 
	C383.536316,226.190445 383.555634,227.886581 383.043488,228.782867 
	C378.375458,236.952179 373.538727,245.025101 368.243530,253.985397 
	C362.720734,244.927170 357.286896,236.537262 352.580505,227.757385 
	C351.836517,226.369446 354.377136,223.220825 355.542358,220.548035 
z"/>
<path fill="#1D3C2D" opacity="1.000000" stroke="none" 
	d="
M116.154999,581.963867 
	C113.371750,581.963989 111.062248,581.963989 107.941925,581.963989 
	C112.223892,571.564636 116.282799,561.706970 120.944252,550.385925 
	C125.611572,561.580566 129.727310,571.452148 134.109863,581.963745 
	C127.824699,581.963745 122.226723,581.963745 116.154999,581.963867 
z"/>
<path fill="#1B3B2C" opacity="1.000000" stroke="none" 
	d="
M509.508484,566.198853 
	C512.073059,569.467224 514.296143,572.561707 517.269531,576.700562 
	C505.521210,576.700562 495.616699,576.700562 485.713318,576.700562 
	C484.815308,566.794617 498.761444,559.916077 509.508484,566.198853 
z"/>
<path fill="#234030" opacity="1.000000" stroke="none" 
	d="
M232.847260,660.307373 
	C228.122070,660.870728 226.034012,659.447632 227.696075,654.051147 
	C229.322403,654.051147 231.308060,653.687927 233.079971,654.147949 
	C235.057816,654.661499 238.252289,655.696289 238.445511,656.900696 
	C239.027679,660.529663 235.666962,660.052979 232.847260,660.307373 
z"/>
<path fill="#234030" opacity="1.000000" stroke="none" 
	d="
M229.244019,650.146240 
	C228.088821,648.385193 227.373489,646.650513 226.316086,644.086426 
	C229.823883,644.086426 232.182083,643.714722 234.329422,644.226868 
	C235.602570,644.530579 236.543091,646.228760 237.633209,647.299927 
	C236.482437,648.236267 235.461670,649.534363 234.144516,650.007690 
	C232.810211,650.487244 231.182877,650.151367 229.244019,650.146240 
z"/>
<path fill="#203E2E" opacity="1.000000" stroke="none" 
	d="
M320.218567,650.657837 
	C321.292358,652.560181 322.749542,654.367920 322.579224,656.006470 
	C322.305481,658.640503 320.265289,660.948608 317.399628,659.719360 
	C315.729492,659.002991 313.803925,656.496094 313.797546,654.788025 
	C313.784607,651.327209 316.096832,649.467285 320.218567,650.657837 
z"/>
<path fill="#203E2E" opacity="1.000000" stroke="none" 
	d="
M478.228943,659.809326 
	C475.532867,659.920044 473.246246,659.920044 470.625977,659.920044 
	C470.625977,654.734924 470.625977,649.738953 470.625977,644.802185 
	C478.101257,643.648926 482.426788,645.392578 483.814972,649.909607 
	C485.103851,654.103516 483.421844,657.284241 478.228943,659.809326 
z"/>
<path fill="#203E2E" opacity="1.000000" stroke="none" 
	d="
M388.627411,658.509094 
	C385.665131,660.912109 383.026489,660.171021 381.650177,657.635376 
	C380.862366,656.183899 381.113007,653.003174 382.192902,652.007202 
	C383.458160,650.840271 386.644653,650.287354 388.087250,651.094788 
	C390.885803,652.661194 390.895081,655.579529 388.627411,658.509094 
z"/>
<path fill="#334C3D" opacity="1.000000" stroke="none" 
	d="
M528.833618,652.386963 
	C525.971069,653.155945 523.094666,653.543396 519.406921,654.040100 
	C522.716064,648.567139 524.446350,648.396362 528.833618,652.386963 
z"/>
<path fill="#334C3D" opacity="1.000000" stroke="none" 
	d="
M189.255051,649.526367 
	C191.354507,650.205383 193.098572,650.942993 194.842636,651.680664 
	C194.699219,652.206848 194.555801,652.733093 194.412369,653.259277 
	C191.502304,653.259277 188.592239,653.259277 185.682159,653.259277 
	C185.492493,652.973206 185.302826,652.687134 185.113174,652.401001 
	C186.375336,651.462341 187.637497,650.523682 189.255051,649.526367 
z"/>
<path fill="#234030" opacity="1.000000" stroke="none" 
	d="
M552.941406,657.978271 
	C551.774780,660.929382 547.615662,662.117004 546.223083,660.180664 
	C545.802795,659.596252 546.514099,657.272278 546.799072,657.254944 
	C548.809265,657.132324 550.843445,657.403503 552.941406,657.978271 
z"/>
</svg>