<?xml version="1.0" encoding="UTF-8"?>
<svg version="1.1" xmlns="http://www.w3.org/2000/svg" width="403" height="338">
<path d="M0 0 C132.99 0 265.98 0 403 0 C403 111.54 403 223.08 403 338 C270.01 338 137.02 338 0 338 C0 226.46 0 114.92 0 0 Z " fill="#163726" transform="translate(0,0)"/>
<path d="M0 0 C1.32 0 2.64 0 4 0 C7 5.75 7 5.75 7 8 C7.66 8 8.32 8 9 8 C10.72264494 11.29549466 12.29445932 14.33118845 13 18 C13.66 18 14.32 18 15 18 C16.46495337 20.53804678 17.92204322 23.08009717 19.375 25.625 C19.99375 26.69427734 19.99375 26.69427734 20.625 27.78515625 C22.89491074 31.77580578 24.72465011 35.55729762 26 40 C26.66 40 27.32 40 28 40 C30.04169485 42.90548882 31 44.40142046 31 48 C31.66 48 32.32 48 33 48 C33.96189997 49.72718516 34.91936508 51.45684058 35.875 53.1875 C36.40867188 54.15042969 36.94234375 55.11335938 37.4921875 56.10546875 C41.09345015 63.01877347 41.09345015 63.01877347 40.75 66.625 C40 69 40 69 38 72 C38.66 72.33 39.32 72.66 40 73 C40 73.66 40 74.32 40 75 C39.01 75.495 39.01 75.495 38 76 C38.89818082 78.84423926 39.47391464 80.59666789 41.875 82.4375 C44.0175951 83.21804122 44.0175951 83.21804122 46.125 82.25 C48.12665834 81.00408575 48.12665834 81.00408575 50 79 C52.92697454 82.8739369 55.45604704 86.72597313 57.734375 91.015625 C61.02097566 97.10033219 64.54612479 103.02120981 68.125 108.9375 C69.45315184 111.14191091 70.78127649 113.34633821 72.109375 115.55078125 C72.76486328 116.63697754 73.42035156 117.72317383 74.09570312 118.84228516 C76.86343464 123.43175174 79.61944463 128.02821631 82.375 132.625 C85.04437899 137.07572347 87.71404416 141.52625918 90.390625 145.97265625 C96.86565534 156.73409238 103.23077243 167.55901045 109.57421875 178.3984375 C113.26437026 184.69733874 116.9641694 190.98337793 120.8125 197.1875 C124.30812926 202.82944563 127.69403592 208.53131588 131.0625 214.25 C139.12131245 227.93088109 147.30390711 241.53696052 155.4921875 255.140625 C160.43597133 263.35927903 165.32052338 271.61201916 170.19482422 279.87207031 C174.40511126 287.00325172 178.64947593 294.11293578 182.921875 301.20703125 C184.07572467 303.12593342 185.22573912 305.04709626 186.375 306.96875 C186.76985596 307.6285083 187.16471191 308.2882666 187.5715332 308.96801758 C188.34410711 310.25916191 189.11610063 311.55065373 189.88745117 312.8425293 C191.88864737 316.18471022 193.94194092 319.48254699 196.0625 322.75 C198 326 198 326 198 329 C194.7715237 329.17499733 191.54427074 329.28106618 188.3125 329.375 C187.40048828 329.42527344 186.48847656 329.47554688 185.54882812 329.52734375 C178.77637238 329.67510642 178.77637238 329.67510642 175.21484375 326.578125 C174.43632249 325.41128439 173.70109396 324.21494018 173 323 C172.56534424 322.30535645 172.13068848 321.61071289 171.68286133 320.89501953 C170.1594828 318.41300159 168.70206242 315.89937225 167.25 313.375 C161.65439838 303.76895766 155.93151015 294.24909615 150.12731934 284.76824951 C145.88980857 277.8456204 141.75759065 270.8783166 137.7540741 263.81878662 C134.80504657 258.62750918 131.66582284 253.58841294 128.46875 248.546875 C127 246 127 246 127 244 C126.01 244 125.02 244 124 244 C124 244.66 124 245.32 124 246 C121.69 246.33 119.38 246.66 117 247 C115.86559534 250.50634166 115.88637486 251.7480486 117.4375 255.1875 C117.953125 256.115625 118.46875 257.04375 119 258 C119 258.66 119 259.32 119 260 C119.66 260 120.32 260 121 260 C123.79457766 263.76193147 124 265.0763803 124 270 C117.73 270.33 111.46 270.66 105 271 C105.33 272.65 105.66 274.3 106 276 C106.66 276 107.32 276 108 276 C111 281.75 111 281.75 111 284 C111.66 284 112.32 284 113 284 C113.53625 285.134375 114.0725 286.26875 114.625 287.4375 C116.67023537 291.57211251 119.14835828 295.27183769 121.828125 299.01953125 C123 301 123 301 123 304 C123.66 304 124.32 304 125 304 C125.56267578 305.16015625 125.56267578 305.16015625 126.13671875 306.34375 C128.83426062 311.83396116 131.5375328 317.14652804 135.01953125 322.18359375 C136 324 136 324 137 329 C129.74 329 122.48 329 115 329 C110 320 110 320 110 318 C109.34 318 108.68 318 108 318 C107.38125 316.4221875 107.38125 316.4221875 106.75 314.8125 C105.68247014 312.29977641 104.73727817 310.67159772 103 308.5 C101.04802179 306.06002723 100.0462938 303.79875266 98.890625 300.921875 C97.52194087 297.96839872 95.65254758 295.40383173 93.8125 292.7265625 C91.55951241 289.33736996 89.46258466 285.86777236 87.375 282.375 C87.00294434 281.75367188 86.63088867 281.13234375 86.24755859 280.4921875 C85.15846596 278.66526001 84.07843203 276.83323668 83 275 C82.61618164 274.35708008 82.23236328 273.71416016 81.83691406 273.05175781 C79 268.2287544 79 268.2287544 79 266 C78.34 266 77.68 266 77 266 C76.64808594 265.33355469 76.29617188 264.66710937 75.93359375 263.98046875 C72.66797038 257.88407003 69.17634335 252.05481434 65.3203125 246.3125 C64 244 64 244 64 241 C63.34 241 62.68 241 62 241 C61.63648438 240.24976563 61.27296875 239.49953125 60.8984375 238.7265625 C56.39074625 229.54936545 51.65565648 220.82300684 45.296875 212.7890625 C43.10657614 209.76750565 42 207.77796153 42 204 C41.34 204 40.68 204 40 204 C39.75765625 203.32453125 39.5153125 202.6490625 39.265625 201.953125 C37.41690236 197.0326786 35.95248418 193.56998571 32 190 C29 184.64285714 29 184.64285714 29 182 C28.34 182 27.68 182 27 182 C26.608125 181.175 26.21625 180.35 25.8125 179.5 C24.0487185 176.0940771 22.09154069 172.93579644 19.98828125 169.734375 C19 168 19 168 19 166 C18.34 166 17.68 166 17 166 C16.34 163.36 15.68 160.72 15 158 C14.34 158 13.68 158 13 158 C11.30859375 155.515625 11.30859375 155.515625 9.4375 152.25 C8.81746094 151.18265625 8.19742188 150.1153125 7.55859375 149.015625 C6.30080625 146.5820111 5.4727284 144.6680014 5 142 C3.02 142 1.04 142 -1 142 C-1.28875 142.9075 -1.5775 143.815 -1.875 144.75 C-2.76531776 147.32202908 -3.71494413 149.61346766 -5 152 C-5.66 152 -6.32 152 -7 152 C-7.268125 152.680625 -7.53625 153.36125 -7.8125 154.0625 C-9.16053306 157.39710809 -10.57536298 160.69743237 -12 164 C-12.66 164 -13.32 164 -14 164 C-14.17221069 164.86044922 -14.17221069 164.86044922 -14.34790039 165.73828125 C-15.06102721 168.21166458 -16.06963862 170.00795081 -17.43359375 172.1875 C-17.91763672 172.96867188 -18.40167969 173.74984375 -18.90039062 174.5546875 C-19.40763672 175.36164063 -19.91488281 176.16859375 -20.4375 177 C-21.43762678 178.60327622 -22.43637436 180.2074138 -23.43359375 181.8125 C-24.09959595 182.87404297 -24.09959595 182.87404297 -24.77905273 183.95703125 C-25.95840809 185.9304057 -27.00049132 187.93064792 -28 190 C-28.66 190 -29.32 190 -30 190 C-30.99 193.3 -31.98 196.6 -33 200 C-33.66 200 -34.32 200 -35 200 C-35.33 201.32 -35.66 202.64 -36 204 C-36.66 204 -37.32 204 -38 204 C-38 204.66 -38 205.32 -38 206 C-38.66 206 -39.32 206 -40 206 C-40.12375 206.721875 -40.2475 207.44375 -40.375 208.1875 C-40.9904931 210.95721894 -41.88444374 213.3970354 -43 216 C-43.66 216 -44.32 216 -45 216 C-45.185625 217.2065625 -45.185625 217.2065625 -45.375 218.4375 C-45.58125 219.283125 -45.7875 220.12875 -46 221 C-46.66 221.33 -47.32 221.66 -48 222 C-48.309375 222.969375 -48.61875 223.93875 -48.9375 224.9375 C-50 228 -50 228 -53 230 C-53.75411962 231.67217829 -54.50129071 233.34883312 -55.17578125 235.0546875 C-56.50860596 238.20040648 -58.26901138 241.05731935 -60 244 C-60.33 244.66 -60.66 245.32 -61 246 C-61.66 246 -62.32 246 -63 246 C-63.12246094 246.57234375 -63.24492187 247.1446875 -63.37109375 247.734375 C-64.02762868 250.09953191 -64.93723512 252.07206797 -66.0625 254.25 C-66.42472656 254.95640625 -66.78695312 255.6628125 -67.16015625 256.390625 C-67.43730469 256.92171875 -67.71445313 257.4528125 -68 258 C-68.66 258 -69.32 258 -70 258 C-70.268125 258.680625 -70.53625 259.36125 -70.8125 260.0625 C-72.16053306 263.39710809 -73.57536298 266.69743237 -75 270 C-75.99 270 -76.98 270 -78 270 C-78.66 272.64 -79.32 275.28 -80 278 C-80.66 278 -81.32 278 -82 278 C-82.268125 278.680625 -82.53625 279.36125 -82.8125 280.0625 C-84.16053306 283.39710809 -85.57536298 286.69743237 -87 290 C-87.66 290 -88.32 290 -89 290 C-89.309375 290.94875 -89.61875 291.8975 -89.9375 292.875 C-91 296 -91 296 -92 298 C-92.66 298 -93.32 298 -94 298 C-94.33 299.32 -94.66 300.64 -95 302 C-95.66 302 -96.32 302 -97 302 C-97.103125 302.86625 -97.20625 303.7325 -97.3125 304.625 C-98.03398414 308.16683123 -99.27123261 310.84312042 -101 314 C-101.66 314 -102.32 314 -103 314 C-103 314.66 -103 315.32 -103 316 C-103.66 316 -104.32 316 -105 316 C-105.103125 316.763125 -105.20625 317.52625 -105.3125 318.3125 C-106.07649814 321.29903817 -106.79749935 321.96692248 -109 324 C-109.30808594 324.84949219 -109.61617187 325.69898438 -109.93359375 326.57421875 C-112 329 -112 329 -114.20996094 329.40673828 C-117.05018306 329.49326092 -119.8486136 329.43430041 -122.6875 329.3125 C-123.67556641 329.28994141 -124.66363281 329.26738281 -125.68164062 329.24414062 C-128.12261559 329.18517988 -130.56054868 329.10295048 -133 329 C-131.54582511 324.53631534 -129.88849313 320.29202983 -128 316 C-127.34 316 -126.68 316 -126 316 C-125.75507812 315.16210938 -125.51015625 314.32421875 -125.2578125 313.4609375 C-123.838539 309.55573153 -121.98142234 306.19028729 -119.875 302.625 C-119.50246094 301.98433594 -119.12992188 301.34367187 -118.74609375 300.68359375 C-117.83565998 299.11951523 -116.91851809 297.55934466 -116 296 C-115.34 296 -114.68 296 -114 296 C-113.7628125 295.16726563 -113.525625 294.33453125 -113.28125 293.4765625 C-111.78842663 289.42591373 -109.77556107 286.02462191 -107.5 282.375 C-106.69661949 281.07111086 -105.8944969 279.76644565 -105.09375 278.4609375 C-104.72507812 277.85991211 -104.35640625 277.25888672 -103.9765625 276.63964844 C-102.88357469 274.8045219 -101.9038029 272.93531708 -101 271 C-105.15626368 269.99073521 -109.04365094 269.89760421 -113.3125 269.9375 C-114.56675781 269.94652344 -115.82101563 269.95554687 -117.11328125 269.96484375 C-118.06589844 269.97644531 -119.01851562 269.98804688 -120 270 C-119.67 268.02 -119.34 266.04 -119 264 C-118.34 264 -117.68 264 -117 264 C-116.62875 262.7625 -116.62875 262.7625 -116.25 261.5 C-115.27311245 258.76471485 -114.23002537 256.35500926 -112.921875 253.78125 C-112.5619043 253.07033203 -112.20193359 252.35941406 -111.83105469 251.62695312 C-111.55680664 251.09005859 -111.28255859 250.55316406 -111 250 C-110.31897217 249.97494385 -109.63794434 249.9498877 -108.9362793 249.92407227 C-105.85316245 249.80809048 -102.77034954 249.68537384 -99.6875 249.5625 C-98.61564453 249.52318359 -97.54378906 249.48386719 -96.43945312 249.44335938 C-94.89741211 249.38051758 -94.89741211 249.38051758 -93.32421875 249.31640625 C-92.37635498 249.27974854 -91.42849121 249.24309082 -90.4519043 249.20532227 C-87.863829 249.08569813 -87.863829 249.08569813 -85 248 C-84.5129375 246.34146822 -84.03569637 244.67908925 -83.62109375 243.00097656 C-82.52251168 239.46167677 -80.47757827 236.48352559 -78.5 233.375 C-75.96338581 229.33910906 -73.59473588 225.52419637 -72 221 C-73.12019531 221.01160156 -74.24039063 221.02320313 -75.39453125 221.03515625 C-76.86718583 221.04453622 -78.33984222 221.0536362 -79.8125 221.0625 C-80.55048828 221.07087891 -81.28847656 221.07925781 -82.04882812 221.08789062 C-85.29922068 221.10259828 -87.89404895 221.03531702 -91 220 C-91 218.68 -91 217.36 -91 216 C-90.34 216 -89.68 216 -89 216 C-88.01 213.03 -88.01 213.03 -87 210 C-86.34 210 -85.68 210 -85 210 C-84.71125 208.88625 -84.4225 207.7725 -84.125 206.625 C-83 203 -83 203 -81 201 C-78.81689453 200.77636719 -78.81689453 200.77636719 -76.1328125 200.796875 C-75.16472656 200.78527344 -74.19664063 200.77367187 -73.19921875 200.76171875 C-71.15755197 200.75393603 -69.11576481 200.76163011 -67.07421875 200.78515625 C-64.26400381 200.73663992 -61.7366986 200.64753765 -59 200 C-56.36658751 197.13313091 -56.36658751 197.13313091 -55 194 C-54.34 194 -53.68 194 -53 194 C-52.83177734 193.17242187 -52.83177734 193.17242187 -52.66015625 192.328125 C-51.88639227 189.59934789 -50.73182306 187.27227057 -49.4375 184.75 C-48.98246094 183.85796875 -48.52742188 182.9659375 -48.05859375 182.046875 C-47.53458984 181.03367188 -47.53458984 181.03367188 -47 180 C-46.01 180 -45.02 180 -44 180 C-43.9175 179.319375 -43.835 178.63875 -43.75 177.9375 C-42.96654816 174.86898029 -41.67964728 172.48556262 -40.0546875 169.78125 C-38.56049299 167.25772149 -37.28513809 164.63453308 -36 162 C-35.34 162 -34.68 162 -34 162 C-33.75378906 161.14792969 -33.50757813 160.29585937 -33.25390625 159.41796875 C-31.66195406 155.07853522 -29.32040136 151.46884707 -26.83398438 147.59179688 C-25.23041041 145.0634261 -23.95200999 142.85602998 -23 140 C-22.34 140 -21.68 140 -21 140 C-21 139.34 -21 138.68 -21 138 C-20.34 138 -19.68 138 -19 138 C-18.505 135.03 -18.505 135.03 -18 132 C-17.34 132 -16.68 132 -16 132 C-15.82984375 131.40832031 -15.6596875 130.81664062 -15.484375 130.20703125 C-14.2906956 126.31487447 -13.39674481 123.47388963 -10.75 120.3125 C-8.66187927 118.07466286 -8.66187927 118.07466286 -9.1875 114.9375 C-9.5896875 113.4834375 -9.5896875 113.4834375 -10 112 C-10.185625 111.21625 -10.37125 110.4325 -10.5625 109.625 C-10.7790625 108.820625 -10.7790625 108.820625 -11 108 C-11.66 108 -12.32 108 -13 108 C-13.67154933 106.71086513 -14.33708859 105.41859796 -15 104.125 C-15.37125 103.40570313 -15.7425 102.68640625 -16.125 101.9453125 C-17 100 -17 100 -17 98 C-17.66 98 -18.32 98 -19 98 C-23 91.375 -23 91.375 -23 88 C-23.66 88 -24.32 88 -25 88 C-34 75.31476323 -34 75.31476323 -34 70 C-34.66 70 -35.32 70 -36 70 C-37.4783226 67.04335481 -37.06032783 64.25770263 -37 61 C-36.34 61 -35.68 61 -35 61 C-34.92652344 60.48308594 -34.85304688 59.96617188 -34.77734375 59.43359375 C-33.65812164 55.92969741 -31.59980362 53.08816688 -29.5625 50.0625 C-26.93121928 46.14259839 -24.5615625 42.49695867 -23 38 C-22.34 38 -21.68 38 -21 38 C-20.731875 37.0925 -20.46375 36.185 -20.1875 35.25 C-19.08829381 32.24164622 -17.91391727 30.49641383 -16 28 C-15.29485154 25.85266073 -15.29485154 25.85266073 -15 24 C-14.34 24 -13.68 24 -13 24 C-12.731875 23.278125 -12.46375 22.55625 -12.1875 21.8125 C-11.00524866 19.01243104 -9.58049288 16.59200833 -8 14 C-6.9849911 12.00757511 -5.98126556 10.00925805 -5 8 C-4.34 8 -3.68 8 -3 8 C-2.690625 7.05125 -2.38125 6.1025 -2.0625 5.125 C-1 2 -1 2 0 0 Z " fill="#C4BBB2" transform="translate(199,3)"/>
<path d="M0 0 C0.99 0 1.98 0 3 0 C3 0.66 3 1.32 3 2 C2.01 2.495 2.01 2.495 1 3 C1.89818082 5.84423926 2.47391464 7.59666789 4.875 9.4375 C7.0175951 10.21804122 7.0175951 10.21804122 9.125 9.25 C11.12665834 8.00408575 11.12665834 8.00408575 13 6 C15.92697454 9.8739369 18.45604704 13.72597313 20.734375 18.015625 C24.02097566 24.10033219 27.54612479 30.02120981 31.125 35.9375 C32.45315184 38.14191091 33.78127649 40.34633821 35.109375 42.55078125 C35.76486328 43.63697754 36.42035156 44.72317383 37.09570312 45.84228516 C39.86343464 50.43175174 42.61944463 55.02821631 45.375 59.625 C48.04437899 64.07572347 50.71404416 68.52625918 53.390625 72.97265625 C59.86565534 83.73409238 66.23077243 94.55901045 72.57421875 105.3984375 C76.26437026 111.69733874 79.9641694 117.98337793 83.8125 124.1875 C87.30812926 129.82944563 90.69403592 135.53131588 94.0625 141.25 C102.12131245 154.93088109 110.30390711 168.53696052 118.4921875 182.140625 C123.43597133 190.35927903 128.32052338 198.61201916 133.19482422 206.87207031 C137.40511126 214.00325172 141.64947593 221.11293578 145.921875 228.20703125 C147.07572467 230.12593342 148.22573912 232.04709626 149.375 233.96875 C149.76985596 234.6285083 150.16471191 235.2882666 150.5715332 235.96801758 C151.34410711 237.25916191 152.11610063 238.55065373 152.88745117 239.8425293 C154.88864737 243.18471022 156.94194092 246.48254699 159.0625 249.75 C161 253 161 253 161 256 C157.7715237 256.17499733 154.54427074 256.28106618 151.3125 256.375 C150.40048828 256.42527344 149.48847656 256.47554688 148.54882812 256.52734375 C141.77637238 256.67510642 141.77637238 256.67510642 138.21484375 253.578125 C137.43632249 252.41128439 136.70109396 251.21494018 136 250 C135.34801636 248.95803467 135.34801636 248.95803467 134.68286133 247.89501953 C133.1594828 245.41300159 131.70206242 242.89937225 130.25 240.375 C124.65439838 230.76895766 118.93151015 221.24909615 113.12731934 211.76824951 C108.88980857 204.8456204 104.75759065 197.8783166 100.7540741 190.81878662 C97.80504657 185.62750918 94.66582284 180.58841294 91.46875 175.546875 C90 173 90 173 90 171 C89.01 171 88.02 171 87 171 C87 171.66 87 172.32 87 173 C85.88625 173.103125 84.7725 173.20625 83.625 173.3125 C81.830625 173.6528125 81.830625 173.6528125 80 174 C79.34 174.99 78.68 175.98 78 177 C74.41672211 177.66319894 70.76230775 177.46291956 67.125 177.4375 C66.11824219 177.45748047 65.11148438 177.47746094 64.07421875 177.49804688 C56.69871279 177.49314946 56.69871279 177.49314946 53.3046875 175.09765625 C52 173 52 173 52 171 C51.34 171 50.68 171 50 171 C48.83350024 168.90959113 47.67032999 166.81745194 46.51171875 164.72265625 C45.4606759 162.82969276 44.40005985 160.94202592 43.33203125 159.05859375 C42.51798828 157.60646484 42.51798828 157.60646484 41.6875 156.125 C41.17574219 155.22007812 40.66398437 154.31515625 40.13671875 153.3828125 C39 151 39 151 39 148 C45.27 147.67 51.54 147.34 58 147 C56.3603125 143.9371875 56.3603125 143.9371875 54.6875 140.8125 C54.07261719 139.66394531 53.45773437 138.51539063 52.82421875 137.33203125 C52.22222656 136.23246094 51.62023437 135.13289062 51 134 C50.66484375 133.04222656 50.3296875 132.08445313 49.984375 131.09765625 C47.4544447 128.42330079 46.42690825 128.6577783 42.81640625 128.5390625 C39.6677663 128.54709987 36.52783739 128.62610648 33.38085938 128.7265625 C25.767185 128.7265625 25.767185 128.7265625 23.38623047 126.47167969 C21.95939875 124.04524899 21 121.8459744 21 119 C20.34 119 19.68 119 19 119 C18.03810003 117.27281484 17.08063492 115.54315942 16.125 113.8125 C15.59132812 112.84957031 15.05765625 111.88664062 14.5078125 110.89453125 C13.1576322 108.30260482 12.02901671 105.73238902 11 103 C10.34 103 9.68 103 9 103 C8.75765625 102.41992188 8.5153125 101.83984375 8.265625 101.2421875 C6.2179198 96.46945923 3.97604083 92.27805869 1 88 C0.02299634 86.2666064 -0.95392326 84.53315884 -1.92578125 82.796875 C-3.066506 80.8887536 -4.31607889 79.10890786 -5.625 77.3125 C-10 71.29519231 -10 71.29519231 -10 67 C-10.66 67 -11.32 67 -12 67 C-12.70576172 65.67935547 -12.70576172 65.67935547 -13.42578125 64.33203125 C-14.35970703 62.58986328 -14.35970703 62.58986328 -15.3125 60.8125 C-15.92738281 59.66394531 -16.54226562 58.51539063 -17.17578125 57.33203125 C-19.20581061 53.62407612 -21.2415295 50.02935282 -23.75 46.625 C-25.50231506 42.94513836 -25.109867 40.8845345 -24 37 C-21.6875 34.5 -21.6875 34.5 -19 32 C-16.67011241 28.60897548 -14.65772382 25.1107739 -14 21 C-13.34 21 -12.68 21 -12 21 C-12 20.34 -12 19.68 -12 19 C-11.34 19 -10.68 19 -10 19 C-9.88785156 18.27425781 -9.77570313 17.54851562 -9.66015625 16.80078125 C-8.97038613 13.87436007 -7.94489186 11.77712191 -6.4375 9.1875 C-5.98246094 8.39730469 -5.52742188 7.60710937 -5.05859375 6.79296875 C-4.70925781 6.20128906 -4.35992187 5.60960938 -4 5 C-3.34 5 -2.68 5 -2 5 C-1.34 3.35 -0.68 1.7 0 0 Z " fill="#173827" transform="translate(236,76)"/>
<path d="M0 0 C2.75785965 1.12220009 3.27724669 2.44602146 4.59765625 5.078125 C5.0153125 5.88894531 5.43296875 6.69976562 5.86328125 7.53515625 C6.25 8.29183594 6.63671875 9.04851562 7.03515625 9.828125 C7.63328125 10.7975 8.23140625 11.766875 8.84765625 12.765625 C10.03515625 14.828125 10.03515625 14.828125 10.03515625 16.828125 C10.69515625 16.828125 11.35515625 16.828125 12.03515625 16.828125 C13.79978308 19.91622195 14.03515625 21.06124636 14.03515625 24.828125 C14.69515625 24.828125 15.35515625 24.828125 16.03515625 24.828125 C16.36128906 25.43140625 16.68742187 26.0346875 17.0234375 26.65625 C17.46042969 27.45546875 17.89742188 28.2546875 18.34765625 29.078125 C18.99154297 30.26148438 18.99154297 30.26148438 19.6484375 31.46875 C20.97934812 33.85674019 20.97934812 33.85674019 22.703125 35.9375 C24.03515625 37.828125 24.03515625 37.828125 24.03515625 40.828125 C24.69515625 40.828125 25.35515625 40.828125 26.03515625 40.828125 C28.0768511 43.73361382 29.03515625 45.22954546 29.03515625 48.828125 C29.64875 49.07820313 30.26234375 49.32828125 30.89453125 49.5859375 C33.39796308 51.03865889 34.05609266 52.11818968 35.28515625 54.703125 C35.78789062 55.72019531 35.78789062 55.72019531 36.30078125 56.7578125 C37.03515625 58.828125 37.03515625 58.828125 37.03515625 62.828125 C37.69515625 62.828125 38.35515625 62.828125 39.03515625 62.828125 C39.55078125 63.941875 40.06640625 65.055625 40.59765625 66.203125 C42.22782614 69.47486456 44.07088325 72.37569227 46.22265625 75.328125 C49.44387551 79.81682402 52.24815278 84.46610436 54.97265625 89.265625 C55.37444092 89.96429688 55.77622559 90.66296875 56.19018555 91.3828125 C59.03515625 96.46254266 59.03515625 96.46254266 59.03515625 99.828125 C59.69515625 99.828125 60.35515625 99.828125 61.03515625 99.828125 C61.55078125 100.92125 62.06640625 102.014375 62.59765625 103.140625 C64.92605904 107.85648427 67.80167867 112.15464685 70.7421875 116.5078125 C71.16886719 117.27351563 71.59554687 118.03921875 72.03515625 118.828125 C71.70515625 119.488125 71.37515625 120.148125 71.03515625 120.828125 C70.37515625 120.828125 69.71515625 120.828125 69.03515625 120.828125 C69.03515625 121.488125 69.03515625 122.148125 69.03515625 122.828125 C68.37515625 122.828125 67.71515625 122.828125 67.03515625 122.828125 C66.70515625 123.488125 66.37515625 124.148125 66.03515625 124.828125 C66.03515625 124.168125 66.03515625 123.508125 66.03515625 122.828125 C65.37515625 123.488125 64.71515625 124.148125 64.03515625 124.828125 C64.36515625 125.818125 64.69515625 126.808125 65.03515625 127.828125 C21.80515625 127.828125 -21.42484375 127.828125 -65.96484375 127.828125 C-65.30484375 125.848125 -64.64484375 123.868125 -63.96484375 121.828125 C-63.96484375 120.838125 -63.96484375 119.848125 -63.96484375 118.828125 C-64.95484375 118.498125 -65.94484375 118.168125 -66.96484375 117.828125 C-68.65998512 118.77905797 -70.32852483 119.77920262 -71.96484375 120.828125 C-72.62484375 120.828125 -73.28484375 120.828125 -73.96484375 120.828125 C-73.63484375 119.508125 -73.30484375 118.188125 -72.96484375 116.828125 C-72.30484375 116.828125 -71.64484375 116.828125 -70.96484375 116.828125 C-70.69671875 115.77625 -70.42859375 114.724375 -70.15234375 113.640625 C-69.09232156 110.23739588 -68.05096071 107.69653582 -65.96484375 104.828125 C-65.30484375 104.828125 -64.64484375 104.828125 -63.96484375 104.828125 C-63.71734375 103.961875 -63.46984375 103.095625 -63.21484375 102.203125 C-61.8918614 98.63107264 -60.10153499 95.96639026 -57.96484375 92.828125 C-57.61421875 91.9 -57.26359375 90.971875 -56.90234375 90.015625 C-56.43828125 88.9328125 -56.43828125 88.9328125 -55.96484375 87.828125 C-54.47984375 87.333125 -54.47984375 87.333125 -52.96484375 86.828125 C-51.73514497 83.31621691 -51.73514497 83.31621691 -50.96484375 79.828125 C-50.30484375 79.828125 -49.64484375 79.828125 -48.96484375 79.828125 C-48.63484375 78.178125 -48.30484375 76.528125 -47.96484375 74.828125 C-47.30484375 74.828125 -46.64484375 74.828125 -45.96484375 74.828125 C-44.97484375 71.528125 -43.98484375 68.228125 -42.96484375 64.828125 C-42.30484375 64.828125 -41.64484375 64.828125 -40.96484375 64.828125 C-40.96484375 64.168125 -40.96484375 63.508125 -40.96484375 62.828125 C-40.30484375 62.828125 -39.64484375 62.828125 -38.96484375 62.828125 C-38.63484375 61.508125 -38.30484375 60.188125 -37.96484375 58.828125 C-37.30484375 58.828125 -36.64484375 58.828125 -35.96484375 58.828125 C-35.69671875 57.57 -35.42859375 56.311875 -35.15234375 55.015625 C-34.43095647 51.6306539 -33.45582117 50.18531591 -30.96484375 47.828125 C-30.08279966 46.03011204 -29.20412792 44.23035564 -28.34375 42.421875 C-26.1729784 38.33861058 -23.60411769 34.51687315 -21.05029297 30.66479492 C-19.33758059 28.06183267 -17.95543845 25.7999091 -16.96484375 22.828125 C-16.30484375 22.828125 -15.64484375 22.828125 -14.96484375 22.828125 C-14.88234375 22.1475 -14.79984375 21.466875 -14.71484375 20.765625 C-13.74151847 16.9534343 -12.0067692 14.18742171 -9.96484375 10.828125 C-9.30484375 10.828125 -8.64484375 10.828125 -7.96484375 10.828125 C-7.67609375 9.920625 -7.38734375 9.013125 -7.08984375 8.078125 C-4.16738197 -0.36454236 -4.16738197 -0.36454236 0 0 Z " fill="#183827" transform="translate(201.96484375,144.171875)"/>
<path d="M0 0 C2.59820781 3.36287023 4.96049851 6.86015392 7.25 10.4375 C7.81460938 11.27764648 7.81460938 11.27764648 8.390625 12.13476562 C10.04655417 14.74346287 11.02250346 16.48164439 10.88671875 19.609375 C7.82547742 27.86258952 2.63254661 35.26924823 -2.04907227 42.68188477 C-5.51584172 48.182869 -8.83558168 53.75861542 -12.11499023 59.37280273 C-15.30785723 64.83527579 -18.54955569 70.26662217 -21.8125 75.6875 C-26.13735661 82.87646298 -30.42524303 90.08624902 -34.6875 97.3125 C-39.31102162 105.14959536 -43.96245645 112.96841002 -48.65527344 120.76416016 C-51.60792717 125.67345624 -54.55308041 130.58726058 -57.5 135.5 C-64.81193961 147.68956026 -64.81193961 147.68956026 -67.5078125 152.16796875 C-72.39757348 160.29411829 -77.23222867 168.45201604 -82.04541016 176.6237793 C-85.1144557 181.82934898 -88.20752644 187.01973863 -91.3203125 192.19921875 C-94.44607436 197.40052854 -97.55598382 202.6108472 -100.6484375 207.83203125 C-101.03373627 208.48254959 -101.41903503 209.13306793 -101.81600952 209.80329895 C-102.60175334 211.13006963 -103.38746889 212.45685706 -104.17315674 213.78366089 C-109.94583795 223.52856006 -115.72280973 233.27025903 -121.625 242.9375 C-122.06763184 243.66364502 -122.51026367 244.38979004 -122.96630859 245.13793945 C-125.87015418 249.87015418 -125.87015418 249.87015418 -127 251 C-128.56172745 251.08685603 -130.12729344 251.10702219 -131.69140625 251.09765625 C-132.63564453 251.09443359 -133.57988281 251.09121094 -134.55273438 251.08789062 C-135.54595703 251.07951172 -136.53917969 251.07113281 -137.5625 251.0625 C-138.55958984 251.05798828 -139.55667969 251.05347656 -140.58398438 251.04882812 C-143.05604849 251.03700007 -145.52799518 251.02051849 -148 251 C-147.35551268 247.77847627 -146.20259211 245.38053542 -144.515625 242.5703125 C-143.99895264 241.7033374 -143.48228027 240.8363623 -142.94995117 239.94311523 C-142.38896729 239.01313721 -141.8279834 238.08315918 -141.25 237.125 C-140.0636176 235.13943313 -138.87742517 233.15375275 -137.69140625 231.16796875 C-137.08055176 230.14880371 -136.46969727 229.12963867 -135.84033203 228.07958984 C-132.41897831 222.35433701 -129.04615777 216.60032195 -125.66699219 210.85009766 C-122.87411328 206.11493976 -120.03012901 201.41667616 -117.13671875 196.7421875 C-113.22225147 190.40139367 -109.45004255 183.98487255 -105.70458984 177.54321289 C-95.883151 160.66108792 -95.883151 160.66108792 -91 153 C-86.34886664 145.69702946 -81.99015991 138.22574264 -77.625 130.75 C-77.06936371 129.7984906 -77.06936371 129.7984906 -76.50250244 128.82775879 C-76.13316589 128.19527222 -75.76382935 127.56278564 -75.38330078 126.91113281 C-69.84383635 117.42608419 -64.22986009 107.9889454 -58.55712891 98.58300781 C-55.55339199 93.60032726 -52.55752995 88.61291772 -49.5625 83.625 C-48.61552246 82.0479126 -48.61552246 82.0479126 -47.64941406 80.43896484 C-42.89949546 72.51959055 -38.19187839 64.57592038 -33.5012207 56.62133789 C-29.3868962 49.64609736 -25.23436172 42.69492327 -21.05615234 35.7578125 C-19.96700477 33.94508422 -18.88327031 32.12921148 -17.80078125 30.3125 C-13.36251119 22.87306785 -8.8447434 15.49359829 -4.18579102 8.18969727 C-2.47099003 5.47869494 -1.01876463 3.05629389 0 0 Z " fill="#FBFBFB" transform="translate(153,81)"/>
<path d="M0 0 C2.81956582 2.53502248 4.60271067 5.39277961 6.5625 8.625 C6.90982178 9.19637695 7.25714355 9.76775391 7.61499023 10.35644531 C10.72621137 15.49570641 13.76386895 20.67844791 16.79956055 25.86254883 C20.61578657 32.37132243 24.49023827 38.84444042 28.375 45.3125 C29.01663086 46.38081055 29.65826172 47.44912109 30.31933594 48.54980469 C32.77288618 52.63327524 35.22770644 56.71598075 37.68310547 60.79833984 C44.95100347 72.88330715 52.15134742 85.00481421 59.2734375 97.17626953 C65.45300407 107.73577814 65.45300407 107.73577814 71.8125 118.1875 C75.30812926 123.82944563 78.69403592 129.53131588 82.0625 135.25 C90.12131245 148.93088109 98.30390711 162.53696052 106.4921875 176.140625 C111.43597133 184.35927903 116.32052338 192.61201916 121.19482422 200.87207031 C125.40511126 208.00325172 129.64947593 215.11293578 133.921875 222.20703125 C135.07572467 224.12593342 136.22573912 226.04709626 137.375 227.96875 C137.76985596 228.6285083 138.16471191 229.2882666 138.5715332 229.96801758 C139.34410711 231.25916191 140.11610063 232.55065373 140.88745117 233.8425293 C142.88864737 237.18471022 144.94194092 240.48254699 147.0625 243.75 C149 247 149 247 149 250 C145.7715237 250.17499733 142.54427074 250.28106618 139.3125 250.375 C138.40048828 250.42527344 137.48847656 250.47554687 136.54882812 250.52734375 C129.77637238 250.67510642 129.77637238 250.67510642 126.21484375 247.578125 C125.43632249 246.41128439 124.70109396 245.21494018 124 244 C123.34801636 242.95803467 123.34801636 242.95803467 122.68286133 241.89501953 C121.1594828 239.41300159 119.70206242 236.89937225 118.25 234.375 C112.65439838 224.76895766 106.93151015 215.24909615 101.12731934 205.76824951 C96.95703123 198.95543902 92.88458836 192.10139148 88.94262695 185.15496826 C85.61474606 179.29826583 82.16380116 173.51945641 78.6875 167.75 C78.04377441 166.67878906 77.40004883 165.60757813 76.73681641 164.50390625 C72.39345018 157.28544503 68.02117802 150.08499754 63.58862305 142.92089844 C61.03938886 138.78138644 58.64376506 134.57977806 56.29931641 130.32128906 C54.0401381 126.28516216 51.64140651 122.33372625 49.25 118.375 C48.18228181 116.60156844 47.11457355 114.82813089 46.046875 113.0546875 C45.52673828 112.19198242 45.00660156 111.32927734 44.47070312 110.44042969 C42.47561646 107.12985759 40.48738053 103.81520172 38.5 100.5 C36.11587207 96.52447879 33.72973835 92.55018276 31.33984375 88.578125 C26.85733492 81.12338453 22.38629955 73.66231473 17.95703125 66.17578125 C17.60881821 65.58733429 17.26060516 64.99888733 16.90184021 64.39260864 C15.19372594 61.50531972 13.48727606 58.61707254 11.78295898 55.72753906 C6.44736793 46.69922329 0.99810599 37.74619738 -4.6015625 28.87890625 C-5.60316406 27.23728516 -5.60316406 27.23728516 -6.625 25.5625 C-7.31851563 24.45003906 -8.01203125 23.33757812 -8.7265625 22.19140625 C-10 19 -10 19 -9.46875 16.01953125 C-7.79857119 12.58589237 -5.93133994 9.33666874 -3.875 6.125 C-3.50246094 5.53203125 -3.12992188 4.9390625 -2.74609375 4.328125 C-1.83635 2.8818657 -0.91896202 1.44041954 0 0 Z " fill="#FBFBFB" transform="translate(248,82)"/>
<path d="M0 0 C2.75785965 1.12220009 3.27724669 2.44602146 4.59765625 5.078125 C5.0153125 5.88894531 5.43296875 6.69976562 5.86328125 7.53515625 C6.25 8.29183594 6.63671875 9.04851562 7.03515625 9.828125 C7.63328125 10.7975 8.23140625 11.766875 8.84765625 12.765625 C10.03515625 14.828125 10.03515625 14.828125 10.03515625 16.828125 C10.69515625 16.828125 11.35515625 16.828125 12.03515625 16.828125 C13.79978308 19.91622195 14.03515625 21.06124636 14.03515625 24.828125 C14.69515625 24.828125 15.35515625 24.828125 16.03515625 24.828125 C16.36128906 25.43140625 16.68742187 26.0346875 17.0234375 26.65625 C17.46042969 27.45546875 17.89742188 28.2546875 18.34765625 29.078125 C18.99154297 30.26148438 18.99154297 30.26148438 19.6484375 31.46875 C20.97934812 33.85674019 20.97934812 33.85674019 22.703125 35.9375 C24.03515625 37.828125 24.03515625 37.828125 24.03515625 40.828125 C24.69515625 40.828125 25.35515625 40.828125 26.03515625 40.828125 C28.0768511 43.73361382 29.03515625 45.22954546 29.03515625 48.828125 C29.64875 49.07820313 30.26234375 49.32828125 30.89453125 49.5859375 C33.39796308 51.03865889 34.05609266 52.11818968 35.28515625 54.703125 C35.78789062 55.72019531 35.78789062 55.72019531 36.30078125 56.7578125 C37.03515625 58.828125 37.03515625 58.828125 37.03515625 62.828125 C37.69515625 62.828125 38.35515625 62.828125 39.03515625 62.828125 C39.03515625 63.488125 39.03515625 64.148125 39.03515625 64.828125 C38.37515625 64.828125 37.71515625 64.828125 37.03515625 64.828125 C37.26203125 65.385 37.48890625 65.941875 37.72265625 66.515625 C38.15856358 69.74133922 36.69899811 71.09942434 35.03515625 73.828125 C35.03515625 75.478125 35.03515625 77.128125 35.03515625 78.828125 C11.27515625 78.828125 -12.48484375 78.828125 -36.96484375 78.828125 C-37.62484375 77.178125 -38.28484375 75.528125 -38.96484375 73.828125 C-41.989039 74.41616297 -44.98242828 75.05490618 -47.96484375 75.828125 C-46.97484375 75.333125 -46.97484375 75.333125 -45.96484375 74.828125 C-45.05453103 72.48425691 -45.05453103 72.48425691 -44.33984375 69.765625 C-44.07945312 68.84652344 -43.8190625 67.92742187 -43.55078125 66.98046875 C-43.35742188 66.27019531 -43.1640625 65.55992187 -42.96484375 64.828125 C-42.30484375 64.828125 -41.64484375 64.828125 -40.96484375 64.828125 C-40.96484375 64.168125 -40.96484375 63.508125 -40.96484375 62.828125 C-40.30484375 62.828125 -39.64484375 62.828125 -38.96484375 62.828125 C-38.63484375 61.508125 -38.30484375 60.188125 -37.96484375 58.828125 C-37.30484375 58.828125 -36.64484375 58.828125 -35.96484375 58.828125 C-35.69671875 57.57 -35.42859375 56.311875 -35.15234375 55.015625 C-34.43095647 51.6306539 -33.45582117 50.18531591 -30.96484375 47.828125 C-30.08279966 46.03011204 -29.20412792 44.23035564 -28.34375 42.421875 C-26.1729784 38.33861058 -23.60411769 34.51687315 -21.05029297 30.66479492 C-19.33758059 28.06183267 -17.95543845 25.7999091 -16.96484375 22.828125 C-16.30484375 22.828125 -15.64484375 22.828125 -14.96484375 22.828125 C-14.88234375 22.1475 -14.79984375 21.466875 -14.71484375 20.765625 C-13.74151847 16.9534343 -12.0067692 14.18742171 -9.96484375 10.828125 C-9.30484375 10.828125 -8.64484375 10.828125 -7.96484375 10.828125 C-7.67609375 9.920625 -7.38734375 9.013125 -7.08984375 8.078125 C-4.16738197 -0.36454236 -4.16738197 -0.36454236 0 0 Z " fill="#183928" transform="translate(201.96484375,144.171875)"/>
<path d="M0 0 C2.43564489 -0.00876317 4.87127868 -0.02138498 7.30688477 -0.03768921 C12.40523806 -0.05682977 17.50062524 -0.02909589 22.59863281 0.03173828 C29.12425251 0.10582598 35.64292439 0.06316297 42.16828918 -0.01470375 C47.19604563 -0.06175483 52.22216278 -0.04669917 57.24996948 -0.01304245 C59.6548648 -0.00438991 62.05991052 -0.01494549 64.46463013 -0.04527664 C82.70482962 -0.22487112 82.70482962 -0.22487112 87.20391846 2.9879837 C90.385929 6.42887159 91.8958064 10.3228349 93.4375 14.7265625 C94.4275 16.7065625 95.4175 18.6865625 96.4375 20.7265625 C53.2075 20.7265625 9.9775 20.7265625 -34.5625 20.7265625 C-33.9025 18.7465625 -33.2425 16.7665625 -32.5625 14.7265625 C-32.20551025 13.61479645 -31.84852051 12.5030304 -31.48071289 11.35757446 C-25.41623173 -2.307512 -13.27350526 -0.16742108 0 0 Z " fill="#FDFDFD" transform="translate(170.5625,251.2734375)"/>
<path d="M0 0 C1.09465576 -0.00478363 2.18931152 -0.00956726 3.31713867 -0.01449585 C5.63038572 -0.01789671 7.9436807 -0.00868142 10.25683594 0.01220703 C13.79991711 0.03896746 17.33983 0.0124629 20.8828125 -0.01953125 C23.13021533 -0.01622719 25.3776162 -0.00982104 27.625 0 C28.68549561 -0.01012115 29.74599121 -0.02024231 30.83862305 -0.03067017 C38.17892578 0.08644481 38.17892578 0.08644481 41.39160156 3.01538086 C41.86049805 3.8894458 42.32939453 4.76351074 42.8125 5.6640625 C43.44671875 6.66824219 44.0809375 7.67242187 44.734375 8.70703125 C45.33765625 9.74472656 45.9409375 10.78242188 46.5625 11.8515625 C47.17609375 12.89699219 47.7896875 13.94242188 48.421875 15.01953125 C49.8125 17.6640625 49.8125 17.6640625 49.8125 19.6640625 C26.0525 19.6640625 2.2925 19.6640625 -22.1875 19.6640625 C-20.8338644 16.2799735 -19.55345162 13.31329982 -17.8125 10.1640625 C-17.41289062 9.431875 -17.01328125 8.6996875 -16.6015625 7.9453125 C-16.13492188 7.1925 -15.66828125 6.4396875 -15.1875 5.6640625 C-14.72907715 4.80570801 -14.2706543 3.94735352 -13.79833984 3.06298828 C-9.67489332 -0.72577042 -5.40974691 -0.05162953 0 0 Z " fill="#FAFAFB" transform="translate(187.1875,203.3359375)"/>
<path d="M0 0 C0.66 0 1.32 0 2 0 C3.64220655 2.40995294 5.15026599 4.80314791 6.625 7.3125 C7.04523438 8.00279297 7.46546875 8.69308594 7.8984375 9.40429688 C11 14.61552608 11 14.61552608 11 18 C11.66 18 12.32 18 13 18 C14.94702293 20.5461069 15.91949262 22.60640838 16.5625 25.75 C15.86469516 29.78176132 14.22398469 32.05099987 11.8671875 35.34375 C9.64573491 38.50397544 7.63313359 41.76425734 5.625 45.0625 C4.93664062 46.18785156 4.24828125 47.31320313 3.5390625 48.47265625 C3.03117187 49.30667969 2.52328125 50.14070313 2 51 C-1.64276672 49.57356924 -2.73852463 48.16215191 -4.3125 44.625 C-6.74534911 39.37797747 -9.65909246 34.55315463 -12.7421875 29.6640625 C-14 27 -14 27 -13.76171875 24.8203125 C-13.51035156 24.21960938 -13.25898438 23.61890625 -13 23 C-12.649375 22.0925 -12.29875 21.185 -11.9375 20.25 C-11.4734375 19.13625 -11.4734375 19.13625 -11 18 C-10.34 18 -9.68 18 -9 18 C-8.91621094 17.31550781 -8.83242187 16.63101563 -8.74609375 15.92578125 C-7.81184583 12.26215981 -6.05583549 9.35214059 -4.0625 6.1875 C-3.70220703 5.59001953 -3.34191406 4.99253906 -2.97070312 4.37695312 C-2.04093616 2.87870985 -1.02648071 1.43371436 0 0 Z " fill="#183727" transform="translate(200,42)"/>
<path d="M0 0 C3.33855319 2.99318562 5.27398609 5.85756662 7 10 C7 11.32 7 12.64 7 14 C7.66 14 8.32 14 9 14 C9 14.66 9 15.32 9 16 C8.34 16 7.68 16 7 16 C7.2475 16.53625 7.495 17.0725 7.75 17.625 C8.13553144 21.28754864 6.13181966 23.15757379 4 26 C-1.5509839 19.30053667 -1.5509839 19.30053667 -3 16 C-2.3125 12.75 -2.3125 12.75 -1 10 C-0.34 9.67 0.32 9.34 1 9 C1.07427838 5.65747276 1.06546953 3.1964086 0 0 Z " fill="#193929" transform="translate(232,193)"/>
<path d="M0 0 C0.66 0 1.32 0 2 0 C2.99 1.98 3.98 3.96 5 6 C4.34 6 3.68 6 3 6 C2.67 6.66 2.34 7.32 2 8 C0.68 8 -0.64 8 -2 8 C-1.79375 8.721875 -1.5875 9.44375 -1.375 10.1875 C-0.91599114 13.63006645 -1.27087397 14.9928243 -3 18 C-4.89701584 19.92872084 -6.7935201 21.39110841 -9 23 C-9.66 23 -10.32 23 -11 23 C-11 23.66 -11 24.32 -11 25 C-11.99 24.67 -12.98 24.34 -14 24 C-13.01 22.02 -12.02 20.04 -11 18 C-10.34 18 -9.68 18 -9 18 C-8.91621094 17.31550781 -8.83242187 16.63101563 -8.74609375 15.92578125 C-7.81184583 12.26215981 -6.05583549 9.35214059 -4.0625 6.1875 C-3.70220703 5.59001953 -3.34191406 4.99253906 -2.97070312 4.37695312 C-2.04093616 2.87870985 -1.02648071 1.43371436 0 0 Z " fill="#233C2C" transform="translate(200,42)"/>
<path d="M0 0 C1.625 1.6875 1.625 1.6875 3 4 C2.11557668 7.53769327 0.41550169 10.2825606 -2 13 C-2.66 13 -3.32 13 -4 13 C-4.2475 13.61875 -4.495 14.2375 -4.75 14.875 C-6.20628639 17.35068687 -7.37812506 17.95125002 -10 19 C-8.58572546 15.09120102 -6.72384225 11.84031206 -4.4375 8.375 C-2.56250053 5.52936671 -1.0790587 3.23717611 0 0 Z " fill="#F1F3F2" transform="translate(153,81)"/>
<path d="M0 0 C1.32 0 2.64 0 4 0 C4 1.65 4 3.3 4 5 C3.01 5.33 2.02 5.66 1 6 C1 7.98 1 9.96 1 12 C-1.46278801 13.231394 -3.2795055 13.07159196 -6 13 C-5.67 11.35 -5.34 9.7 -5 8 C-4.34 8 -3.68 8 -3 8 C-2.690625 7.05125 -2.38125 6.1025 -2.0625 5.125 C-1 2 -1 2 0 0 Z " fill="#C6BDB3" transform="translate(199,3)"/>
<path d="M0 0 C1.32 0 2.64 0 4 0 C6.35620437 3.53430656 6.48991613 4.83571287 6 9 C4.0625 12.375 4.0625 12.375 2 15 C1.67 15 1.34 15 1 15 C0.67 13.02 0.34 11.04 0 9 C1.32 9 2.64 9 4 9 C3.67 8.01 3.34 7.02 3 6 C0.98491642 5.26676204 0.98491642 5.26676204 -1 5 C-0.67 3.35 -0.34 1.7 0 0 Z " fill="#223C2C" transform="translate(210,62)"/>
<path d="M0 0 C0 3.34419152 -0.47519394 4.06840321 -2.375 6.6875 C-2.81585938 7.31011719 -3.25671875 7.93273437 -3.7109375 8.57421875 C-4.13632813 9.04472656 -4.56171875 9.51523438 -5 10 C-5.66 10 -6.32 10 -7 10 C-7 11.65 -7 13.3 -7 15 C-7.33 15 -7.66 15 -8 15 C-9.22206704 9.84986034 -9.22206704 9.84986034 -9 7 C-6.25 4.125 -6.25 4.125 -3 2 C-2.01 1.34 -1.02 0.68 0 0 Z " fill="#C4BBB1" transform="translate(219,103)"/>
<path d="M0 0 C0.66 0 1.32 0 2 0 C2 2.31 2 4.62 2 7 C1.67 6.34 1.34 5.68 1 5 C-2.53586014 8.17320782 -4.58578031 10.16743695 -5 15 C-5.99 14.34 -6.98 13.68 -8 13 C-6.716961 10.82778513 -5.42427887 8.6624676 -4.125 6.5 C-3.76019531 5.87996094 -3.39539063 5.25992188 -3.01953125 4.62109375 C-2.0677482 3.04632542 -1.03889741 1.51870947 0 0 Z " fill="#B9B1A7" transform="translate(210,79)"/>
<path d="M0 0 C1.32 0.33 2.64 0.66 4 1 C2.35 3.64 0.7 6.28 -1 9 C-2.32 8.34 -3.64 7.68 -5 7 C-5 6.34 -5 5.68 -5 5 C-4.34 5 -3.68 5 -3 5 C-2.67 3.68 -2.34 2.36 -2 1 C-1.34 1.33 -0.68 1.66 0 2 C0 1.34 0 0.68 0 0 Z " fill="#314939" transform="translate(203,84)"/>
<path d="M0 0 C0.66 0 1.32 0 2 0 C2.99 1.98 3.98 3.96 5 6 C4.34 6 3.68 6 3 6 C2.67 6.66 2.34 7.32 2 8 C0.68 8 -0.64 8 -2 8 C-2.33 8.66 -2.66 9.32 -3 10 C-3.66 9.67 -4.32 9.34 -5 9 C-3.35 6.03 -1.7 3.06 0 0 Z " fill="#2D4535" transform="translate(200,42)"/>
<path d="M0 0 C0.33 0.66 0.66 1.32 1 2 C0.34 2.66 -0.32 3.32 -1 4 C-0.67 2.68 -0.34 1.36 0 0 Z M-6 1 C-4.35 2.32 -2.7 3.64 -1 5 C-4.625 8 -4.625 8 -8 8 C-8.33 8.99 -8.66 9.98 -9 11 C-9.33 10.34 -9.66 9.68 -10 9 C-9.22265625 7.0546875 -9.22265625 7.0546875 -8.0625 4.875 C-7.49208984 3.78832031 -7.49208984 3.78832031 -6.91015625 2.6796875 C-6.60980469 2.12539062 -6.30945313 1.57109375 -6 1 Z " fill="#B5B0A6" transform="translate(182,142)"/>
<path d="M0 0 C2.475 0.495 2.475 0.495 5 1 C5 1.66 5 2.32 5 3 C11.27 2.67 17.54 2.34 24 2 C24 2.66 24 3.32 24 4 C16.74 4 9.48 4 2 4 C1.34 2.68 0.68 1.36 0 0 Z " fill="#B2ADA2" transform="translate(312,328)"/>
<path d="M0 0 C0.33 0 0.66 0 1 0 C1.875 3.1875 1.875 3.1875 2 7 C0.23499458 9.15598763 -1.68308122 10.37815686 -4 12 C-4.33 12.66 -4.66 13.32 -5 14 C-5.66 13.67 -6.32 13.34 -7 13 C-6.34 11.35 -5.68 9.7 -5 8 C-4.01 8 -3.02 8 -2 8 C-1.855625 7.236875 -1.71125 6.47375 -1.5625 5.6875 C-1 3 -1 3 0 0 Z " fill="#AAA89D" transform="translate(157,175)"/>
<path d="M0 0 C4.35444422 3.48355538 5.13985243 6.66708507 6 12 C5.34 12.66 4.68 13.32 4 14 C4 13.34 4 12.68 4 12 C3.34 12 2.68 12 2 12 C1.93941406 11.38511719 1.87882813 10.77023438 1.81640625 10.13671875 C1.73261719 9.32847656 1.64882812 8.52023438 1.5625 7.6875 C1.48128906 6.88699219 1.40007812 6.08648437 1.31640625 5.26171875 C1.04734307 2.83912821 1.04734307 2.83912821 0 0 Z " fill="#3C5343" transform="translate(232,193)"/>
<path d="M0 0 C0.33 0.99 0.66 1.98 1 3 C2.32 2.67 3.64 2.34 5 2 C5 3.65 5 5.3 5 7 C3.02 7.99 3.02 7.99 1 9 C-0.4783226 6.04335481 -0.06032783 3.25770263 0 0 Z " fill="#AFACA1" transform="translate(162,64)"/>
<path d="M0 0 C0.66 0 1.32 0 2 0 C3.42944945 2.35438733 4.08661261 3.48032433 3.625 6.25 C3.41875 6.8275 3.2125 7.405 3 8 C2.01 8 1.02 8 0 8 C-1.125 5.6875 -1.125 5.6875 -2 3 C-1.34 2.01 -0.68 1.02 0 0 Z " fill="#B4AFA4" transform="translate(322,307)"/>
<path d="M0 0 C0.99 0.495 0.99 0.495 2 1 C1.01 1.495 1.01 1.495 0 2 C0 1.34 0 0.68 0 0 Z M-2 2 C-1.34 2 -0.68 2 0 2 C-0.52268466 4.76276177 -1.10869587 7.3260876 -2 10 C-4.0625 10.6875 -4.0625 10.6875 -6 11 C-5.34 8.69 -4.68 6.38 -4 4 C-3.34 4 -2.68 4 -2 4 C-2 3.34 -2 2.68 -2 2 Z " fill="#344D3D" transform="translate(163,205)"/>
<path d="M0 0 C1.32 0 2.64 0 4 0 C4 2 4 2 2.125 3.9375 C1.42375 4.618125 0.7225 5.29875 0 6 C-0.99 7.485 -0.99 7.485 -2 9 C-2.66 9 -3.32 9 -4 9 C-4 9.66 -4 10.32 -4 11 C-4.66 10.67 -5.32 10.34 -6 10 C-5.67 9.34 -5.34 8.68 -5 8 C-4.34 8 -3.68 8 -3 8 C-2.690625 7.05125 -2.38125 6.1025 -2.0625 5.125 C-1 2 -1 2 0 0 Z " fill="#9F9F94" transform="translate(199,3)"/>
<path d="M0 0 C0.99 0.33 1.98 0.66 3 1 C3 1.66 3 2.32 3 3 C4.32 3.33 5.64 3.66 7 4 C7 6.31 7 8.62 7 11 C4.04250209 7.53258866 1.92151848 4.13126473 0 0 Z " fill="#9A9B8F" transform="translate(168,80)"/>
<path d="M0 0 C2.125 0.9375 2.125 0.9375 4 2 C3.67 2.66 3.34 3.32 3 4 C2.401875 4.12375 1.80375 4.2475 1.1875 4.375 C-1.70194332 5.20055523 -3.01607936 6.80351643 -5 9 C-5.33 8.34 -5.66 7.68 -6 7 C-5.34 7 -4.68 7 -4 7 C-3.71125 6.030625 -3.4225 5.06125 -3.125 4.0625 C-2 1 -2 1 0 0 Z " fill="#AEAAA0" transform="translate(114,212)"/>
<path d="M0 0 C0.66 0 1.32 0 2 0 C2.33 0.99 2.66 1.98 3 3 C1.37660195 4.70884005 -0.29319053 6.37446717 -2 8 C-2.66 8 -3.32 8 -4 8 C-2.87548273 5.0280615 -1.77706209 2.66559313 0 0 Z " fill="#EBEEED" transform="translate(92,184)"/>
<path d="M0 0 C0.99 1.32 1.98 2.64 3 4 C2.01 4.33 1.02 4.66 0 5 C-0.66 5.66 -1.32 6.32 -2 7 C-2.99 5.02 -3.98 3.04 -5 1 C-3.35 0.67 -1.7 0.34 0 0 Z " fill="#B5B0A6" transform="translate(181,92)"/>
<path d="M0 0 C0.66 0.33 1.32 0.66 2 1 C2 2.32 2 3.64 2 5 C2.66 5 3.32 5 4 5 C4 5.66 4 6.32 4 7 C3.34 7 2.68 7 2 7 C2 7.66 2 8.32 2 9 C1.34 9 0.68 9 0 9 C0 8.01 0 7.02 0 6 C-0.66 6 -1.32 6 -2 6 C-1.33333333 4 -0.66666667 2 0 0 Z " fill="#2A4636" transform="translate(237,202)"/>
<path d="M0 0 C0.99 0 1.98 0 3 0 C3.66 1.65 4.32 3.3 5 5 C3.68 5.33 2.36 5.66 1 6 C0.34 4.35 -0.32 2.7 -1 1 C-0.67 0.67 -0.34 0.34 0 0 Z " fill="#BAB4A9" transform="translate(209,120)"/>
<path d="M0 0 C1.32 0 2.64 0 4 0 C2.95125002 2.62187494 2.35068687 3.79371361 -0.125 5.25 C-0.74375 5.4975 -1.3625 5.745 -2 6 C-1.125 1.125 -1.125 1.125 0 0 Z " fill="#2A4636" transform="translate(147,231)"/>
<path d="M0 0 C2.64 0 5.28 0 8 0 C7.01 0.66 6.02 1.32 5 2 C3.80767387 4.05003955 3.80767387 4.05003955 3 6 C0.8614515 3.8614515 0.57344937 2.86724686 0 0 Z " fill="#2A4535" transform="translate(303,273)"/>
<path d="M0 0 C2.72426311 2.35277269 3.8141763 4.62496331 5 8 C3.68 7.67 2.36 7.34 1 7 C1 6.34 1 5.68 1 5 C0.34 5 -0.32 5 -1 5 C-0.67 3.35 -0.34 1.7 0 0 Z " fill="#B9B3A8" transform="translate(216,27)"/>
<path d="M0 0 C0 3.59857954 -0.95830515 5.09451118 -3 8 C-3.66 8 -4.32 8 -5 8 C-4.75 5.125 -4.75 5.125 -4 2 C-1.9375 0.625 -1.9375 0.625 0 0 Z " fill="#9D9E93" transform="translate(219,103)"/>
<path d="M0 0 C1.32 1.32 2.64 2.64 4 4 C3.67 4.66 3.34 5.32 3 6 C1.68 6 0.36 6 -1 6 C-1.625 4.125 -1.625 4.125 -2 2 C-1.34 1.34 -0.68 0.68 0 0 Z " fill="#ABA99E" transform="translate(285,207)"/>
<path d="M0 0 C1.875 0.25 1.875 0.25 4 1 C5.25 3.0625 5.25 3.0625 6 5 C3.69 4.67 1.38 4.34 -1 4 C-0.67 2.68 -0.34 1.36 0 0 Z " fill="#284534" transform="translate(220,178)"/>
<path d="M0 0 C2.2477975 2.05233685 3.0022242 3.00667261 4 6 C3.67 6.99 3.34 7.98 3 9 C2.34 9 1.68 9 1 9 C0.34 7.68 -0.32 6.36 -1 5 C-0.34 5 0.32 5 1 5 C0.67 3.35 0.34 1.7 0 0 Z " fill="#B2AEA3" transform="translate(218,132)"/>
<path d="M0 0 C0.99 0.33 1.98 0.66 3 1 C2.6875 2.9375 2.6875 2.9375 2 5 C1.01 5.33 0.02 5.66 -1 6 C-1.33 4.68 -1.66 3.36 -2 2 C-1.34 2 -0.68 2 0 2 C0 1.34 0 0.68 0 0 Z " fill="#B1ADA2" transform="translate(147,226)"/>
<path d="M0 0 C0.99 0.33 1.98 0.66 3 1 C2.67 2.98 2.34 4.96 2 7 C1.34 7 0.68 7 0 7 C-1.125 2.25 -1.125 2.25 0 0 Z " fill="#ABA89E" transform="translate(164,196)"/>
<path d="M0 0 C0 3.58534593 -1.02362045 5.07495826 -3 8 C-3.33 8 -3.66 8 -4 8 C-4.33 6.02 -4.66 4.04 -5 2 C-3.35 1.34 -1.7 0.68 0 0 Z " fill="#364738" transform="translate(215,69)"/>
</svg>
